<svg width="46" height="45" viewBox="0 0 46 45" fill="none" xmlns="http://www.w3.org/2000/svg">
<g clip-path="url(#clip0_7_4698)">
<path opacity="0.27" d="M45.7019 35.6103C45.7019 40.6449 35.4096 45.2537 22.7848 44.9899C8.43661 44.6898 -0.00512695 40.2701 -0.00512695 35.2355C-0.00512695 30.2009 10.1978 26.9827 22.8205 26.9827C35.4432 26.9827 45.7019 30.5746 45.7019 35.6103Z" fill="black"/>
<path d="M46 35.0748C46 40.1094 35.7078 44.7182 23.083 44.4543C8.73475 44.1543 0.293011 39.7345 0.293011 34.6999C0.293011 29.6653 10.5023 26.4471 23.1239 26.4471C35.7456 26.4471 46 30.0402 46 35.0748Z" fill="#B22F5D"/>
<path d="M45.9801 34.5116C45.9801 39.5473 36.233 43.4835 23.6124 43.4835C10.9918 43.4835 0.267895 39.553 0.267895 34.5172C0.267895 29.4815 10.5013 25.4015 23.124 25.4015C35.7467 25.4015 45.9801 29.477 45.9801 34.5116Z" fill="url(#paint0_linear_7_4698)"/>
<path d="M45.205 34.5073C45.205 39.1659 35.8129 42.8043 23.6533 42.8043C11.4938 42.8043 1.15532 39.1659 1.15532 34.5073C1.15532 29.8486 11.0149 26.0721 23.1776 26.0721C35.3403 26.0721 45.205 29.8486 45.205 34.5073Z" fill="#B22F5D"/>
<path d="M44.3511 34.7185C44.3511 39.1178 35.2992 42.5535 23.5734 42.5535C11.8476 42.5535 1.89037 39.1178 1.89037 34.7185C1.89037 30.3192 11.396 26.7533 23.1228 26.7533C34.8497 26.7533 44.3511 30.3192 44.3511 34.7185Z" fill="url(#paint1_linear_7_4698)"/>
<path d="M39.1116 35.5375L38.1517 38.0367L32.2893 39.9652L25.8315 40.6435L21.1947 40.3219L18.1816 39.4296L14.572 37.9291L39.0455 32.9308L39.1116 35.5375Z" fill="#914004"/>
<path d="M41.9924 35.5374C41.9924 35.5374 42.1258 35.466 40.9328 35.1795C39.7397 34.8931 41.0661 34.2521 40.7343 32.9657C40.4024 31.6793 37.886 31.2535 36.1647 31.5378C34.4434 31.822 35.899 35.0369 35.899 35.0369L38.0856 36.68L41.9924 35.5374Z" fill="#914004"/>
<path d="M38.8134 32.5378C38.8134 32.5378 39.0791 33.395 38.7473 35.1083C38.4154 36.8216 36.2971 38.2507 34.5085 38.5372C32.72 38.8237 27.9509 39.6798 25.4346 39.6798C22.9182 39.6798 19.4735 39.322 17.6188 38.8939C15.7641 38.4659 10.7303 37.0368 9.6045 36.8228C8.47865 36.6087 6.35825 35.3235 5.89509 34.8977C5.43194 34.4719 5.29856 32.6839 5.6966 32.2558C6.09464 31.8278 9.28943 32.5231 9.28943 32.5231L38.8134 32.5378Z" fill="#FFEDC4"/>
<path d="M34.8561 30.5195C34.8561 30.5195 37.3063 30.5908 38.4994 31.8783C39.6924 33.1659 38.367 36.0557 34.7185 37.0556C31.07 38.0555 22.2996 38.3409 19.2529 37.8052C16.2062 37.2696 10.9403 35.7669 9.64852 35.3774C8.35674 34.9879 4.71244 33.0922 5.87294 31.4492C7.03345 29.8061 34.8561 30.5195 34.8561 30.5195Z" fill="url(#paint2_linear_7_4698)"/>
<path d="M36.1142 30.3485C36.1142 30.3485 36.2633 30.7765 35.419 31.5805C34.5746 32.3845 33.6336 32.5442 32.786 32.6518C31.9385 32.7593 30.6005 34.1511 28.2165 34.3651C25.8325 34.5791 23 34.9539 18.1343 35.2223C13.2686 35.4907 9.24199 33.0741 8.09725 32.8601C6.9525 32.6461 5.26163 31.6281 5.11669 30.8218C4.97176 30.0156 5.21647 29.1085 5.21647 29.1085L36.1142 30.3485Z" fill="#FFEDC4"/>
<path d="M24.9208 33.269C24.9208 33.269 22.3373 33.4479 19.9196 33.6982C17.502 33.9484 13.8283 34.2338 9.28923 32.5194C4.75014 30.8049 4.05699 28.4847 6.83905 27.735C9.62111 26.9854 28.5305 32.662 28.5305 32.662C28.5305 32.662 27.4372 33.269 24.9208 33.269Z" fill="#E2952C"/>
<path opacity="0.18" d="M36.7108 23.9315C37.103 24.3839 37.5174 24.8133 37.9522 25.2179C38.6485 25.86 37.3567 25.9313 37.007 27.3774C36.6572 28.8234 36.9219 29.4157 36.088 30.2876C34.8277 31.6091 33.0423 31.7971 31.2191 32.5105C29.4821 33.1899 26.8197 33.9158 24.3927 33.7697C20.5352 33.5376 18.2499 34.02 16.7596 33.7516C15.2693 33.4832 13.7969 32.6192 12.4211 32.1357C10.4341 31.4393 9.55503 30.6375 8.34727 29.7701C5.51165 27.7318 6.56188 26.7704 6.56188 26.1816C6.56188 25.5927 7.45563 26.0683 8.84613 25.1624C10.2366 24.2565 36.7108 23.9315 36.7108 23.9315Z" fill="black"/>
<path d="M36.711 23.7538C37.1033 24.2056 37.5177 24.6346 37.9523 25.039C38.6486 25.6822 39.1947 26.1635 38.8471 27.6096C38.4995 29.0556 37.3064 29.5346 36.4127 30.342C35.5189 31.1494 32.5878 33.1809 30.7499 33.3995C28.912 33.618 27.2725 33.8807 24.8381 33.9351C22.4037 33.9894 18.6785 33.6135 17.1883 33.3451C15.698 33.0767 13.4967 32.1674 12.1209 31.685C10.1339 30.9886 9.55309 30.4643 8.34008 29.5958C5.50446 27.5575 6.55469 26.5972 6.55469 26.0072C6.55469 25.4173 7.44844 25.9008 8.83894 24.9881C10.2294 24.0754 36.711 23.7538 36.711 23.7538Z" fill="#FFEDC4"/>
<path d="M36.4122 23.5222C36.4122 23.5222 38.5315 24.3794 38.8581 26.0576C39.1848 27.7358 36.7713 29.4854 35.1487 29.9134C33.5261 30.3415 31.9697 31.9517 29.32 32.4851C26.6702 33.0184 22.9944 32.8055 19.6831 32.6278C16.3717 32.45 12.7285 31.2689 10.6753 30.1274C8.62208 28.986 6.30317 28.4855 6.46911 26.4143C6.63505 24.3432 8.78696 24.307 8.78696 24.307L36.4122 23.5222Z" fill="url(#paint3_linear_7_4698)"/>
<path opacity="0.18" d="M37.5875 24.2183C37.5875 24.2183 37.3564 25.9316 34.4085 26.8601C31.4605 27.7887 28.481 27.9495 27.123 27.8793C25.7651 27.8091 23.5964 28.022 21.5095 27.9857C19.4227 27.9495 15.2008 26.6472 14.3732 26.6472C13.5457 26.6472 10.2658 25.8263 9.13996 25.6836C8.01411 25.5409 7.35457 24.755 7.64968 24.5761C7.9448 24.3972 12.2528 25.3257 12.2528 25.3257L20.4005 26.611L30.7327 26.5046L35.8 25.3971L37.5854 24.2194" fill="black"/>
<path d="M37.952 22.5487C37.952 22.5487 38.0518 23.9959 37.0909 24.8259C36.6876 25.1747 34.2437 27.1824 29.8716 27.1111C25.4995 27.0398 22.3215 27.6105 18.5459 26.8971C14.7703 26.1837 11.6575 25.6831 9.67043 25.2528C7.6834 24.8225 5.63021 23.5395 5.96103 21.6111C6.29185 19.6826 37.952 22.5487 37.952 22.5487Z" fill="#FFEDC4"/>
<path d="M36.1478 19.9502C36.1478 19.9502 37.9332 20.2367 38.0025 22.0927C38.0718 23.9487 34.6901 25.5917 30.9817 25.8782C27.2734 26.1647 23.9599 26.2349 19.9858 25.8069C16.0118 25.3789 12.2373 25.0924 9.25671 23.9498C6.27616 22.8072 4.81844 20.9501 7.20351 20.8074C9.58858 20.6647 36.1478 19.9502 36.1478 19.9502Z" fill="#E2802C"/>
<path d="M37.6045 18.3794C37.6045 18.3794 38.0519 18.9682 37.3566 20.5751C36.6614 22.182 34.0778 22.986 32.9845 23.3608C31.8912 23.7356 28.5137 24.3244 26.6264 25.0209C24.7392 25.7173 22.9002 25.3957 21.3112 25.1284C19.7222 24.8612 16.8898 24.2225 15.4993 24.0572C14.1088 23.8919 10.4813 23.6824 7.89876 21.7007C5.31625 19.719 5.41497 18.0046 5.5662 17.2549C5.71743 16.5053 37.6045 18.3794 37.6045 18.3794Z" fill="#FFEDC4"/>
<path d="M36.611 15.5944C36.611 15.5944 38.3964 17.5194 37.3399 20.022C36.2833 22.5246 32.9027 22.3083 29.7887 23.5222C26.6748 24.7361 21.5098 24.2333 18.5292 23.6671C15.5487 23.101 12.7666 23.8098 8.65708 21.2393C4.54753 18.6688 5.21338 16.0303 6.73621 16.0303C8.25904 16.0303 36.611 15.5944 36.611 15.5944Z" fill="url(#paint4_radial_7_4698)"/>
<path d="M38.052 15.2732C38.052 15.2732 38.3997 16.3445 37.6551 17.0941C36.9104 17.8437 33.681 19.1822 32.1939 20.0383C30.7067 20.8944 26.0332 22.1808 20.9669 21.4312C15.9006 20.6815 13.1679 20.3599 11.7249 20.1991C10.2819 20.0383 8.19825 19.7167 6.75733 18.539C6.22052 18.1033 5.77478 17.5506 5.44908 16.917C5.12339 16.2833 4.92503 15.5828 4.86692 14.861C4.81756 14.0038 9.58665 14.3786 9.58665 14.3786L38.0478 15.2721" fill="#FFEDC4"/>
<path d="M34.6237 11.3807C34.6237 11.3807 37.9361 11.7386 38.0684 14.5231C38.2007 17.3077 35.0228 17.5942 32.769 18.6654C30.5152 19.7366 24.5562 20.7365 21.3771 20.4512C18.1981 20.1658 14.8857 19.2373 11.505 19.0923C8.12431 18.9474 6.9344 16.8785 5.87472 16.1639C4.81504 15.4494 4.35189 14.5209 5.80856 13.3783C7.26522 12.2357 34.6237 11.3807 34.6237 11.3807Z" fill="url(#paint5_radial_7_4698)"/>
<path d="M37.8861 33.9719C37.8861 33.9719 38.3503 32.758 36.9587 32.6131C35.5672 32.4681 34.6409 33.1793 33.515 33.3276C32.3892 33.4759 29.8056 34.1837 28.2166 34.3626C26.6276 34.5415 22.3217 34.9696 22.3217 34.9696C22.3217 34.9696 21.5267 35.6128 23.3814 35.8268C25.2361 36.0408 30.9315 36.3262 31.3295 37.3261C31.7275 38.326 30.9976 39.1118 30.5345 39.3259C30.0713 39.5399 27.2893 39.8615 26.2285 39.9328C25.1678 40.0042 20.8629 39.8264 18.6774 39.2534C16.4919 38.6804 13.4452 37.7541 12.4516 37.6114C12.4516 37.6114 15.5645 38.6827 17.0212 39.3247C18.4778 39.9668 22.2545 41.3959 25.4335 41.1818C28.6125 40.9678 30.6668 40.5398 32.4522 40.3937C34.2376 40.2476 38.032 39.344 40.0695 38.4686C42.0565 37.6126 42.9167 36.6127 42.3873 35.7509C41.858 34.8892 40.0023 35.7509 39.9361 35.1077C39.8699 34.4645 38.9247 34.6242 38.7441 35.8585C38.6454 36.5379 37.5521 38.2501 32.386 39.1073C32.386 39.1073 31.9218 38.8219 32.0541 38.0361C32.1865 37.2502 32.7168 37.5367 34.6377 36.8222C36.5586 36.1076 37.4933 35.4667 37.8861 33.9719Z" fill="#914004"/>
<path d="M25.1026 6.11396C23.8039 6.11396 22.7511 5.92231 22.7511 5.68591C22.7511 5.44951 23.8039 5.25787 25.1026 5.25787C26.4012 5.25787 27.454 5.44951 27.454 5.68591C27.454 5.92231 26.4012 6.11396 25.1026 6.11396Z" fill="#6C3200"/>
<path opacity="0.18" d="M30.7991 18.0851C30.65 18.1293 26.9248 19.6829 22.3048 19.2005C17.6849 18.7181 15.2998 17.3264 14.3063 17.2188C13.3128 17.1113 9.19065 15.612 8.09736 15.3447C7.00407 15.0775 5.5138 14.0583 6.35818 13.1479C7.20256 12.2375 30.7991 18.0851 30.7991 18.0851Z" fill="black"/>
<path d="M37.8283 13.577C37.8283 13.577 37.7537 14.4422 37.4555 14.6834C37.1572 14.9246 37.4555 15.1125 36.9839 15.4602C36.5124 15.8078 33.4068 17.3853 30.7991 18.0851C28.1914 18.7849 25.2109 19.2367 21.4605 18.5131C17.7101 17.7895 16.244 17.0138 14.2822 16.451C12.3204 15.8882 9.7116 14.9517 8.27068 14.5769C6.82977 14.2021 6.63232 13.7458 6.45799 13.4253C6.28365 13.1048 6.23429 12.3801 6.50735 12.2193C6.78041 12.0585 10.2084 13.3449 10.2084 13.3449L23.4475 14.1749L37.8283 13.577Z" fill="#FFEDC4"/>
<path d="M36.8632 10.5596C36.8632 10.5596 37.6078 10.9344 37.8084 12.3805C38.009 13.8265 37.7591 14.4188 36.4179 14.8978C35.0768 15.3768 32.593 16.9361 29.2648 17.5226C25.9366 18.1092 23.0054 17.7366 18.4348 16.7198C13.8643 15.7029 10.388 14.0417 8.79795 13.7201C7.2079 13.3985 6.21544 12.5945 6.56306 12.0589C6.91069 11.5232 9.54361 11.5232 9.54361 11.5232L36.8632 10.5596Z" fill="url(#paint6_radial_7_4698)"/>
<path d="M35.6921 11.7286C35.6921 11.7286 38.0184 12.3978 37.8199 13.4747C37.6214 14.5516 34.8393 15.5459 34.31 15.7599C33.7807 15.9739 33.6473 17.0451 34.1105 17.0451C34.5736 17.0451 35.9652 16.3317 36.0313 16.9738C36.0975 17.6159 33.7471 18.0813 32.7693 18.6724C31.7916 19.2635 31.0638 20.4763 31.8588 20.4049C32.6538 20.3336 35.5766 19.9758 35.2458 21.1897C34.9149 22.4036 33.3165 22.0469 31.3295 23.0468C29.3424 24.0467 30.9976 24.4057 32.1907 24.118C34.1021 23.6651 35.3697 25.0466 32.6538 25.546C29.9379 26.0454 29.4065 26.3239 29.6733 27.1766C29.94 28.0293 32.5876 27.8198 33.3827 28.1765C34.1777 28.5332 34.1105 29.8185 32.1907 30.4617C30.2708 31.1049 29.5409 30.1763 28.2828 30.747C27.0246 31.3178 25.3022 31.4616 24.7057 30.4617C24.1091 29.4618 26.3619 28.3905 27.2892 27.8912C28.2166 27.3918 29.5409 27.0339 28.6797 26.3907C27.8186 25.7475 26.4942 26.3907 26.5604 25.6049C26.6265 24.819 28.6797 24.8915 29.2101 24.3196C29.7405 23.7478 29.5409 23.0343 27.7524 23.177C25.9639 23.3197 25.6257 22.3153 26.7505 21.7412C27.8753 21.167 29.8718 21.2497 30.336 20.679C30.8002 20.1083 31.3295 18.8219 30.5344 18.8219C29.7394 18.8219 28.5884 20.0052 28.1662 19.3303C27.8375 18.806 29.9379 18.3395 30.7991 18.0847C31.6603 17.8299 33.097 17.3124 33.097 17.3124C33.097 17.3124 33.8458 16.8968 33.2503 15.7542C32.6549 14.6116 30.9314 15.8256 28.9444 15.0408C26.9574 14.2561 28.8814 12.733 31.1919 12.5179C32.7069 12.3654 34.2104 12.1016 35.6921 11.7286Z" fill="#914004"/>
<path opacity="0.18" d="M37.3065 10.8986L37.6552 11.6483C37.6552 11.6483 35.7648 13.2551 30.9484 13.2019C26.1321 13.1487 24.8382 13.4691 23.5464 12.9335C22.2547 12.3979 18.1325 12.8203 17.2377 12.8203C16.3429 12.8203 11.7765 12.4998 10.3325 11.9642C8.8884 11.4286 37.3065 10.8986 37.3065 10.8986Z" fill="black"/>
<path d="M39.0946 6.91821C39.0941 7.12808 39.0607 7.33635 38.9959 7.53423C38.8908 7.7743 39.1944 8.15025 39.1944 8.76627C39.1944 9.38229 38.6482 10.2384 36.7106 11.2836C34.7729 12.3288 31.8921 12.5416 28.2657 12.6753C24.6392 12.8089 25.5351 12.3808 20.5654 12.194C15.5957 12.0072 16.9148 12.81 11.649 12.1668C6.38312 11.5236 6.28335 10.6947 6.15942 10.4796C6.0355 10.2644 5.88111 9.43551 5.98613 9.1728C6.09115 8.91008 8.04773 8.53073 8.04773 8.53073L39.0946 6.91821Z" fill="#FFEDC4"/>
<path d="M38.6975 7.81309C38.6975 7.81309 38.5316 7.59907 38.9296 7.2469C39.3276 6.89473 38.9958 5.96164 37.8027 4.99798C36.6096 4.03431 31.7114 1.8556 23.298 2.24854C14.8846 2.64148 8.95818 5.70345 7.8985 6.52444C6.83882 7.34542 6.04379 7.98861 6.07635 8.88093C6.07635 8.88093 5.67936 9.52413 6.80521 9.66681C7.93106 9.80949 9.91809 10.1662 11.7728 10.4516C13.6275 10.7369 18.8272 11.0178 21.8403 10.7381C24.8534 10.4584 27.2385 11.2737 31.3785 10.8807C35.5185 10.4878 37.8773 9.95444 38.6975 8.88093C39.1606 8.27397 38.6975 7.81309 38.6975 7.81309Z" fill="url(#paint7_linear_7_4698)"/>
<path d="M25.8357 4.57872C25.8357 4.57872 30.6542 4.52549 30.2572 5.52992C29.8602 6.53435 28.3195 5.79377 27.724 7.06204C27.1286 8.33032 31.6477 7.85472 33.2902 7.80149C34.9328 7.74827 36.0649 8.91803 35.6554 10.0425C35.1082 11.5429 34.2596 11.2994 34.8393 11.9676C34.8971 12.0344 34.3762 12.1102 34.3762 12.1102C34.3762 12.1102 34.1031 11.9268 34.4255 11.0197C34.8015 9.96549 32.6402 9.54084 30.7004 9.85791C28.7606 10.175 22.8016 10.2282 21.0131 10.3335C19.2245 10.4388 16.6914 10.6506 16.1453 9.96322C15.5991 9.27586 17.4864 9.756 17.2869 8.75157C17.0873 7.74714 14.8535 8.48772 12.1712 8.11856C9.48892 7.7494 10.6305 6.21615 12.1712 5.79377C13.7119 5.37139 10.1842 5.42348 8.4954 6.26937C6.80663 7.11527 7.84951 5.63523 9.83654 4.94787C11.8236 4.26051 16.3942 4.63194 19.3747 4.84256C22.3553 5.05319 23.1986 4.63194 25.8357 4.57872Z" fill="#914004"/>
<path opacity="0.18" d="M6.75588 18.5407C8.1968 19.7184 10.2826 20.04 11.7235 20.2008C13.1644 20.3616 15.896 20.6832 20.9655 21.4328C26.0349 22.1824 30.7021 20.8972 32.1924 20.04C33.5451 19.262 36.3324 18.0866 37.391 17.3154L37.5076 17.3268C37.5076 17.3268 37.6063 17.6121 37.6063 18.3799C37.6063 19.1476 35.2223 19.4692 33.8255 20.1113C32.4287 20.7534 29.1068 21.8971 26.6231 22.1824C24.1393 22.4678 20.5128 22.2538 18.3767 21.879C16.2405 21.5041 12.3662 20.7545 11.3223 20.8598C10.2783 20.9651 5.56072 20.2936 5.56072 17.2543C5.56107 17.2194 5.56565 17.1848 5.57438 17.1512C5.88607 17.6884 6.28654 18.1594 6.75588 18.5407Z" fill="black"/>
<path opacity="0.18" d="M32.9842 23.3607C34.0775 22.9859 36.66 22.1819 37.3563 20.575C37.3563 20.575 37.7533 20.8072 37.9518 21.5036C37.9518 21.5036 36.3628 23.004 34.7234 23.4286C33.084 23.8533 31.6935 24.4478 30.5508 24.0718C30.5286 24.0672 30.5077 24.0573 30.4895 24.0428C30.4713 24.0283 30.4564 24.0096 30.4458 23.988C31.5255 23.7446 32.4896 23.5305 32.9842 23.3607Z" fill="black"/>
<path d="M32.2421 7.76619C32.2421 7.83555 32.2613 7.90333 32.2972 7.96087C32.3332 8.0184 32.3842 8.06308 32.4438 8.08919C32.5034 8.1153 32.5688 8.12166 32.6318 8.10745C32.6948 8.09325 32.7524 8.05912 32.7973 8.00943C32.8422 7.95974 32.8723 7.89675 32.8838 7.82851C32.8953 7.76027 32.8877 7.68987 32.8619 7.62632C32.8361 7.56277 32.7934 7.50895 32.7391 7.47174C32.6848 7.43453 32.6215 7.41561 32.5571 7.41742C32.4727 7.41949 32.3924 7.45719 32.3335 7.5224C32.2746 7.58762 32.2418 7.67515 32.2421 7.76619Z" fill="#D72F5D"/>
<path d="M29.855 8.99698C29.6769 8.99698 29.5326 8.84134 29.5326 8.64934C29.5326 8.45734 29.6769 8.3017 29.855 8.3017C30.033 8.3017 30.1774 8.45734 30.1774 8.64934C30.1774 8.84134 30.033 8.99698 29.855 8.99698Z" fill="#F6605D"/>
<path d="M28.7867 8.0056C28.7865 8.07463 28.8053 8.14217 28.8407 8.19967C28.8762 8.25718 28.9266 8.30206 28.9857 8.32863C29.0448 8.3552 29.1098 8.36227 29.1727 8.34894C29.2355 8.33561 29.2932 8.30248 29.3386 8.25375C29.3839 8.20502 29.4148 8.14288 29.4274 8.07519C29.4399 8.0075 29.4336 7.93732 29.4091 7.87352C29.3847 7.80973 29.3432 7.75519 29.29 7.71682C29.2368 7.67844 29.1742 7.65796 29.1102 7.65796C29.0246 7.65796 28.9425 7.69455 28.8818 7.75971C28.8212 7.82487 28.787 7.91329 28.7867 8.0056Z" fill="#D72F5D"/>
<path d="M11.8477 7.5781C11.6696 7.5781 11.5253 7.42245 11.5253 7.23046C11.5253 7.03846 11.6696 6.88281 11.8477 6.88281C12.0258 6.88281 12.1701 7.03846 12.1701 7.23046C12.1701 7.42245 12.0258 7.5781 11.8477 7.5781Z" fill="#D72F5D"/>
<path d="M9.66235 5.41746C9.48428 5.41746 9.33992 5.26181 9.33992 5.06981C9.33992 4.87781 9.48428 4.72217 9.66235 4.72217C9.84041 4.72217 9.98477 4.87781 9.98477 5.06981C9.98477 5.26181 9.84041 5.41746 9.66235 5.41746Z" fill="#D72F5D"/>
<path d="M30.2036 14.7808C30.0255 14.7808 29.8812 14.6252 29.8812 14.4332C29.8812 14.2412 30.0255 14.0855 30.2036 14.0855C30.3816 14.0855 30.526 14.2412 30.526 14.4332C30.526 14.6252 30.3816 14.7808 30.2036 14.7808Z" fill="#D72F5D"/>
<path d="M33.5559 34.9747C33.5557 35.0437 33.5745 35.1112 33.61 35.1687C33.6454 35.2262 33.6958 35.2711 33.7549 35.2977C33.814 35.3243 33.8791 35.3313 33.9419 35.318C34.0047 35.3047 34.0624 35.2715 34.1078 35.2228C34.1531 35.1741 34.184 35.1119 34.1966 35.0442C34.2092 34.9766 34.2028 34.9064 34.1784 34.8426C34.1539 34.7788 34.1125 34.7242 34.0592 34.6859C34.006 34.6475 33.9434 34.627 33.8794 34.627C33.7938 34.627 33.7117 34.6636 33.6511 34.7288C33.5904 34.7939 33.5562 34.8823 33.5559 34.9747Z" fill="#D72F5D"/>
<path d="M25.1362 9.10441C24.9581 9.10441 24.8138 8.94876 24.8138 8.75676C24.8138 8.56476 24.9581 8.40912 25.1362 8.40912C25.3142 8.40912 25.4586 8.56476 25.4586 8.75676C25.4586 8.94876 25.3142 9.10441 25.1362 9.10441Z" fill="#F6605D"/>
<path d="M28.8812 35.2436C28.8812 35.3126 28.9002 35.38 28.9357 35.4374C28.9712 35.4947 29.0218 35.5394 29.0809 35.5658C29.14 35.5922 29.205 35.5991 29.2678 35.5857C29.3305 35.5722 29.3881 35.539 29.4334 35.4902C29.4786 35.4415 29.5094 35.3793 29.5219 35.3117C29.5344 35.244 29.528 35.1739 29.5035 35.1101C29.479 35.0464 29.4376 34.9919 29.3844 34.9536C29.3312 34.9153 29.2686 34.8948 29.2047 34.8948C29.1189 34.8948 29.0366 34.9316 28.9759 34.997C28.9153 35.0624 28.8812 35.1511 28.8812 35.2436Z" fill="#F6605D"/>
<path d="M28.4148 29.672C28.2367 29.672 28.0924 29.5164 28.0924 29.3244C28.0924 29.1324 28.2367 28.9767 28.4148 28.9767C28.5929 28.9767 28.7372 29.1324 28.7372 29.3244C28.7372 29.5164 28.5929 29.672 28.4148 29.672Z" fill="#F6605D"/>
<path d="M31.8922 22.2001C31.7141 22.2001 31.5697 22.0445 31.5697 21.8525C31.5697 21.6605 31.7141 21.5048 31.8922 21.5048C32.0702 21.5048 32.2146 21.6605 32.2146 21.8525C32.2146 22.0445 32.0702 22.2001 31.8922 22.2001Z" fill="#F6605D"/>
<path d="M16.6167 9.77415C16.4386 9.77415 16.2943 9.6185 16.2943 9.4265C16.2943 9.2345 16.4386 9.07886 16.6167 9.07886C16.7947 9.07886 16.9391 9.2345 16.9391 9.4265C16.9391 9.6185 16.7947 9.77415 16.6167 9.77415Z" fill="#F6605D"/>
<path d="M36.5616 13.8173C36.3835 13.8173 36.2392 13.6617 36.2392 13.4697C36.2392 13.2777 36.3835 13.122 36.5616 13.122C36.7397 13.122 36.884 13.2777 36.884 13.4697C36.884 13.6617 36.7397 13.8173 36.5616 13.8173Z" fill="#F6605D"/>
<path d="M28.39 4.73912C28.3898 4.80815 28.4085 4.8757 28.444 4.9332C28.4794 4.99071 28.5298 5.03558 28.5889 5.06216C28.648 5.08873 28.7131 5.0958 28.7759 5.08247C28.8387 5.06914 28.8964 5.03601 28.9418 4.98728C28.9871 4.93855 29.018 4.8764 29.0306 4.80872C29.0432 4.74103 29.0368 4.67084 29.0124 4.60705C28.9879 4.54325 28.9465 4.48871 28.8932 4.45034C28.84 4.41196 28.7774 4.39148 28.7134 4.39148C28.6278 4.39148 28.5457 4.42807 28.4851 4.49323C28.4244 4.5584 28.3902 4.64682 28.39 4.73912Z" fill="#F6605D"/>
<path d="M12.7623 6.532C12.7273 6.56992 12.7036 6.61814 12.694 6.6706C12.6845 6.72305 12.6895 6.77739 12.7086 6.82675C12.7276 6.87611 12.7598 6.91828 12.801 6.94795C12.8423 6.97762 12.8907 6.99345 12.9403 6.99345C12.9899 6.99345 13.0384 6.97762 13.0796 6.94795C13.1209 6.91828 13.153 6.87611 13.1721 6.82675C13.1911 6.77739 13.1962 6.72305 13.1866 6.6706C13.177 6.61814 13.1533 6.56992 13.1183 6.532C13.0711 6.48118 13.0071 6.45264 12.9403 6.45264C12.8736 6.45264 12.8096 6.48118 12.7623 6.532Z" fill="#F6605D"/>
<path d="M11.3847 4.92245C11.2461 4.92245 11.1337 4.80128 11.1337 4.65181C11.1337 4.50233 11.2461 4.38116 11.3847 4.38116C11.5233 4.38116 11.6357 4.50233 11.6357 4.65181C11.6357 4.80128 11.5233 4.92245 11.3847 4.92245Z" fill="#F6605D"/>
<path d="M27.496 8.04668C27.496 8.08633 27.5069 8.12508 27.5273 8.15804C27.5478 8.191 27.5768 8.21669 27.6108 8.23186C27.6447 8.24703 27.6821 8.251 27.7182 8.24327C27.7542 8.23553 27.7874 8.21644 27.8134 8.18841C27.8393 8.16038 27.8571 8.12467 27.8642 8.08579C27.8714 8.04691 27.8677 8.00661 27.8536 7.96998C27.8396 7.93336 27.8158 7.90205 27.7852 7.88003C27.7546 7.85801 27.7187 7.84625 27.6819 7.84625C27.6326 7.84625 27.5853 7.86737 27.5505 7.90496C27.5156 7.94255 27.496 7.99353 27.496 8.04668Z" fill="#F6605D"/>
<path d="M26.2409 9.78765C26.2407 9.82756 26.2515 9.86664 26.2719 9.89994C26.2924 9.93324 26.3215 9.95925 26.3556 9.97468C26.3897 9.99011 26.4274 9.99426 26.4637 9.98661C26.5 9.97896 26.5334 9.95986 26.5597 9.93171C26.5859 9.90357 26.6038 9.86765 26.6111 9.82852C26.6184 9.78939 26.6148 9.74881 26.6007 9.71191C26.5866 9.67501 26.5626 9.64347 26.5318 9.62127C26.5011 9.59907 26.4649 9.58722 26.4279 9.58722C26.3785 9.58722 26.3311 9.6083 26.2961 9.64585C26.261 9.68341 26.2412 9.73439 26.2409 9.78765Z" fill="#F6605D"/>
<path d="M34.7733 14.4335C34.7731 14.4734 34.7839 14.5125 34.8043 14.5458C34.8247 14.5791 34.8538 14.6051 34.888 14.6206C34.9221 14.636 34.9597 14.6401 34.9961 14.6325C35.0324 14.6248 35.0658 14.6057 35.092 14.5776C35.1183 14.5494 35.1362 14.5135 35.1435 14.4744C35.1508 14.4353 35.1472 14.3947 35.133 14.3578C35.1189 14.3209 35.095 14.2893 35.0642 14.2671C35.0334 14.2449 34.9973 14.2331 34.9602 14.2331C34.9108 14.2331 34.8634 14.2542 34.8284 14.2917C34.7934 14.3293 34.7736 14.3803 34.7733 14.4335Z" fill="#F6605D"/>
<path d="M33.097 21.3039C33.097 21.3438 33.108 21.3829 33.1285 21.416C33.1491 21.4492 33.1784 21.475 33.2126 21.4902C33.2468 21.5055 33.2845 21.5094 33.3208 21.5015C33.3571 21.4937 33.3904 21.4743 33.4165 21.446C33.4426 21.4177 33.4603 21.3817 33.4674 21.3425C33.4745 21.3034 33.4706 21.2628 33.4563 21.226C33.442 21.1892 33.4179 21.1578 33.387 21.1358C33.3561 21.1138 33.3199 21.1021 33.2829 21.1024C33.2584 21.1024 33.2341 21.1076 33.2115 21.1177C33.1889 21.1279 33.1683 21.1427 33.151 21.1615C33.1338 21.1802 33.1201 21.2024 33.1108 21.2269C33.1015 21.2513 33.0968 21.2775 33.097 21.3039Z" fill="#F6605D"/>
<path d="M28.8739 14.1659C28.8737 14.2058 28.8845 14.2449 28.9049 14.2782C28.9253 14.3115 28.9544 14.3375 28.9886 14.3529C29.0227 14.3683 29.0603 14.3725 29.0967 14.3648C29.133 14.3572 29.1664 14.3381 29.1926 14.3099C29.2189 14.2818 29.2368 14.2459 29.2441 14.2068C29.2514 14.1676 29.2478 14.127 29.2336 14.0901C29.2195 14.0532 29.1956 14.0217 29.1648 13.9995C29.134 13.9773 29.0979 13.9655 29.0608 13.9655C29.0114 13.9655 28.964 13.9865 28.929 14.0241C28.894 14.0616 28.8742 14.1126 28.8739 14.1659Z" fill="#F6605D"/>
<path d="M17.6229 9.29196C17.6231 9.33155 17.6342 9.37019 17.6548 9.403C17.6753 9.43582 17.7044 9.46133 17.7384 9.47633C17.7724 9.49132 17.8097 9.49513 17.8457 9.48727C17.8817 9.47941 17.9147 9.46023 17.9406 9.43216C17.9665 9.40408 17.9841 9.36836 17.9912 9.32952C17.9983 9.29067 17.9946 9.25042 17.9805 9.21387C17.9664 9.17731 17.9425 9.14607 17.912 9.1241C17.8814 9.10212 17.8455 9.09039 17.8088 9.09039C17.7843 9.09039 17.7601 9.09561 17.7374 9.10576C17.7148 9.1159 17.6943 9.13077 17.677 9.1495C17.6597 9.16823 17.6461 9.19046 17.6368 9.21491C17.6275 9.23936 17.6228 9.26554 17.6229 9.29196Z" fill="#F6605D"/>
<path d="M33.7923 8.55438C33.7921 8.59434 33.8029 8.63347 33.8234 8.66679C33.8439 8.70011 33.8731 8.72612 33.9073 8.74151C33.9415 8.75691 33.9791 8.761 34.0155 8.75326C34.0518 8.74551 34.0853 8.72629 34.1115 8.69804C34.1377 8.66978 34.1555 8.63376 34.1627 8.59455C34.1699 8.55535 34.1661 8.51473 34.1518 8.47785C34.1375 8.44097 34.1134 8.40951 34.0825 8.38744C34.0516 8.36538 34.0153 8.35372 33.9782 8.35395C33.929 8.35424 33.8819 8.37546 33.8471 8.41298C33.8123 8.4505 33.7926 8.50131 33.7923 8.55438Z" fill="#F6605D"/>
<path d="M29.0725 5.34118C29.0723 5.38109 29.0831 5.42018 29.1035 5.45347C29.1239 5.48677 29.153 5.51278 29.1871 5.52821C29.2213 5.54364 29.2589 5.54779 29.2952 5.54014C29.3316 5.5325 29.365 5.51339 29.3912 5.48524C29.4175 5.4571 29.4354 5.42119 29.4427 5.38206C29.45 5.34293 29.4463 5.30234 29.4322 5.26544C29.4181 5.22854 29.3941 5.197 29.3634 5.1748C29.3326 5.1526 29.2964 5.14075 29.2594 5.14075C29.21 5.14075 29.1626 5.16183 29.1276 5.19938C29.0926 5.23694 29.0728 5.28792 29.0725 5.34118Z" fill="#F6605D"/>
<path d="M26.1044 7.04253C26.1042 7.08245 26.115 7.12153 26.1354 7.15483C26.1558 7.18812 26.1849 7.21413 26.2191 7.22956C26.2532 7.24499 26.2908 7.24915 26.3272 7.2415C26.3635 7.23385 26.3969 7.21474 26.4231 7.1866C26.4494 7.15845 26.4673 7.12254 26.4746 7.08341C26.4819 7.04428 26.4783 7.00369 26.4641 6.9668C26.45 6.9299 26.4261 6.89835 26.3953 6.87615C26.3645 6.85395 26.3284 6.8421 26.2913 6.8421C26.2419 6.8421 26.1945 6.86318 26.1595 6.90074C26.1245 6.93829 26.1047 6.98927 26.1044 7.04253Z" fill="#F6605D"/>
<path d="M31.3083 35.9794C31.3081 36.0194 31.3189 36.0585 31.3394 36.0918C31.3598 36.1252 31.389 36.1512 31.4232 36.1666C31.4574 36.182 31.4951 36.186 31.5315 36.1783C31.5678 36.1706 31.6012 36.1513 31.6274 36.1231C31.6536 36.0948 31.6715 36.0588 31.6786 36.0196C31.6858 35.9804 31.682 35.9398 31.6678 35.9029C31.6535 35.866 31.6293 35.8346 31.5984 35.8125C31.5675 35.7904 31.5313 35.7788 31.4942 35.779C31.4449 35.779 31.3976 35.8001 31.3627 35.8377C31.3279 35.8753 31.3083 35.9263 31.3083 35.9794Z" fill="#F6605D"/>
<path d="M10.3282 4.7553C10.328 4.79522 10.3387 4.8343 10.3592 4.86759C10.3796 4.90089 10.4087 4.9269 10.4428 4.94233C10.477 4.95776 10.5146 4.96191 10.5509 4.95427C10.5873 4.94662 10.6207 4.92751 10.6469 4.89936C10.6732 4.87122 10.6911 4.83531 10.6984 4.79618C10.7057 4.75705 10.702 4.71646 10.6879 4.67956C10.6738 4.64267 10.6498 4.61112 10.6191 4.58892C10.5883 4.56672 10.5521 4.55487 10.5151 4.55487C10.4657 4.55487 10.4183 4.57595 10.3833 4.61351C10.3483 4.65106 10.3284 4.70204 10.3282 4.7553Z" fill="#F6605D"/>
<path d="M13.0901 7.73858C13.0901 7.77822 13.101 7.81697 13.1214 7.84993C13.1418 7.88289 13.1708 7.90858 13.2048 7.92375C13.2388 7.93892 13.2762 7.94289 13.3122 7.93516C13.3483 7.92743 13.3814 7.90834 13.4074 7.8803C13.4334 7.85227 13.4511 7.81656 13.4583 7.77768C13.4654 7.7388 13.4618 7.6985 13.4477 7.66188C13.4336 7.62525 13.4098 7.59395 13.3792 7.57193C13.3487 7.5499 13.3127 7.53815 13.276 7.53815C13.2267 7.53815 13.1794 7.55926 13.1445 7.59685C13.1096 7.63444 13.0901 7.68542 13.0901 7.73858Z" fill="#F6605D"/>
<path opacity="0.19" d="M6.62396 38.8044C6.62396 39.0603 7.67419 39.2686 8.97542 39.2686C10.2767 39.2686 11.3258 39.0603 11.3258 38.8044C11.3258 38.5484 10.2756 38.3401 8.97542 38.3401C7.67524 38.3401 6.62396 38.5484 6.62396 38.8044Z" fill="black"/>
<path opacity="0.19" d="M17.3538 41.4823C17.3538 41.7383 18.404 41.9466 19.7042 41.9466C21.0043 41.9466 22.0546 41.7383 22.0546 41.4823C22.0546 41.2264 21.0043 41.0181 19.7031 41.0181C18.4019 41.0181 17.3538 41.2264 17.3538 41.4823Z" fill="black"/>
<path opacity="0.19" d="M22.4206 41.5907C22.4206 41.8467 23.4708 42.055 24.772 42.055C26.0733 42.055 27.1235 41.8467 27.1235 41.5907C27.1235 41.3348 26.0733 41.1265 24.772 41.1265C23.4708 41.1265 22.4206 41.3326 22.4206 41.5907Z" fill="black"/>
<path d="M33.3574 29.8326C33.1462 30.0673 32.9033 30.2662 32.637 30.4226C32.2169 30.6627 32.2893 31.5471 32.4133 32.0827C32.5372 32.6183 33.0844 32.6715 33.7544 32.6489C34.4245 32.6262 36.9051 32.3273 37.53 32.7825C38.1549 33.2377 32.7367 35.0858 32.7367 35.0858L29.2836 34.198C29.2836 34.198 31.1467 33.77 31.4198 32.9127C31.6928 32.0555 31.6687 31.6535 31.4943 31.3059C31.32 30.9582 30.7991 30.6627 30.3023 30.6627C29.8056 30.6627 33.3574 29.8326 33.3574 29.8326Z" fill="#914004"/>
<path d="M9.80279 34.9478C9.80279 34.9478 9.42156 34.6987 9.28923 34.6806C9.15691 34.6625 8.94161 35.0554 8.94161 35.0554C8.90458 34.9308 8.85455 34.8111 8.79248 34.6987C8.69376 34.5198 8.32933 34.9841 8.32933 34.9841C8.32933 34.9841 8.29572 34.6444 8.24636 34.6274C8.197 34.6104 7.78216 35.0554 7.78216 35.0554L8.1802 35.6091C8.1802 35.6091 9.45517 35.7156 9.52133 35.6624C9.5875 35.6091 9.80279 34.9478 9.80279 34.9478Z" fill="#343057"/>
<path d="M9.68929 34.7712C9.68929 34.7712 11.8402 35.1109 11.2342 37.3168C10.6282 39.5227 7.55838 39.2079 6.80641 38.2623C6.05445 37.3168 5.6165 35.6726 7.91335 34.8391C7.97962 34.8866 8.03484 34.9499 8.07472 35.0242C8.11461 35.0984 8.1381 35.1816 8.14335 35.2672C8.25783 35.1212 8.40144 35.0051 8.56345 34.9274C8.70343 35.041 8.81763 35.1874 8.89742 35.3555C8.89742 35.3555 8.8344 35.1075 9.23139 34.9025C9.23139 34.9025 9.52441 35.0158 9.60738 35.2423L9.68929 34.7712Z" fill="#605A8F"/>
<path opacity="0.45" d="M7.41889 37.2871C8.02592 38.8203 9.85017 38.6743 10.766 38.193C9.69474 39.399 7.43674 39.0502 6.80661 38.2576C6.07145 37.3267 5.63245 35.721 7.80853 34.8751L7.81588 34.908L7.91355 34.8344C7.91355 34.8344 6.78876 35.6984 7.41889 37.2871Z" fill="#343057"/>
<path opacity="0.16" d="M10.8288 36.2364C10.8288 36.2364 10.7049 35.754 10.3572 35.5932C10.2749 35.55 10.1838 35.5295 10.0923 35.5336C10.0007 35.5377 9.91154 35.5662 9.83273 35.6166C9.75392 35.667 9.68795 35.7377 9.64074 35.8223C9.59353 35.907 9.56655 36.003 9.56222 36.1017C9.51286 36.5841 9.61264 37.0393 9.96026 37.3881C10.3079 37.7368 11.1523 37.3315 10.8288 36.2364Z" fill="#E0E6FF"/>
<path opacity="0.19" d="M25.1361 6.34623C24.2307 6.34623 23.4967 6.19059 23.4967 5.99859C23.4967 5.80659 24.2307 5.65094 25.1361 5.65094C26.0415 5.65094 26.7755 5.80659 26.7755 5.99859C26.7755 6.19059 26.0415 6.34623 25.1361 6.34623Z" fill="black"/>
<path opacity="0.19" d="M12.8129 5.30202C12.8129 5.49452 13.5481 5.64966 14.4523 5.64966C15.3565 5.64966 16.0917 5.49452 16.0917 5.30202C16.0917 5.10952 15.3565 4.95325 14.4523 4.95325C13.5481 4.95325 12.8129 5.10952 12.8129 5.30202Z" fill="black"/>
<path opacity="0.19" d="M20.6402 10.0406C19.5289 10.0406 18.628 9.84895 18.628 9.61255C18.628 9.37615 19.5289 9.18451 20.6402 9.18451C21.7515 9.18451 22.6524 9.37615 22.6524 9.61255C22.6524 9.84895 21.7515 10.0406 20.6402 10.0406Z" fill="black"/>
<path opacity="0.19" d="M32.9603 5.16706C31.849 5.16706 30.9481 4.97542 30.9481 4.73902C30.9481 4.50262 31.849 4.31097 32.9603 4.31097C34.0717 4.31097 34.9726 4.50262 34.9726 4.73902C34.9726 4.97542 34.0717 5.16706 32.9603 5.16706Z" fill="black"/>
<path opacity="0.19" d="M18.9768 5.1131C18.1265 5.1131 17.4372 5.04111 17.4372 4.9523C17.4372 4.8635 18.1265 4.7915 18.9768 4.7915C19.8272 4.7915 20.5165 4.8635 20.5165 4.9523C20.5165 5.04111 19.8272 5.1131 18.9768 5.1131Z" fill="black"/>
<path d="M25.7305 1.66819C25.7305 1.66819 26.0855 1.62402 26.1684 1.62402C26.2514 1.62402 26.202 2.11435 26.202 2.11435C26.3575 2.08026 26.5151 2.05943 26.6736 2.05207C26.7397 2.07018 26.765 2.58769 26.765 2.58769C26.9402 2.54032 27.0969 2.43402 27.2124 2.28421C27.2143 2.51122 27.203 2.73813 27.1787 2.96364C27.1462 3.1335 26.516 3.19578 26.4751 3.16068C26.4341 3.12557 25.4249 2.25476 25.4249 2.23212C25.4249 2.20947 25.7305 1.66819 25.7305 1.66819Z" fill="#343057"/>
<path d="M27.2143 2.2839C27.2143 2.2839 27.1891 2.6859 27.562 3.35514C27.9348 4.02438 27.8602 5.17602 26.9906 5.81922C26.121 6.46241 24.3325 6.16686 23.4136 5.06958C22.4946 3.97229 22.8884 2.41752 23.6866 1.8819C24.4848 1.34628 25.4258 1.74828 25.7734 1.50708C25.8209 1.65736 25.8516 1.81322 25.8648 1.97136C25.8648 2.14122 26.1295 1.99854 26.3363 1.99854C26.3885 2.16717 26.4271 2.3403 26.4519 2.51604C26.4603 2.67684 26.8079 2.4447 26.9077 2.42658C27.0074 2.40846 26.9245 2.56133 27.0316 2.77536C27.1387 2.98938 27.2143 2.2839 27.2143 2.2839Z" fill="#605A8F"/>
<path opacity="0.45" d="M23.6867 1.88234C24.217 1.52564 24.8125 1.58452 25.2547 1.59245L25.2851 1.6151C23.1489 1.88234 23.3947 5.11418 25.45 5.63168C26.7596 5.9612 27.3551 5.38255 27.6208 5.00773C27.4853 5.33656 27.267 5.61783 26.9907 5.81966C26.1211 6.46285 24.3326 6.1673 23.4136 5.07001C22.4947 3.97273 22.8948 2.41796 23.6867 1.88234Z" fill="#343057"/>
<path d="M20.5656 0.936269C20.5656 0.936269 20.1854 0.686011 20.0531 0.667893C19.9208 0.649775 19.7044 1.04271 19.7044 1.04271C19.6673 0.91834 19.6176 0.798725 19.5563 0.686011C19.4513 0.507094 19.0921 0.971373 19.0921 0.971373C19.0921 0.971373 19.0596 0.631657 19.0092 0.614671C18.9587 0.597685 18.546 1.04271 18.546 1.04271L18.943 1.59645C18.943 1.59645 20.218 1.70969 20.2841 1.64967C20.3503 1.58966 20.5656 0.936269 20.5656 0.936269Z" fill="#343057"/>
<path d="M20.4521 0.75946C20.4521 0.75946 22.604 1.09918 21.998 3.30394C21.392 5.5087 18.3222 5.19616 17.5703 4.24949C16.8183 3.30281 16.3835 1.65971 18.6772 0.827404C18.7428 0.875089 18.7974 0.938379 18.8367 1.0124C18.876 1.08641 18.8991 1.16918 18.904 1.25431C19.0191 1.10906 19.1626 0.993053 19.3241 0.914598C19.4641 1.02813 19.5783 1.17451 19.6581 1.34264C19.6581 1.34264 19.5961 1.09465 19.9931 0.889685C19.9931 0.889685 20.2851 1.00292 20.3691 1.2294L20.4521 0.75946Z" fill="#605A8F"/>
<path opacity="0.45" d="M18.1817 3.27438C18.7888 4.80763 20.6141 4.66155 21.5299 4.18935C20.4576 5.39534 18.2006 5.04657 17.5705 4.25389C16.8301 3.32307 16.3953 1.71734 18.5714 0.87258L18.5787 0.90542L18.6774 0.832947C18.6774 0.832947 17.5526 1.68564 18.1817 3.27438Z" fill="#343057"/>
<path d="M32.613 24.7975C32.4349 24.7975 32.2906 24.6419 32.2906 24.4499C32.2906 24.2579 32.4349 24.1022 32.613 24.1022C32.7911 24.1022 32.9354 24.2579 32.9354 24.4499C32.9354 24.6419 32.7911 24.7975 32.613 24.7975Z" fill="#D72F5D"/>
<path d="M30.1289 25.2262C29.9509 25.2262 29.8065 25.0705 29.8065 24.8785C29.8065 24.6865 29.9509 24.5309 30.1289 24.5309C30.307 24.5309 30.4514 24.6865 30.4514 24.8785C30.4514 25.0705 30.307 25.2262 30.1289 25.2262Z" fill="#F6605D"/>
<path d="M36.1888 34.1712C36.0107 34.1712 35.8664 34.0156 35.8664 33.8236C35.8664 33.6316 36.0107 33.476 36.1888 33.476C36.3669 33.476 36.5112 33.6316 36.5112 33.8236C36.5112 34.0156 36.3669 34.1712 36.1888 34.1712Z" fill="#F6605D"/>
<path d="M29.2594 24.7179C29.2591 24.7579 29.27 24.797 29.2904 24.8303C29.3109 24.8636 29.3401 24.8896 29.3743 24.905C29.4085 24.9204 29.4461 24.9245 29.4825 24.9168C29.5189 24.909 29.5523 24.8898 29.5785 24.8615C29.6047 24.8333 29.6225 24.7973 29.6297 24.7581C29.6369 24.7189 29.6331 24.6782 29.6188 24.6414C29.6045 24.6045 29.5804 24.573 29.5495 24.551C29.5186 24.5289 29.4823 24.5172 29.4452 24.5175C29.4208 24.5175 29.3967 24.5226 29.3741 24.5327C29.3516 24.5428 29.3311 24.5576 29.3138 24.5762C29.2965 24.5948 29.2828 24.6169 29.2735 24.6412C29.2642 24.6655 29.2594 24.6916 29.2594 24.7179Z" fill="#F6605D"/>
<path d="M32.3017 34.801C32.3015 34.841 32.3123 34.8801 32.3328 34.9134C32.3533 34.9468 32.3825 34.9728 32.4167 34.9882C32.4509 35.0036 32.4885 35.0077 32.5249 34.9999C32.5613 34.9922 32.5947 34.9729 32.6209 34.9447C32.6471 34.9164 32.6649 34.8804 32.6721 34.8412C32.6793 34.802 32.6755 34.7614 32.6612 34.7245C32.6469 34.6876 32.6228 34.6562 32.5919 34.6341C32.561 34.612 32.5247 34.6004 32.4876 34.6006C32.4384 34.6009 32.3913 34.6221 32.3565 34.6596C32.3217 34.6972 32.302 34.748 32.3017 34.801Z" fill="#F6605D"/>
<path d="M26.3405 29.1231C26.3405 29.1631 26.3514 29.2021 26.372 29.2352C26.3926 29.2684 26.4219 29.2942 26.4561 29.3095C26.4903 29.3247 26.528 29.3286 26.5643 29.3207C26.6005 29.3129 26.6339 29.2936 26.66 29.2653C26.6861 29.237 26.7038 29.2009 26.7109 29.1618C26.718 29.1226 26.7141 29.082 26.6998 29.0452C26.6855 29.0084 26.6614 28.977 26.6305 28.955C26.5996 28.933 26.5634 28.9213 26.5263 28.9216C26.5018 28.9216 26.4776 28.9268 26.455 28.9369C26.4323 28.9471 26.4118 28.9619 26.3945 28.9807C26.3773 28.9994 26.3636 29.0216 26.3543 29.0461C26.345 29.0705 26.3403 29.0967 26.3405 29.1231Z" fill="#F6605D"/>
<path d="M31.2965 28.5746C31.2965 28.6145 31.3075 28.6535 31.3281 28.6866C31.3486 28.7197 31.3778 28.7456 31.4119 28.7608C31.4461 28.7761 31.4837 28.7801 31.52 28.7723C31.5562 28.7645 31.5895 28.7453 31.6157 28.7171C31.6418 28.689 31.6596 28.653 31.6668 28.6139C31.674 28.5748 31.6703 28.5343 31.6562 28.4975C31.642 28.4606 31.6181 28.4292 31.5873 28.407C31.5566 28.3849 31.5205 28.373 31.4835 28.373C31.4339 28.373 31.3864 28.3943 31.3513 28.4321C31.3162 28.4699 31.2965 28.5212 31.2965 28.5746Z" fill="#F6605D"/>
<path opacity="0.16" d="M26.3776 4.47175C26.3776 4.82619 26.6118 5.11381 26.9027 5.11381C27.1936 5.11381 27.4278 4.82619 27.4278 4.47175C27.4278 4.11731 27.1936 3.82855 26.9027 3.82855C26.6118 3.82855 26.3776 4.11618 26.3776 4.47175Z" fill="#E0E6FF"/>
<path opacity="0.16" d="M26.7669 3.37358C26.7667 3.41265 26.7772 3.4509 26.7972 3.48347C26.8172 3.51605 26.8458 3.54148 26.8792 3.55653C26.9126 3.57158 26.9494 3.57558 26.985 3.56801C27.0205 3.56045 27.0532 3.54166 27.0788 3.51403C27.1044 3.48641 27.1219 3.4512 27.1289 3.41287C27.1359 3.37455 27.1322 3.33484 27.1182 3.29879C27.1043 3.26274 27.0807 3.23198 27.0505 3.21041C27.0203 3.18885 26.9848 3.17745 26.9486 3.17768C26.9247 3.17768 26.9011 3.18274 26.879 3.19259C26.857 3.20243 26.837 3.21686 26.8201 3.23506C26.8032 3.25325 26.7898 3.27484 26.7807 3.29861C26.7716 3.32238 26.7669 3.34785 26.7669 3.37358Z" fill="#E0E6FF"/>
<path opacity="0.16" d="M21.8448 2.35487C21.8448 2.35487 21.7398 1.73885 21.4247 1.48066C21.1096 1.22248 20.6139 1.17718 20.6213 1.80113C20.6286 2.42507 20.804 2.76592 20.6885 3.30154C20.573 3.83716 21.1684 3.9889 21.4331 3.72958C21.6977 3.47027 21.9498 3.0694 21.8448 2.35487Z" fill="#E0E6FF"/>
<path d="M15.913 1.36422C15.913 1.36422 15.5654 1.09698 15.4656 1.11396C15.3027 1.16827 15.1624 1.28196 15.0686 1.43556C15.0686 1.43556 14.7872 1.02563 14.6874 1.02563C14.5876 1.02563 14.3566 1.40046 14.3566 1.40046L14.3062 1.11396C14.1697 1.20197 14.0692 1.34233 14.0247 1.5069C13.9585 1.77528 14.3734 2.13198 14.3734 2.13198C14.3734 2.13198 15.2839 2.52492 15.3501 2.48981C15.4163 2.45471 15.913 1.36422 15.913 1.36422Z" fill="#343057"/>
<path d="M15.8457 1.20782C15.8457 1.20782 17.9965 1.54754 17.3905 3.7523C16.7846 5.95706 13.7147 5.64339 12.9628 4.69785C12.2108 3.7523 11.7729 2.10807 14.0729 1.27464C14.138 1.32204 14.1923 1.3848 14.2316 1.45818C14.2709 1.53156 14.2942 1.61362 14.2997 1.69815C14.4142 1.5522 14.5578 1.43606 14.7198 1.35843C14.8594 1.4724 14.9735 1.61867 15.0538 1.78648C15.0538 1.78648 14.9908 1.53848 15.3878 1.33352C15.3878 1.33352 15.6808 1.44676 15.7637 1.67324L15.8457 1.20782Z" fill="#605A8F"/>
<path opacity="0.45" d="M12.8883 1.96301C12.6699 2.76814 12.9702 4.15192 14.3313 4.71132C15.4446 5.16427 16.6061 4.72151 16.9989 4.54033C15.9623 5.85616 13.6088 5.50965 12.9629 4.69773C12.3842 3.97074 11.9935 2.83042 12.8883 1.96301Z" fill="#343057"/>
<path opacity="0.16" d="M16.8489 1.97517C16.7145 1.87651 16.5507 1.83608 16.3899 1.86193C16.1536 1.91742 15.9383 2.20845 16.1704 2.60025C16.4025 2.99206 16.769 3.67829 17.0768 3.42803C17.3845 3.17777 17.3603 2.91053 17.2206 2.50626C17.1369 2.30037 17.0095 2.11849 16.8489 1.97517Z" fill="#E0E6FF"/>
<path d="M17.0136 3.98968C17.0136 3.98968 18.2801 3.85606 18.8273 4.95335C19.3745 6.05063 19.1004 7.39024 18.1069 7.92586C17.1133 8.46148 15.7964 8.54188 15.0024 7.47291C14.2084 6.40393 13.9343 4.23088 17.0136 3.98968Z" fill="#605A8F"/>
<path d="M17.3035 3.99793C17.3035 3.99793 16.9979 4.22441 16.9559 4.43503C16.9559 4.43503 16.6996 4.26517 16.5085 4.30141C16.3173 4.33765 16.2197 4.65811 16.2197 4.65811C16.2197 4.65811 15.8962 4.3184 15.7471 4.43164C15.5979 4.54487 15.4908 4.74418 15.515 4.73512C15.5391 4.72606 15.4824 4.41352 15.3585 4.44975C15.3585 4.44975 15.4635 3.98547 15.6557 4.01265C15.7776 4.03283 15.8922 4.08798 15.9876 4.17232C16.0127 4.03863 16.078 3.91762 16.1735 3.82807C16.3142 3.71483 16.6124 4.03303 16.6124 4.03303C16.6744 3.91094 16.7659 3.8092 16.8771 3.73861C17.0388 3.64915 17.3035 3.99793 17.3035 3.99793Z" fill="#343057"/>
<path opacity="0.45" d="M14.7264 5.04242C14.7033 5.20888 14.5542 6.55982 15.8586 7.32758C17.2575 8.1497 18.6942 6.91766 18.8633 6.60512C18.8839 6.56661 18.9154 6.5362 18.9532 6.51828C18.9909 6.50037 19.033 6.49588 19.0733 6.50547C18.942 7.11356 18.6112 7.65258 18.1039 7.92548C17.1104 8.4611 15.7934 8.5415 14.9995 7.47253C14.5321 6.83726 14.2444 5.81924 14.7264 5.04242Z" fill="#343057"/>
<path d="M21.2809 5.25638C21.2809 5.25638 22.9098 5.16692 23.4528 6.60732C23.9958 8.04772 23.4108 9.76103 21.093 9.78368C18.7751 9.80632 18.3792 8.25155 18.4191 7.28336C18.459 6.31517 19.275 5.16692 21.2809 5.25638Z" fill="#605A8F"/>
<path d="M21.6755 6.11446C21.6755 6.11446 21.6912 5.63206 21.4759 5.77474C21.3661 5.84165 21.2659 5.92559 21.1787 6.02387C21.1787 6.02387 21.0958 5.80985 20.9687 5.77474C20.8416 5.73964 20.7943 6.20278 20.7943 6.20278C20.7943 6.20278 20.4635 6.00688 20.3469 6.11333C20.2304 6.21977 20.4961 6.45304 20.4961 6.45304C20.4961 6.45304 20.3144 6.5425 20.4635 6.66706C20.6126 6.79163 20.4961 7.09511 20.8279 7.09511C20.8694 7.09878 20.9111 7.09234 20.9499 7.07627C20.9888 7.06021 21.0238 7.03492 21.0523 7.0023C21.0808 6.96967 21.1022 6.93054 21.1148 6.8878C21.1274 6.84506 21.131 6.7998 21.1252 6.75539C21.1252 6.75539 21.3741 7.05887 21.54 6.93318C21.7059 6.80748 21.6555 6.55835 21.6555 6.55835C21.7191 6.55679 21.7812 6.53803 21.8363 6.5038C21.8913 6.46957 21.9375 6.42096 21.9706 6.36245C22.0725 6.16655 21.6755 6.11446 21.6755 6.11446Z" fill="#343057"/>
<path opacity="0.45" d="M18.4189 7.28335C18.4255 7.13933 18.4484 6.99672 18.4872 6.8587C18.462 7.56758 18.7497 8.897 20.5162 9.30919C22.2365 9.71685 23.2689 8.72941 23.4379 8.55162C23.1082 9.2537 22.3604 9.77121 21.0928 9.78366C18.7739 9.80518 18.379 8.25154 18.4189 7.28335Z" fill="#343057"/>
<path opacity="0.16" d="M23.2479 7.03296C23.1805 6.82243 23.0416 6.64724 22.8593 6.54263C22.5778 6.40788 22.1556 6.53357 22.1241 7.12242C22.0926 7.71126 21.9918 8.70776 22.4802 8.7021C22.9685 8.69644 23.1303 8.39975 23.2668 7.87206C23.3212 7.59459 23.3148 7.30724 23.2479 7.03296Z" fill="#E0E6FF"/>
<path opacity="0.19" d="M14.9028 30.2346C13.8993 30.2346 13.0859 30.0612 13.0859 29.8474C13.0859 29.6335 13.8993 29.4601 14.9028 29.4601C15.9062 29.4601 16.7197 29.6335 16.7197 29.8474C16.7197 30.0612 15.9062 30.2346 14.9028 30.2346Z" fill="black"/>
<path d="M14.8523 25.8644C14.8523 25.8644 16.3226 25.7829 16.8141 27.0852C17.3056 28.3874 16.7763 29.932 14.6832 29.9524C12.5901 29.9728 12.2309 28.5697 12.2677 27.6955C12.3044 26.8213 13.0417 25.7829 14.8523 25.8644Z" fill="#605A8F"/>
<path d="M15.2095 26.6396C15.2095 26.6396 15.2242 26.2036 15.0299 26.3327C14.9304 26.3935 14.8398 26.4699 14.761 26.5592C14.761 26.5592 14.6854 26.3656 14.5668 26.3327C14.4481 26.2999 14.4166 26.72 14.4166 26.72C14.4166 26.72 14.1173 26.5422 14.0133 26.6396C13.9093 26.737 14.1477 26.9454 14.1477 26.9454C14.1477 26.9454 13.9828 27.0258 14.1173 27.139C14.2517 27.2522 14.1477 27.5263 14.447 27.5263C14.4844 27.5293 14.522 27.5233 14.557 27.5087C14.592 27.4941 14.6235 27.4713 14.6493 27.4419C14.675 27.4125 14.6944 27.3773 14.7059 27.3388C14.7174 27.3003 14.7208 27.2595 14.7159 27.2194C14.7159 27.2194 14.9396 27.4934 15.0898 27.3813C15.1339 27.3401 15.167 27.2868 15.1855 27.227C15.204 27.1672 15.2072 27.1032 15.1948 27.0416C15.2521 27.04 15.3081 27.0229 15.3577 26.9919C15.4072 26.9608 15.4487 26.9168 15.4784 26.8638C15.5687 26.6872 15.2095 26.6396 15.2095 26.6396Z" fill="#343057"/>
<path opacity="0.45" d="M12.2686 27.696C12.2742 27.5655 12.2947 27.4362 12.3295 27.311C12.3075 27.952 12.5669 29.1478 14.1622 29.526C15.7154 29.8929 16.648 29.0017 16.8014 28.8409C16.5031 29.475 15.8268 29.9416 14.6831 29.9529C12.5889 29.9733 12.2308 28.5703 12.2686 27.696Z" fill="#343057"/>
<path opacity="0.16" d="M16.6295 27.4694C16.5692 27.2787 16.4438 27.12 16.2788 27.0255C16.0246 26.9054 15.6434 27.0175 15.6129 27.5498C15.5825 28.082 15.4932 28.9856 15.9343 28.9766C16.3754 28.9675 16.5214 28.7037 16.6453 28.2269C16.6946 27.9765 16.6892 27.7172 16.6295 27.4694Z" fill="#E0E6FF"/>
<path opacity="0.16" d="M17.7963 5.68416C17.9255 6.01028 18.2458 6.17561 18.5105 6.05331C18.7751 5.93102 18.8843 5.56752 18.7552 5.24139C18.626 4.91527 18.3057 4.7488 18.041 4.8711C17.7763 4.9934 17.6671 5.3569 17.7963 5.68416Z" fill="#E0E6FF"/>
<path opacity="0.16" d="M17.604 4.61646C17.6182 4.65234 17.642 4.68287 17.6723 4.70418C17.7026 4.72549 17.7381 4.73662 17.7743 4.73616C17.8104 4.7357 17.8457 4.72367 17.8755 4.7016C17.9053 4.67953 17.9284 4.64841 17.9418 4.61218C17.9552 4.57595 17.9584 4.53624 17.9508 4.49809C17.9433 4.45993 17.9254 4.42505 17.8995 4.39786C17.8735 4.37067 17.8407 4.35239 17.8051 4.34534C17.7695 4.3383 17.7328 4.3428 17.6996 4.35828C17.6552 4.37895 17.6203 4.41772 17.6024 4.4661C17.5845 4.51448 17.5851 4.56855 17.604 4.61646Z" fill="#E0E6FF"/>
<path d="M21.7336 38.2157C21.7336 38.2157 21.3355 37.5193 21.137 37.5193C21.0068 37.5236 20.8793 37.56 20.7642 37.6257C20.7642 37.6257 20.6161 37.2554 20.4165 37.2554C20.217 37.2554 19.8452 37.4966 19.8452 37.4966L19.9198 38.5158L21.7336 38.2157Z" fill="#343057"/>
<path d="M21.5981 37.7308C21.5981 37.7308 23.6009 38.6435 22.4971 40.6138C21.3934 42.5842 18.4968 41.4416 17.9917 40.3217C17.4865 39.2017 17.4466 37.4907 19.8653 37.3118C19.9181 37.3759 19.9566 37.4522 19.9777 37.5348C19.9988 37.6175 20.002 37.7043 19.9871 37.7885C20.1314 37.6796 20.2965 37.6069 20.4702 37.5756C20.579 37.7236 20.6551 37.8963 20.6929 38.0807C20.6929 38.0807 20.6928 37.8236 21.1224 37.7409C21.1224 37.7409 21.3787 37.9289 21.407 38.1701L21.5981 37.7308Z" fill="#605A8F"/>
<path opacity="0.16" d="M22.0959 39.3866C22.0959 39.3866 21.9971 39.0038 21.7209 38.8759C21.6555 38.842 21.5833 38.826 21.5108 38.8295C21.4383 38.833 21.3677 38.8557 21.3053 38.8958C21.2429 38.9358 21.1907 38.9918 21.1533 39.0589C21.1158 39.126 21.0944 39.202 21.0908 39.2801C21.0628 39.4648 21.0769 39.6541 21.1318 39.8316C21.1866 40.0091 21.2807 40.1696 21.4059 40.2993C21.681 40.579 22.3521 40.2597 22.0959 39.3866Z" fill="#E0E6FF"/>
<path d="M24.0502 37.5737C24.0502 37.5737 24.3022 37.2997 24.3652 37.2442C24.4283 37.1887 24.6751 37.6054 24.6751 37.6054C24.777 37.474 24.8883 37.3514 25.008 37.2386C25.0699 37.208 25.3892 37.5953 25.3892 37.5953C25.4991 37.4407 25.5599 37.2521 25.5625 37.0574C25.6954 37.2331 25.8178 37.4176 25.929 37.61C26.0015 37.7651 25.5468 38.2373 25.4932 38.2373C25.4396 38.2373 24.15 38.2373 24.1342 38.2203C24.1184 38.2033 24.0502 37.5737 24.0502 37.5737Z" fill="#343057"/>
<path d="M25.5625 37.0574C25.5625 37.0574 25.7725 37.388 26.4541 37.6598C27.1357 37.9316 27.7417 38.8817 27.435 39.9699C27.1284 41.0581 25.5604 42.0308 24.2066 41.7919C22.8529 41.553 22.2648 40.0718 22.5746 39.1183C22.8844 38.1649 23.8559 37.8433 23.9871 37.4197C24.1112 37.5053 24.2254 37.6064 24.3274 37.721C24.4261 37.8534 24.5501 37.5635 24.7118 37.4243C24.8503 37.5205 24.9806 37.6296 25.1014 37.7504C25.2064 37.8704 25.3388 37.4548 25.406 37.3744C25.4732 37.294 25.4963 37.4673 25.7043 37.5624C25.9122 37.6575 25.5625 37.0574 25.5625 37.0574Z" fill="#605A8F"/>
<path opacity="0.16" d="M26.868 38.3793C26.868 38.3793 26.5939 37.992 26.2242 37.9818C26.1351 37.975 26.0459 37.9921 25.9644 38.0317C25.883 38.0712 25.8119 38.1319 25.7576 38.2083C25.7033 38.2847 25.6674 38.3745 25.6531 38.4695C25.6389 38.5646 25.6467 38.662 25.676 38.753C25.7925 39.2059 26.0362 39.583 26.4678 39.7619C26.8995 39.9408 27.5296 39.2478 26.868 38.3793Z" fill="#E0E6FF"/>
<path opacity="0.45" d="M23.795 38.2961C23.4222 38.9382 23.1985 40.1442 24.2151 40.9199C25.1015 41.5993 26.6306 40.9131 27.0077 40.7251C26.3775 41.4578 25.2307 41.9707 24.2046 41.7918C22.8519 41.5529 22.2627 40.0717 22.5726 39.1183C22.8824 38.1648 23.8538 37.8432 23.9851 37.4197C23.9872 37.4208 24.1679 37.6529 23.795 38.2961Z" fill="#343057"/>
<path opacity="0.45" d="M22.0622 41.162C20.7726 42.3261 18.44 41.3161 17.9916 40.3218C17.5158 39.2698 17.4528 37.6992 19.4493 37.3618C18.9536 37.475 18.2047 37.8657 18.3056 39.1532C18.4526 41.0239 20.6665 41.7271 22.0622 41.162Z" fill="#343057"/>
<path d="M33.37 0.891917C33.37 0.891917 35.4011 0.82737 35.7592 2.69468C36.1174 4.56199 34.207 5.66154 31.9963 4.49744C29.7855 3.33335 30.5039 0.37668 33.37 0.891917Z" fill="#605A8F"/>
<path d="M33.5203 1.07454C33.5203 1.07454 33.4006 0.508349 33.5392 0.281871C33.6778 0.0553931 33.4499 -0.00688824 33.3502 0.00330326C33.2504 0.0134948 33.201 0.626117 33.3008 0.851463C33.4006 1.07681 33.4205 1.23534 33.5203 1.07454Z" fill="#343057"/>
<path opacity="0.45" d="M31.4617 1.17596C31.1361 1.70705 31.0248 3.22785 32.4143 4.24021C33.7544 5.21633 35.2625 4.36251 35.4169 4.26965C34.7867 5.04534 33.4571 5.26389 31.9963 4.49613C30.4167 3.66835 30.3338 1.92447 31.4617 1.17596Z" fill="#343057"/>
<path opacity="0.16" d="M35.3319 2.33521C35.3319 2.33521 35.1932 1.94794 34.8939 1.84602C34.8227 1.81762 34.746 1.80873 34.6708 1.82013C34.5956 1.83154 34.5242 1.86288 34.463 1.91137C34.4018 1.95985 34.3527 2.02395 34.3202 2.09793C34.2876 2.1719 34.2725 2.25343 34.2764 2.33521C34.2764 2.73721 34.3888 3.10411 34.6965 3.36116C35.0042 3.61821 35.6816 3.21282 35.3319 2.33521Z" fill="#E0E6FF"/>
<path opacity="0.18" d="M19.2738 29.646C19.2738 29.8227 19.4743 29.9676 19.7211 29.9676C19.968 29.9676 20.1643 29.8227 20.1643 29.646C20.1643 29.4693 19.9638 29.3244 19.7169 29.3244C19.4701 29.3244 19.2738 29.4682 19.2738 29.646Z" fill="#CC562A"/>
<path opacity="0.18" d="M36.8597 27.2354C36.6126 27.2354 36.4123 27.0914 36.4123 26.9138C36.4123 26.7361 36.6126 26.5922 36.8597 26.5922C37.1068 26.5922 37.3071 26.7361 37.3071 26.9138C37.3071 27.0914 37.1068 27.2354 36.8597 27.2354Z" fill="#CC562A"/>
<path opacity="0.34" d="M23.6459 36.6622C23.6459 36.84 23.8465 36.9838 24.0933 36.9838C24.3401 36.9838 24.5397 36.84 24.5397 36.6622C24.5397 36.4845 24.3401 36.3406 24.0933 36.3406C23.8465 36.3406 23.6459 36.4845 23.6459 36.6622Z" fill="#CC562A"/>
<path opacity="0.28" d="M11.1777 28.7349C10.9306 28.7349 10.7303 28.5909 10.7303 28.4133C10.7303 28.2357 10.9306 28.0917 11.1777 28.0917C11.4248 28.0917 11.6251 28.2357 11.6251 28.4133C11.6251 28.5909 11.4248 28.7349 11.1777 28.7349Z" fill="#CC562A"/>
<path opacity="0.38" d="M20.9638 23.214C20.9638 23.3906 21.1633 23.5356 21.4101 23.5356C21.6569 23.5356 21.8575 23.3906 21.8575 23.214C21.8575 23.0373 21.658 22.8924 21.4101 22.8924C21.1623 22.8924 20.9638 23.0407 20.9638 23.214Z" fill="#CC562A"/>
<path opacity="0.38" d="M23.4967 14.5946C23.4967 14.7724 23.6973 14.9162 23.9441 14.9162C24.1909 14.9162 24.3905 14.7724 24.3905 14.5946C24.3905 14.4168 24.1909 14.2741 23.9441 14.2741C23.6973 14.2741 23.4967 14.4179 23.4967 14.5946Z" fill="#CC562A"/>
<path opacity="0.38" d="M11.8223 13.6308C11.8223 13.8086 12.0229 13.9524 12.2697 13.9524C12.5165 13.9524 12.7171 13.8086 12.7171 13.6308C12.7171 13.453 12.5165 13.3092 12.2697 13.3092C12.0229 13.3092 11.8223 13.453 11.8223 13.6308Z" fill="#CC562A"/>
<path opacity="0.21" d="M36.4121 7.41718C36.1651 7.41718 35.9647 7.2732 35.9647 7.09558C35.9647 6.91797 36.1651 6.77399 36.4121 6.77399C36.6592 6.77399 36.8595 6.91797 36.8595 7.09558C36.8595 7.2732 36.6592 7.41718 36.4121 7.41718Z" fill="#CC562A"/>
<path opacity="0.21" d="M12.3193 9.45276C12.3193 9.62941 12.5198 9.77323 12.7666 9.77323C13.0134 9.77323 13.214 9.62941 13.214 9.45276C13.214 9.27611 13.0134 9.13116 12.7666 9.13116C12.5198 9.13116 12.3193 9.27498 12.3193 9.45276Z" fill="#CC562A"/>
<path opacity="0.41" d="M7.84821 8.70194C7.84821 8.87973 8.0488 9.02354 8.2956 9.02354C8.54241 9.02354 8.743 8.87973 8.743 8.70194C8.743 8.52416 8.54241 8.37921 8.29665 8.37921C8.0509 8.37921 7.84821 8.52529 7.84821 8.70194Z" fill="#CC562A"/>
<path opacity="0.21" d="M31.717 6.26527C31.717 6.36945 31.8335 6.45325 31.9785 6.45325C32.1234 6.45325 32.2421 6.36945 32.2421 6.26527C32.2421 6.16109 32.1255 6.07843 31.9816 6.07843C31.8377 6.07843 31.717 6.16223 31.717 6.26527Z" fill="#CC562A"/>
<path opacity="0.21" d="M28.7007 3.63997C28.7007 3.74415 28.8172 3.82794 28.9611 3.82794C29.105 3.82794 29.2216 3.74415 29.2216 3.63997C29.2216 3.53579 29.105 3.45312 28.9611 3.45312C28.8172 3.45312 28.7007 3.53692 28.7007 3.63997Z" fill="#CC562A"/>
<path opacity="0.21" d="M35.8535 5.32759C35.8535 5.43177 35.9701 5.51556 36.114 5.51556C36.2579 5.51556 36.3755 5.43177 36.3755 5.32759C36.3755 5.22341 36.2579 5.14075 36.114 5.14075C35.9701 5.14075 35.8535 5.22454 35.8535 5.32759Z" fill="#CC562A"/>
<path opacity="0.21" d="M33.9162 5.81007C33.9162 5.91425 34.0327 5.99805 34.1777 5.99805C34.3226 5.99805 34.4381 5.91425 34.4381 5.81007C34.4381 5.70589 34.3216 5.62323 34.1777 5.62323C34.0338 5.62323 33.9162 5.70703 33.9162 5.81007Z" fill="#CC562A"/>
<path opacity="0.21" d="M27.8059 3.02574C27.8059 3.12879 27.9224 3.21259 28.0674 3.21259C28.2123 3.21259 28.3278 3.12879 28.3278 3.02574C28.3278 2.9227 28.2113 2.83777 28.0674 2.83777C27.9235 2.83777 27.8059 2.92157 27.8059 3.02574Z" fill="#CC562A"/>
<path opacity="0.38" d="M25.6332 17.0054C25.3861 17.0054 25.1858 16.8614 25.1858 16.6838C25.1858 16.5062 25.3861 16.3622 25.6332 16.3622C25.8803 16.3622 26.0806 16.5062 26.0806 16.6838C26.0806 16.8614 25.8803 17.0054 25.6332 17.0054Z" fill="#CC562A"/>
<path opacity="0.38" d="M9.78591 17.8622C9.78591 18.0388 9.9865 18.1827 10.2333 18.1827C10.4801 18.1827 10.6807 18.0388 10.6807 17.8622C10.6807 17.6855 10.4801 17.5406 10.2333 17.5406C9.9865 17.5406 9.78591 17.6844 9.78591 17.8622Z" fill="#CC562A"/>
<path opacity="0.38" d="M21.6095 36.9312C21.6095 37.1079 21.809 37.2517 22.0558 37.2517C22.3026 37.2517 22.5032 37.1079 22.5032 36.9312C22.5032 36.7546 22.3026 36.6096 22.0558 36.6096C21.809 36.6096 21.6095 36.7534 21.6095 36.9312Z" fill="#CC562A"/>
<path opacity="0.16" d="M19.0755 31.7887C19.0755 31.9654 19.2761 32.1103 19.5229 32.1103C19.7697 32.1103 19.9703 31.9654 19.9703 31.7887C19.9703 31.612 19.7697 31.4671 19.5229 31.4671C19.2761 31.4671 19.0755 31.6109 19.0755 31.7887Z" fill="#CC562A"/>
<path opacity="0.38" d="M11.8729 21.7182C11.6258 21.7182 11.4255 21.5742 11.4255 21.3966C11.4255 21.219 11.6258 21.075 11.8729 21.075C12.12 21.075 12.3203 21.219 12.3203 21.3966C12.3203 21.5742 12.12 21.7182 11.8729 21.7182Z" fill="#CC562A"/>
<path opacity="0.38" d="M12.2697 17.9682C12.2697 18.0577 12.3695 18.129 12.4934 18.129C12.6173 18.129 12.7171 18.0577 12.7171 17.9682C12.7171 17.8788 12.6173 17.8074 12.4934 17.8074C12.3695 17.8074 12.2697 17.8799 12.2697 17.9682Z" fill="#CC562A"/>
<path opacity="0.38" d="M20.6655 36.6091C20.5419 36.6091 20.4418 36.5371 20.4418 36.4483C20.4418 36.3595 20.5419 36.2875 20.6655 36.2875C20.789 36.2875 20.8892 36.3595 20.8892 36.4483C20.8892 36.5371 20.789 36.6091 20.6655 36.6091Z" fill="#CC562A"/>
<path opacity="0.38" d="M23.9683 16.2008C23.9683 16.2903 24.0733 16.3616 24.192 16.3616C24.3106 16.3616 24.4156 16.2903 24.4156 16.2008C24.4156 16.1114 24.3159 16.04 24.192 16.04C24.068 16.04 23.9683 16.1125 23.9683 16.2008Z" fill="#CC562A"/>
<path opacity="0.38" d="M13.2635 22.3081C13.14 22.3081 13.0398 22.2361 13.0398 22.1473C13.0398 22.0584 13.14 21.9865 13.2635 21.9865C13.3871 21.9865 13.4872 22.0584 13.4872 22.1473C13.4872 22.2361 13.3871 22.3081 13.2635 22.3081Z" fill="#CC562A"/>
<path opacity="0.38" d="M14.2568 22.1477C14.1333 22.1477 14.0331 22.0757 14.0331 21.9869C14.0331 21.8981 14.1333 21.8261 14.2568 21.8261C14.3804 21.8261 14.4805 21.8981 14.4805 21.9869C14.4805 22.0757 14.3804 22.1477 14.2568 22.1477Z" fill="#CC562A"/>
<path opacity="0.18" d="M20.6655 30.824C20.5419 30.824 20.4418 30.752 20.4418 30.6632C20.4418 30.5744 20.5419 30.5024 20.6655 30.5024C20.789 30.5024 20.8892 30.5744 20.8892 30.6632C20.8892 30.752 20.789 30.824 20.6655 30.824Z" fill="#CC562A"/>
<path opacity="0.18" d="M29.4579 31.8411C29.3344 31.8411 29.2342 31.7691 29.2342 31.6803C29.2342 31.5915 29.3344 31.5195 29.4579 31.5195C29.5814 31.5195 29.6816 31.5915 29.6816 31.6803C29.6816 31.7691 29.5814 31.8411 29.4579 31.8411Z" fill="#CC562A"/>
<path opacity="0.18" d="M35.0221 29.3244C34.8985 29.3244 34.7984 29.2524 34.7984 29.1636C34.7984 29.0748 34.8985 29.0028 35.0221 29.0028C35.1456 29.0028 35.2458 29.0748 35.2458 29.1636C35.2458 29.2524 35.1456 29.3244 35.0221 29.3244Z" fill="#CC562A"/>
<path opacity="0.18" d="M26.9246 37.0372C26.801 37.0372 26.7009 36.9652 26.7009 36.8764C26.7009 36.7876 26.801 36.7156 26.9246 36.7156C27.0481 36.7156 27.1483 36.7876 27.1483 36.8764C27.1483 36.9652 27.0481 37.0372 26.9246 37.0372Z" fill="#CC562A"/>
<path opacity="0.18" d="M24.1172 28.5746C24.1172 28.6629 24.2222 28.7354 24.3409 28.7354C24.4596 28.7354 24.5646 28.6629 24.5646 28.5746C24.5646 28.4862 24.4596 28.4138 24.3409 28.4138C24.2222 28.4138 24.1172 28.4851 24.1172 28.5746Z" fill="#CC562A"/>
<path opacity="0.18" d="M34.7239 27.6638C34.6004 27.6638 34.5002 27.5918 34.5002 27.503C34.5002 27.4142 34.6004 27.3422 34.7239 27.3422C34.8475 27.3422 34.9476 27.4142 34.9476 27.503C34.9476 27.5918 34.8475 27.6638 34.7239 27.6638Z" fill="#CC562A"/>
<path opacity="0.38" d="M18.9263 22.6834C18.8027 22.6834 18.7026 22.6114 18.7026 22.5226C18.7026 22.4338 18.8027 22.3618 18.9263 22.3618C19.0498 22.3618 19.15 22.4338 19.15 22.5226C19.15 22.6114 19.0498 22.6834 18.9263 22.6834Z" fill="#CC562A"/>
<path opacity="0.38" d="M19.3985 36.554C19.3985 36.6435 19.4982 36.7148 19.6222 36.7148C19.7461 36.7148 19.8448 36.6435 19.8448 36.554C19.8448 36.4646 19.7398 36.3943 19.6222 36.3943C19.5045 36.3943 19.3985 36.4623 19.3985 36.554Z" fill="#CC562A"/>
<path opacity="0.22" d="M35.6918 27.7177C35.6918 27.8061 35.7968 27.8785 35.9155 27.8785C36.0342 27.8785 36.1392 27.8061 36.1392 27.7177C36.1392 27.6294 36.0342 27.5569 35.9155 27.5569C35.7968 27.5569 35.6918 27.6306 35.6918 27.7177Z" fill="#CC562A"/>
<path opacity="0.22" d="M36.8097 31.8943C36.6862 31.8943 36.5861 31.8223 36.5861 31.7335C36.5861 31.6447 36.6862 31.5727 36.8097 31.5727C36.9333 31.5727 37.0334 31.6447 37.0334 31.7335C37.0334 31.8223 36.9333 31.8943 36.8097 31.8943Z" fill="#CC562A"/>
<path opacity="0.18" d="M21.5592 29.5926C21.4356 29.5926 21.3355 29.5206 21.3355 29.4318C21.3355 29.343 21.4356 29.271 21.5592 29.271C21.6827 29.271 21.7829 29.343 21.7829 29.4318C21.7829 29.5206 21.6827 29.5926 21.5592 29.5926Z" fill="#CC562A"/>
<path opacity="0.18" d="M17.0135 31.4133C16.89 31.4133 16.7898 31.3413 16.7898 31.2525C16.7898 31.1637 16.89 31.0917 17.0135 31.0917C17.1371 31.0917 17.2372 31.1637 17.2372 31.2525C17.2372 31.3413 17.1371 31.4133 17.0135 31.4133Z" fill="#CC562A"/>
<path opacity="0.38" d="M19.8701 14.7546C19.7465 14.7546 19.6464 14.6826 19.6464 14.5938C19.6464 14.505 19.7465 14.433 19.8701 14.433C19.9936 14.433 20.0938 14.505 20.0938 14.5938C20.0938 14.6826 19.9936 14.7546 19.8701 14.7546Z" fill="#CC562A"/>
<path opacity="0.38" d="M10.187 13.0418C10.187 13.1302 10.2867 13.2026 10.4096 13.2026C10.5325 13.2026 10.6333 13.1302 10.6333 13.0418C10.6333 12.9535 10.5283 12.881 10.4096 12.881C10.2909 12.881 10.187 12.9524 10.187 13.0418Z" fill="#CC562A"/>
<path opacity="0.38" d="M13.3871 13.6308C13.2636 13.6308 13.1634 13.5588 13.1634 13.47C13.1634 13.3812 13.2636 13.3092 13.3871 13.3092C13.5107 13.3092 13.6108 13.3812 13.6108 13.47C13.6108 13.5588 13.5107 13.6308 13.3871 13.6308Z" fill="#CC562A"/>
<path opacity="0.21" d="M35.2207 6.66687C35.0971 6.66687 34.997 6.59488 34.997 6.50608C34.997 6.41727 35.0971 6.34528 35.2207 6.34528C35.3442 6.34528 35.4444 6.41727 35.4444 6.50608C35.4444 6.59488 35.3442 6.66687 35.2207 6.66687Z" fill="#CC562A"/>
<path opacity="0.21" d="M29.2837 2.97129C29.2837 3.06074 29.3887 3.13209 29.5074 3.13209C29.626 3.13209 29.7311 3.06074 29.7311 2.97129C29.7311 2.88183 29.626 2.81049 29.5074 2.81049C29.3887 2.81049 29.2837 2.88296 29.2837 2.97129Z" fill="#CC562A"/>
<path opacity="0.21" d="M11.4749 8.9704C11.3514 8.9704 11.2512 8.89841 11.2512 8.8096C11.2512 8.7208 11.3514 8.6488 11.4749 8.6488C11.5985 8.6488 11.6986 8.7208 11.6986 8.8096C11.6986 8.89841 11.5985 8.9704 11.4749 8.9704Z" fill="#CC562A"/>
<path opacity="0.38" d="M8.61915 16.3616C8.49561 16.3616 8.39545 16.2896 8.39545 16.2008C8.39545 16.112 8.49561 16.04 8.61915 16.04C8.7427 16.04 8.84286 16.112 8.84286 16.2008C8.84286 16.2896 8.7427 16.3616 8.61915 16.3616Z" fill="#CC562A"/>
<path opacity="0.38" d="M18.355 15.345C18.355 15.4333 18.4601 15.5047 18.5787 15.5047C18.6974 15.5047 18.8024 15.4333 18.8024 15.345C18.8024 15.2567 18.7027 15.1842 18.5787 15.1842C18.4548 15.1842 18.355 15.2555 18.355 15.345Z" fill="#CC562A"/>
<path opacity="0.38" d="M26.2042 15.6657C26.0807 15.6657 25.9805 15.5937 25.9805 15.5049C25.9805 15.4161 26.0807 15.3441 26.2042 15.3441C26.3277 15.3441 26.4279 15.4161 26.4279 15.5049C26.4279 15.5937 26.3277 15.6657 26.2042 15.6657Z" fill="#CC562A"/>
<path opacity="0.21" d="M33.2577 6.93457C33.2577 7.02403 33.3627 7.09537 33.4814 7.09537C33.6 7.09537 33.7051 7.02403 33.7051 6.93457C33.7051 6.84511 33.6 6.7749 33.4814 6.7749C33.3627 6.7749 33.2577 6.84624 33.2577 6.93457Z" fill="#CC562A"/>
</g>
<defs>
<linearGradient id="paint0_linear_7_4698" x1="0.0263393" y1="32.4925" x2="44.3252" y2="35.6744" gradientUnits="userSpaceOnUse">
<stop stop-color="#D72F5D"/>
<stop offset="0.33" stop-color="#D83360"/>
<stop offset="0.64" stop-color="#DA3E68"/>
<stop offset="0.93" stop-color="#DD5077"/>
<stop offset="1" stop-color="#DE567B"/>
</linearGradient>
<linearGradient id="paint1_linear_7_4698" x1="-622.282" y1="4861.94" x2="-17790.4" y2="4861.94" gradientUnits="userSpaceOnUse">
<stop stop-color="#D72F5D"/>
<stop offset="0.33" stop-color="#D83360"/>
<stop offset="0.64" stop-color="#DA3E68"/>
<stop offset="0.93" stop-color="#DD5077"/>
<stop offset="1" stop-color="#DE567B"/>
</linearGradient>
<linearGradient id="paint2_linear_7_4698" x1="38.9258" y1="34.2178" x2="5.65345" y2="34.2178" gradientUnits="userSpaceOnUse">
<stop stop-color="#F0A82C"/>
<stop offset="0.31" stop-color="#EFA42C"/>
<stop offset="0.59" stop-color="#EB992C"/>
<stop offset="0.86" stop-color="#E6872C"/>
<stop offset="1" stop-color="#E27A2C"/>
</linearGradient>
<linearGradient id="paint3_linear_7_4698" x1="-2122.73" y1="2036.37" x2="-8354.23" y2="5954.13" gradientUnits="userSpaceOnUse">
<stop stop-color="#F0A82C"/>
<stop offset="0.31" stop-color="#EFA42C"/>
<stop offset="0.59" stop-color="#EB992C"/>
<stop offset="0.86" stop-color="#E6872C"/>
<stop offset="1" stop-color="#E27A2C"/>
</linearGradient>
<radialGradient id="paint4_radial_7_4698" cx="0" cy="0" r="1" gradientUnits="userSpaceOnUse" gradientTransform="translate(-7418.2 1542.46) rotate(180) scale(3579.4 966.762)">
<stop stop-color="#F0A82C"/>
<stop offset="0.31" stop-color="#EFA42C"/>
<stop offset="0.59" stop-color="#EB992C"/>
<stop offset="0.86" stop-color="#E6872C"/>
<stop offset="1" stop-color="#E27A2C"/>
</radialGradient>
<radialGradient id="paint5_radial_7_4698" cx="0" cy="0" r="1" gradientUnits="userSpaceOnUse" gradientTransform="translate(21.4811 15.9409) rotate(180) scale(12.106 13.053)">
<stop stop-color="#E27A2C"/>
<stop offset="0.28" stop-color="#E4802C"/>
<stop offset="0.66" stop-color="#E9932C"/>
<stop offset="1" stop-color="#F0A82C"/>
</radialGradient>
<radialGradient id="paint6_radial_7_4698" cx="0" cy="0" r="1" gradientUnits="userSpaceOnUse" gradientTransform="translate(-10825.7 84.1369) rotate(180) scale(6548.46 1511.45)">
<stop stop-color="#F0A82C"/>
<stop offset="0.31" stop-color="#EFA42C"/>
<stop offset="0.59" stop-color="#EB992C"/>
<stop offset="0.86" stop-color="#E6872C"/>
<stop offset="1" stop-color="#E27A2C"/>
</radialGradient>
<linearGradient id="paint7_linear_7_4698" x1="-2137.66" y1="513.767" x2="-12557.6" y2="513.767" gradientUnits="userSpaceOnUse">
<stop stop-color="#F0A82C"/>
<stop offset="0.31" stop-color="#EFA42C"/>
<stop offset="0.59" stop-color="#EB992C"/>
<stop offset="0.86" stop-color="#E6872C"/>
<stop offset="1" stop-color="#E27A2C"/>
</linearGradient>
<clipPath id="clip0_7_4698">
<rect width="46" height="45" fill="white" transform="matrix(-1 0 0 1 46 0)"/>
</clipPath>
</defs>
</svg>
