<svg width="40" height="41" viewBox="0 0 40 41" fill="none" xmlns="http://www.w3.org/2000/svg">
<ellipse cx="20" cy="20.5" rx="20" ry="20.5" fill="#F7F8F8"/>
<g clip-path="url(#clip0_7_3704)">
<path fill-rule="evenodd" clip-rule="evenodd" d="M32 24.9026C32 27.1654 26.6303 28.9999 20.0006 28.9999C13.3709 28.9999 8 27.1654 8 24.9026C8 22.6398 13.3697 20.8052 20.0006 20.8052C26.6316 20.8052 32 22.6398 32 24.9026Z" fill="#E2CAB3"/>
<path fill-rule="evenodd" clip-rule="evenodd" d="M32 24.4506C32 26.7134 26.6303 28.548 20.0006 28.548C13.3709 28.548 8 26.7134 8 24.4506C8 22.1878 13.3697 20.3533 20.0006 20.3533C26.6316 20.3533 32 22.1878 32 24.4506Z" fill="white"/>
<path fill-rule="evenodd" clip-rule="evenodd" d="M32 24.3858C32 26.5778 26.6303 28.3545 20.0006 28.3545C13.3709 28.3545 8 26.5778 8 24.3858C8 22.1938 13.3697 20.4182 20.0006 20.4182C26.6316 20.4182 32 22.195 32 24.3858Z" fill="#E7D8C8"/>
<path fill-rule="evenodd" clip-rule="evenodd" d="M31.4681 24.3859C31.4681 25.9503 26.8726 27.2173 21.2045 27.2173C15.5363 27.2173 10.9396 25.9503 10.9396 24.3859C10.9396 22.8215 15.5351 21.5544 21.2045 21.5544C26.8739 21.5544 31.4681 22.8227 31.4681 24.3859Z" fill="#E2CAB3"/>
<path d="M30.6027 24.4873C30.3842 23.5199 29.3202 23.1105 28.4798 23.0456C27.9616 23.0067 27.4433 23.1105 26.9264 23.1377C26.6391 23.1532 26.3509 23.1421 26.066 23.1046C25.7513 23.0633 25.4503 22.956 25.1331 22.9312C24.5824 22.8887 24.0367 23.0692 23.5235 23.258C22.9203 23.481 22.3172 23.6839 21.699 23.8561C20.4797 24.2071 19.2235 24.4314 17.9527 24.5251C17.4358 24.5695 16.9156 24.5667 16.3993 24.5168C16.0371 24.4743 15.68 24.3988 15.3178 24.3587C14.6835 24.2915 13.9804 24.3705 13.7244 25.0748C13.5325 25.0742 13.3432 25.1171 13.1725 25.1999C12.914 25.3049 12.5681 25.4913 12.4345 25.7615C12.156 26.3266 13.0588 26.5484 13.3935 26.6085C13.7119 26.6652 14.0329 26.6852 14.3526 26.7171C14.7971 26.7619 15.1543 26.9613 15.5301 27.2043C16.478 27.8166 17.7429 27.8567 18.8219 27.7859C19.417 27.7438 20.0054 27.6397 20.5764 27.4757C21.1795 27.3058 21.8002 27.4084 22.4096 27.5063C22.933 27.6108 23.4766 27.5798 23.983 27.4167C24.4925 27.2456 24.9346 26.933 25.3704 26.6191C25.8786 26.2534 26.4568 26.231 27.055 26.185C27.6446 26.1504 28.2298 26.0655 28.8033 25.9313C29.2847 25.8164 29.7534 25.6584 30.2031 25.4594C30.5852 25.2695 30.6926 24.9156 30.6027 24.4873Z" fill="#EEBE30"/>
<path d="M27.1959 23.6461C27.1959 25.1704 23.7705 26.5873 19.6459 26.5873C15.5212 26.5873 12.0684 25.0654 12.0684 23.5411C12.0684 22.0169 15.5212 21.0636 19.6459 21.0636C23.7705 21.0636 27.1959 22.1218 27.1959 23.6461Z" fill="#E3AC8A"/>
<path d="M27.1135 23.3522C27.1135 24.8765 23.7706 26.1117 19.6459 26.1117C15.5213 26.1117 12.1771 24.8765 12.1771 23.3522C12.1771 21.828 15.5213 20.5916 19.6459 20.5916C23.7706 20.5916 27.1135 21.828 27.1135 23.3522Z" fill="#DA840D"/>
<path d="M25.0781 23.0904C25.0781 24.2218 22.5981 25.1373 19.5373 25.1373C16.4766 25.1373 13.9941 24.2218 13.9941 23.0904C13.9941 21.959 16.4779 21.0435 19.5373 21.0435C22.5968 21.0435 25.0781 21.9661 25.0781 23.0904Z" fill="#F0A508"/>
<path d="M15.8085 23.8454C15.8085 23.9634 15.6674 24.066 15.4925 24.066C15.3177 24.066 15.1779 23.9669 15.1779 23.8454C15.1779 23.7239 15.319 23.6248 15.4925 23.6248C15.6661 23.6248 15.8085 23.7239 15.8085 23.8454Z" fill="#DA840D"/>
<path d="M15.178 22.9171C15.1762 22.9496 15.1645 22.9809 15.1441 23.0071C15.1238 23.0334 15.0957 23.0534 15.0634 23.0647C15.0311 23.0761 14.996 23.0782 14.9625 23.0709C14.9289 23.0636 14.8984 23.0471 14.8746 23.0236C14.8509 23 14.8349 22.9704 14.8288 22.9383C14.8227 22.9063 14.8267 22.8733 14.8402 22.8434C14.8538 22.8135 14.8763 22.788 14.905 22.77C14.9338 22.7521 14.9674 22.7425 15.0019 22.7425C15.0256 22.7429 15.049 22.7478 15.0707 22.7568C15.0924 22.7659 15.112 22.7789 15.1284 22.7951C15.1448 22.8114 15.1576 22.8305 15.1661 22.8514C15.1746 22.8723 15.1786 22.8947 15.178 22.9171Z" fill="#DA840D"/>
<path d="M17.3658 24.1132C17.3698 24.1705 17.3555 24.2277 17.3247 24.2773C17.2939 24.3268 17.248 24.3665 17.193 24.3911C17.1381 24.4157 17.0765 24.4242 17.0164 24.4153C16.9563 24.4065 16.9004 24.3808 16.8559 24.3416C16.8114 24.3023 16.7805 24.2514 16.7671 24.1953C16.7537 24.1392 16.7584 24.0807 16.7806 24.0272C16.8029 23.9737 16.8417 23.9277 16.8919 23.8953C16.9422 23.8629 17.0015 23.8455 17.0624 23.8454C17.1009 23.8441 17.1394 23.85 17.1755 23.8628C17.2116 23.8756 17.2447 23.895 17.2729 23.9199C17.3011 23.9447 17.3238 23.9746 17.3397 24.0078C17.3557 24.041 17.3645 24.0768 17.3658 24.1132Z" fill="#DA840D"/>
<path d="M16.7063 23.0504C16.7063 23.1236 16.6201 23.1837 16.5152 23.1837C16.4104 23.1837 16.3229 23.1236 16.3229 23.0504C16.3229 22.9773 16.4091 22.9171 16.5152 22.9171C16.6214 22.9171 16.7063 22.9761 16.7063 23.0504Z" fill="#DA840D"/>
<path d="M18.637 23.6828C18.6416 23.7199 18.6341 23.7574 18.6156 23.7903C18.5971 23.8233 18.5684 23.8501 18.5334 23.8674C18.4984 23.8846 18.4586 23.8913 18.4195 23.8867C18.3803 23.8821 18.3435 23.8663 18.314 23.8415C18.2845 23.8167 18.2637 23.784 18.2543 23.7478C18.2449 23.7116 18.2474 23.6735 18.2615 23.6386C18.2755 23.6037 18.3004 23.5737 18.3329 23.5526C18.3654 23.5314 18.404 23.52 18.4435 23.52C18.4919 23.5178 18.5393 23.5335 18.5755 23.564C18.6117 23.5945 18.6338 23.6371 18.637 23.6828Z" fill="#DA840D"/>
<path d="M18.7106 24.6656C18.7106 24.7411 18.6182 24.8024 18.5033 24.8024C18.3884 24.8024 18.296 24.7411 18.296 24.6656C18.296 24.5901 18.3896 24.5287 18.5033 24.5287C18.6169 24.5287 18.7106 24.5901 18.7106 24.6656Z" fill="#DA840D"/>
<path d="M17.8841 23.2013C17.8819 23.2288 17.8712 23.2549 17.8534 23.2767C17.8356 23.2984 17.8114 23.3147 17.7838 23.3236C17.7563 23.3324 17.7266 23.3334 17.6984 23.3265C17.6702 23.3195 17.6449 23.3049 17.6254 23.2845C17.606 23.264 17.5933 23.2386 17.589 23.2114C17.5847 23.1842 17.5889 23.1565 17.6012 23.1315C17.6134 23.1066 17.6332 23.0856 17.6579 23.0712C17.6827 23.0567 17.7114 23.0495 17.7405 23.0503C17.7805 23.0531 17.8178 23.0703 17.8446 23.0985C17.8713 23.1266 17.8855 23.1635 17.8841 23.2013Z" fill="#DA840D"/>
<path d="M20.0344 23.4881C20.0344 23.5636 19.9445 23.6249 19.8334 23.6249C19.7223 23.6249 19.6323 23.5636 19.6323 23.4881C19.6323 23.4126 19.7223 23.3524 19.8334 23.3524C19.9445 23.3524 20.0344 23.4126 20.0344 23.4881Z" fill="#DA840D"/>
<path d="M20.0344 24.1945C20.0344 24.2393 19.9445 24.2759 19.8334 24.2759C19.7223 24.2759 19.6323 24.2393 19.6323 24.1945C19.6323 24.1496 19.7223 24.1131 19.8334 24.1131C19.9445 24.1131 20.0344 24.1496 20.0344 24.1945Z" fill="#DA840D"/>
<path d="M21.3941 23.7357C21.3941 23.7959 21.3129 23.8454 21.2118 23.8454C21.1106 23.8454 21.0307 23.7959 21.0307 23.7357C21.0307 23.6755 21.1119 23.6248 21.2118 23.6248C21.3117 23.6248 21.3941 23.6743 21.3941 23.7357Z" fill="#DA840D"/>
<path d="M21.177 24.5241C21.1855 24.5608 21.1817 24.5992 21.1662 24.6338C21.1507 24.6685 21.1242 24.6977 21.0903 24.7175C21.0564 24.7373 21.0169 24.7467 20.9771 24.7443C20.9374 24.742 20.8994 24.728 20.8684 24.7044C20.8374 24.6808 20.8149 24.6486 20.8041 24.6124C20.7932 24.5762 20.7945 24.5377 20.8079 24.5023C20.8212 24.4668 20.8458 24.4361 20.8784 24.4145C20.9109 24.3928 20.9498 24.3812 20.9896 24.3813C21.0344 24.3773 21.079 24.39 21.114 24.4167C21.149 24.4433 21.1716 24.4819 21.177 24.5241Z" fill="#DA840D"/>
<path d="M22.6904 24.295C22.6826 24.3302 22.6645 24.3626 22.638 24.3884C22.6115 24.4141 22.5778 24.4323 22.5409 24.4407C22.5039 24.4492 22.4652 24.4475 22.4291 24.436C22.3931 24.4245 22.3613 24.4035 22.3374 24.3756C22.3135 24.3477 22.2984 24.3139 22.294 24.2782C22.2896 24.2425 22.2959 24.2064 22.3124 24.174C22.3288 24.1416 22.3546 24.1143 22.3869 24.0952C22.4191 24.0761 22.4564 24.066 22.4944 24.0662C22.5523 24.0724 22.6053 24.0999 22.642 24.1427C22.6787 24.1855 22.6961 24.2402 22.6904 24.295Z" fill="#DA840D"/>
<path d="M22.5819 23.264C22.5819 23.3112 22.5182 23.3489 22.4395 23.3489C22.3609 23.3489 22.2984 23.3112 22.2984 23.264C22.2984 23.2168 22.3621 23.1802 22.4395 23.1802C22.517 23.1802 22.5819 23.2215 22.5819 23.264Z" fill="#DA840D"/>
<path d="M23.7808 23.5151C23.7808 23.698 23.6946 23.8455 23.5897 23.8455C23.4848 23.8455 23.3974 23.698 23.3974 23.5151C23.3974 23.3323 23.4836 23.1836 23.5897 23.1836C23.6959 23.1836 23.7808 23.3323 23.7808 23.5151Z" fill="#DA840D"/>
<path d="M24.2614 23.1789C24.2614 23.2024 24.2515 23.2249 24.2339 23.2415C24.2164 23.2581 24.1925 23.2674 24.1677 23.2674C24.1429 23.2674 24.119 23.2581 24.1015 23.2415C24.0839 23.2249 24.0741 23.2024 24.0741 23.1789C24.0741 23.1554 24.0839 23.1329 24.1015 23.1163C24.119 23.0997 24.1429 23.0904 24.1677 23.0904C24.1924 23.0907 24.2161 23.1001 24.2336 23.1167C24.2511 23.1332 24.261 23.1555 24.2614 23.1789Z" fill="#DA840D"/>
<path d="M21.1121 22.897C21.1121 22.9808 20.9947 23.0504 20.8511 23.0504C20.7075 23.0504 20.5901 22.9808 20.5901 22.897C20.5901 22.8132 20.7063 22.7425 20.8511 22.7425C20.996 22.7425 21.1121 22.8121 21.1121 22.897Z" fill="#DA840D"/>
<path d="M16.2157 22.1017C16.2157 22.1536 16.1246 22.1961 16.0122 22.1961C15.8998 22.1961 15.8086 22.1536 15.8086 22.1017C15.8086 22.0498 15.8998 22.0073 16.0122 22.0073C16.1246 22.0073 16.2157 22.0498 16.2157 22.1017Z" fill="#DA840D"/>
<path d="M17.4145 21.9119C17.4145 21.965 17.3109 22.0075 17.1835 22.0075C17.0561 22.0075 16.9512 21.965 16.9512 21.9119C16.9512 21.8588 17.0549 21.8175 17.1835 21.8175C17.3121 21.8175 17.4145 21.86 17.4145 21.9119Z" fill="#DA840D"/>
<path d="M18.9229 22.1442C18.9229 22.2185 18.783 22.2799 18.6094 22.2799C18.4359 22.2799 18.296 22.2185 18.296 22.1442C18.296 22.0699 18.4371 22.0073 18.6094 22.0073C18.7818 22.0073 18.9229 22.0687 18.9229 22.1442Z" fill="#DA840D"/>
<path d="M20.0343 21.9119C20.0345 21.9309 20.0288 21.9496 20.0177 21.9655C20.0067 21.9813 19.9909 21.9938 19.9724 22.0012C19.9539 22.0085 19.9334 22.0105 19.9137 22.0069C19.894 22.0032 19.8758 21.9941 19.8616 21.9807C19.8474 21.9672 19.8377 21.9501 19.8339 21.9315C19.83 21.9128 19.8321 21.8935 19.8399 21.876C19.8477 21.8585 19.8609 21.8436 19.8777 21.8332C19.8945 21.8227 19.9143 21.8173 19.9344 21.8175C19.9609 21.8175 19.9863 21.8275 20.005 21.8452C20.0237 21.8629 20.0343 21.8869 20.0343 21.9119Z" fill="#DA840D"/>
<path d="M19.8333 22.6586C19.8333 22.7046 19.7384 22.7423 19.6197 22.7423C19.5011 22.7423 19.4074 22.7046 19.4074 22.6586C19.4074 22.6126 19.5023 22.5748 19.6197 22.5748C19.7371 22.5748 19.8333 22.6126 19.8333 22.6586Z" fill="#DA840D"/>
<path d="M21.5028 21.8704C21.5023 21.8978 21.4931 21.9244 21.4766 21.9469C21.46 21.9694 21.4367 21.9867 21.4097 21.9966C21.3826 22.0066 21.3531 22.0087 21.3248 22.0027C21.2965 21.9967 21.2707 21.9829 21.2508 21.963C21.2308 21.9432 21.2175 21.9181 21.2127 21.8911C21.2078 21.8641 21.2116 21.8364 21.2235 21.8114C21.2354 21.7864 21.2548 21.7653 21.2795 21.7508C21.3041 21.7363 21.3327 21.7291 21.3617 21.73C21.3807 21.7305 21.3994 21.7345 21.4168 21.7418C21.4342 21.7491 21.4499 21.7596 21.463 21.7726C21.4761 21.7856 21.4864 21.801 21.4932 21.8178C21.5 21.8346 21.5033 21.8525 21.5028 21.8704Z" fill="#DA840D"/>
<path d="M22.2983 22.4275C22.2983 22.4511 22.2246 22.47 22.1322 22.47C22.0397 22.47 21.9673 22.4511 21.9673 22.4275C21.9673 22.4039 22.041 22.385 22.1322 22.385C22.2233 22.385 22.2983 22.4039 22.2983 22.4275Z" fill="#DA840D"/>
<path d="M22.8167 22.149C22.8198 22.1615 22.8187 22.1745 22.8136 22.1863C22.8085 22.1982 22.7996 22.2082 22.7882 22.215C22.7768 22.2218 22.7634 22.2251 22.7499 22.2244C22.7364 22.2237 22.7235 22.2191 22.7129 22.2111C22.7024 22.2031 22.6947 22.1922 22.691 22.1799C22.6873 22.1676 22.6878 22.1546 22.6923 22.1425C22.6969 22.1305 22.7053 22.1201 22.7164 22.1128C22.7275 22.1055 22.7407 22.1017 22.7542 22.1018C22.7691 22.1005 22.7839 22.1047 22.7956 22.1135C22.8072 22.1223 22.8148 22.135 22.8167 22.149Z" fill="#DA840D"/>
<path d="M22.2982 22.4273C22.2953 22.4529 22.2847 22.4772 22.2675 22.4972C22.2503 22.5171 22.2274 22.532 22.2015 22.54C22.1756 22.5479 22.1478 22.5486 22.1215 22.542C22.0952 22.5354 22.0715 22.5217 22.0532 22.5026C22.035 22.4835 22.0229 22.4598 22.0186 22.4344C22.0143 22.409 22.0178 22.383 22.0288 22.3594C22.0398 22.3359 22.0577 22.3158 22.0805 22.3017C22.1033 22.2876 22.1299 22.28 22.1571 22.2799C22.1766 22.2808 22.1958 22.2853 22.2134 22.2932C22.2311 22.3011 22.2469 22.3123 22.2601 22.326C22.2732 22.3397 22.2833 22.3557 22.2898 22.3731C22.2964 22.3905 22.2992 22.4089 22.2982 22.4273Z" fill="#DA840D"/>
<path d="M23.1 22.1913C23.1 22.2397 23.0225 22.2798 22.9264 22.2798C22.8302 22.2798 22.7541 22.2397 22.7541 22.1913C22.7541 22.1429 22.8315 22.1016 22.9264 22.1016C23.0213 22.1016 23.1 22.1417 23.1 22.1913Z" fill="#DA840D"/>
<path d="M27.1959 22.5136C27.1959 24.0367 23.7705 25.4548 19.6459 25.4548C15.5212 25.4548 12.0684 23.9317 12.0684 22.4086C12.0684 20.8855 15.5212 19.9311 19.6459 19.9311C23.7705 19.9311 27.1959 20.9893 27.1959 22.5136Z" fill="#E3AC8A"/>
<path d="M27.1135 22.2187C27.1135 23.743 23.7706 24.9782 19.6459 24.9782C15.5213 24.9782 12.1771 23.743 12.1771 22.2187C12.1771 20.6945 15.5213 19.4593 19.6459 19.4593C23.7706 19.4593 27.1135 20.6945 27.1135 22.2187Z" fill="#DA840D"/>
<path d="M19.5374 24.0048C22.5974 24.0048 25.0781 23.0884 25.0781 21.9579C25.0781 20.8274 22.5974 19.911 19.5374 19.911C16.4773 19.911 13.9966 20.8274 13.9966 21.9579C13.9966 23.0884 16.4773 24.0048 19.5374 24.0048Z" fill="#F0A508"/>
<path d="M15.8085 22.7131C15.8085 22.8311 15.6674 22.9337 15.4925 22.9337C15.3177 22.9337 15.1779 22.8346 15.1779 22.7131C15.1779 22.5916 15.319 22.4925 15.4925 22.4925C15.6661 22.4925 15.8085 22.5904 15.8085 22.7131Z" fill="#DA840D"/>
<path d="M15.1781 21.7833C15.1771 21.816 15.1659 21.8477 15.146 21.8744C15.126 21.9011 15.0982 21.9217 15.066 21.9336C15.0337 21.9454 14.9985 21.9481 14.9647 21.9411C14.9308 21.9342 14.8999 21.918 14.8758 21.8945C14.8517 21.8711 14.8354 21.8415 14.829 21.8093C14.8226 21.7772 14.8264 21.744 14.8398 21.7139C14.8533 21.6837 14.8759 21.658 14.9047 21.64C14.9335 21.6219 14.9674 21.6122 15.002 21.6122C15.0492 21.6131 15.0942 21.6316 15.1272 21.6636C15.1601 21.6956 15.1784 21.7386 15.1781 21.7833Z" fill="#DA840D"/>
<path d="M17.3658 22.9806C17.3698 23.0379 17.3555 23.0951 17.3247 23.1447C17.2939 23.1942 17.248 23.2339 17.193 23.2585C17.1381 23.2831 17.0765 23.2916 17.0164 23.2827C16.9563 23.2739 16.9004 23.2482 16.8559 23.209C16.8114 23.1697 16.7805 23.1188 16.7671 23.0627C16.7537 23.0066 16.7584 22.9481 16.7806 22.8946C16.8029 22.8411 16.8417 22.7951 16.8919 22.7627C16.9422 22.7303 17.0015 22.7129 17.0624 22.7128C17.1401 22.7105 17.2157 22.7374 17.2725 22.7876C17.3294 22.8378 17.3629 22.9071 17.3658 22.9806Z" fill="#DA840D"/>
<path d="M16.7063 21.9177C16.7063 21.9908 16.6201 22.051 16.5152 22.051C16.4104 22.051 16.3229 21.9908 16.3229 21.9177C16.3229 21.8446 16.4091 21.7832 16.5152 21.7832C16.6214 21.7832 16.7063 21.8481 16.7063 21.9177Z" fill="#DA840D"/>
<path d="M18.637 22.5562C18.6416 22.5932 18.6341 22.6307 18.6156 22.6637C18.5971 22.6966 18.5684 22.7235 18.5334 22.7407C18.4984 22.7579 18.4586 22.7646 18.4195 22.76C18.3803 22.7554 18.3435 22.7397 18.314 22.7148C18.2845 22.69 18.2637 22.6574 18.2543 22.6211C18.2449 22.5849 18.2474 22.5468 18.2615 22.5119C18.2755 22.4771 18.3004 22.4471 18.3329 22.4259C18.3654 22.4047 18.404 22.3934 18.4435 22.3933C18.4919 22.3911 18.5393 22.4069 18.5755 22.4373C18.6117 22.4678 18.6338 22.5105 18.637 22.5562Z" fill="#DA840D"/>
<path d="M18.7106 23.5316C18.7106 23.6071 18.6182 23.6685 18.5033 23.6685C18.3884 23.6685 18.296 23.6071 18.296 23.5316C18.296 23.4561 18.3896 23.396 18.5033 23.396C18.6169 23.396 18.7106 23.4561 18.7106 23.5316Z" fill="#DA840D"/>
<path d="M17.8839 22.0674C17.8819 22.0949 17.8714 22.1212 17.8537 22.1431C17.836 22.165 17.8119 22.1815 17.7843 22.1905C17.7568 22.1995 17.727 22.2007 17.6988 22.1939C17.6705 22.1871 17.645 22.1725 17.6255 22.1521C17.6059 22.1317 17.5931 22.1063 17.5887 22.079C17.5843 22.0518 17.5885 22.024 17.6007 21.9989C17.613 21.9739 17.6327 21.9529 17.6575 21.9384C17.6823 21.9239 17.7111 21.9167 17.7403 21.9175C17.7801 21.92 17.8174 21.937 17.8442 21.965C17.871 21.9929 17.8853 22.0297 17.8839 22.0674Z" fill="#DA840D"/>
<path d="M20.0344 22.3554C20.0344 22.4309 19.9445 22.4922 19.8334 22.4922C19.7223 22.4922 19.6323 22.4309 19.6323 22.3554C19.6323 22.2799 19.7223 22.2185 19.8334 22.2185C19.9445 22.2185 20.0344 22.2799 20.0344 22.3554Z" fill="#DA840D"/>
<path d="M20.0344 23.0621C20.0344 23.107 19.9445 23.1435 19.8334 23.1435C19.7223 23.1435 19.6323 23.107 19.6323 23.0621C19.6323 23.0173 19.7223 22.9807 19.8334 22.9807C19.9445 22.9807 20.0344 23.0173 20.0344 23.0621Z" fill="#DA840D"/>
<path d="M21.3941 22.6022C21.3941 22.6635 21.3129 22.7131 21.2118 22.7131C21.1106 22.7131 21.0307 22.6635 21.0307 22.6022C21.0307 22.5408 21.1119 22.4925 21.2118 22.4925C21.3117 22.4925 21.3941 22.542 21.3941 22.6022Z" fill="#DA840D"/>
<path d="M21.1769 23.3899C21.1857 23.4267 21.1822 23.4651 21.1669 23.4999C21.1515 23.5347 21.1251 23.5641 21.0914 23.5841C21.0576 23.604 21.018 23.6136 20.9782 23.6114C20.9384 23.6093 20.9003 23.5955 20.8692 23.5719C20.838 23.5484 20.8154 23.5163 20.8044 23.4801C20.7935 23.4439 20.7947 23.4053 20.8079 23.3698C20.8211 23.3343 20.8457 23.3035 20.8782 23.2817C20.9108 23.26 20.9497 23.2483 20.9896 23.2484C21.0342 23.244 21.0788 23.2565 21.1139 23.2829C21.1489 23.3094 21.1715 23.3479 21.1769 23.3899Z" fill="#DA840D"/>
<path d="M22.6905 23.161C22.6828 23.1959 22.6647 23.228 22.6384 23.2536C22.6121 23.2792 22.5787 23.2972 22.542 23.3056C22.5054 23.314 22.4669 23.3124 22.4312 23.301C22.3954 23.2896 22.3638 23.2689 22.34 23.2412C22.3162 23.2136 22.3012 23.1801 22.2967 23.1447C22.2921 23.1094 22.2983 23.0735 22.3145 23.0413C22.3306 23.0091 22.3561 22.9818 22.388 22.9627C22.4198 22.9436 22.4567 22.9334 22.4945 22.9333C22.5522 22.9396 22.605 22.9669 22.6416 23.0095C22.6782 23.052 22.6958 23.1064 22.6905 23.161Z" fill="#DA840D"/>
<path d="M22.5819 22.1349C22.5819 22.1809 22.5182 22.2186 22.4395 22.2186C22.3609 22.2186 22.2984 22.1809 22.2984 22.1349C22.2984 22.0889 22.3621 22.0511 22.4395 22.0511C22.517 22.0511 22.5819 22.0842 22.5819 22.1349Z" fill="#DA840D"/>
<path d="M23.7808 22.3815C23.7808 22.5643 23.6946 22.713 23.5897 22.713C23.4848 22.713 23.3974 22.5643 23.3974 22.3815C23.3974 22.1986 23.4836 22.0511 23.5897 22.0511C23.6959 22.0511 23.7808 22.2021 23.7808 22.3815Z" fill="#DA840D"/>
<path d="M24.2614 22.0461C24.2611 22.0695 24.2511 22.0918 24.2336 22.1084C24.2161 22.1249 24.1925 22.1343 24.1677 22.1346C24.1492 22.1346 24.1311 22.1294 24.1157 22.1197C24.1003 22.11 24.0883 22.0962 24.0812 22.08C24.0741 22.0638 24.0722 22.046 24.0759 22.0289C24.0795 22.0117 24.0884 21.9959 24.1015 21.9836C24.1146 21.9712 24.1313 21.9628 24.1494 21.9593C24.1676 21.9559 24.1864 21.9577 24.2036 21.9644C24.2207 21.9711 24.2353 21.9824 24.2456 21.997C24.2559 22.0115 24.2614 22.0286 24.2614 22.0461Z" fill="#DA840D"/>
<path d="M21.1121 21.7633C21.1121 21.8483 20.9947 21.9179 20.8511 21.9179C20.7075 21.9179 20.5901 21.8483 20.5901 21.7633C20.5901 21.6784 20.7063 21.61 20.8511 21.61C20.996 21.61 21.1121 21.6784 21.1121 21.7633Z" fill="#DA840D"/>
<path d="M16.2157 20.968C16.2157 21.0211 16.1246 21.0636 16.0122 21.0636C15.8998 21.0636 15.8086 21.0211 15.8086 20.968C15.8086 20.9149 15.8998 20.8737 16.0122 20.8737C16.1246 20.8737 16.2157 20.9161 16.2157 20.968Z" fill="#DA840D"/>
<path d="M17.4145 20.7791C17.4145 20.831 17.3109 20.8735 17.1835 20.8735C17.0561 20.8735 16.9512 20.831 16.9512 20.7791C16.9512 20.7272 17.0549 20.6848 17.1835 20.6848C17.3121 20.6848 17.4145 20.7272 17.4145 20.7791Z" fill="#DA840D"/>
<path d="M18.9229 21.0105C18.9229 21.086 18.783 21.1474 18.6094 21.1474C18.4359 21.1474 18.296 21.086 18.296 21.0105C18.296 20.935 18.4371 20.8737 18.6094 20.8737C18.7818 20.8737 18.9229 20.935 18.9229 21.0105Z" fill="#DA840D"/>
<path d="M20.0343 20.7791C20.0345 20.7981 20.0288 20.8168 20.0177 20.8327C20.0067 20.8486 19.9909 20.861 19.9724 20.8684C19.9539 20.8758 19.9334 20.8777 19.9137 20.8741C19.894 20.8704 19.8758 20.8613 19.8616 20.8479C19.8474 20.8345 19.8377 20.8173 19.8339 20.7987C19.83 20.78 19.8321 20.7607 19.8399 20.7432C19.8477 20.7257 19.8609 20.7108 19.8777 20.7004C19.8945 20.69 19.9143 20.6845 19.9344 20.6848C19.9609 20.6848 19.9863 20.6947 20.005 20.7124C20.0237 20.7301 20.0343 20.7541 20.0343 20.7791Z" fill="#DA840D"/>
<path d="M19.8333 21.5261C19.8333 21.5721 19.7384 21.6099 19.6197 21.6099C19.5011 21.6099 19.4074 21.5721 19.4074 21.5261C19.4074 21.4801 19.5023 21.4412 19.6197 21.4412C19.7371 21.4412 19.8333 21.4789 19.8333 21.5261Z" fill="#DA840D"/>
<path d="M21.5028 20.7379C21.503 20.7655 21.4945 20.7925 21.4784 20.8154C21.4622 20.8384 21.4392 20.8562 21.4122 20.8667C21.3853 20.8772 21.3556 20.8798 21.327 20.8742C21.2985 20.8686 21.2724 20.8551 21.252 20.8354C21.2317 20.8156 21.218 20.7906 21.2129 20.7635C21.2077 20.7364 21.2112 20.7084 21.223 20.6832C21.2348 20.658 21.2543 20.6367 21.279 20.6221C21.3037 20.6075 21.3325 20.6002 21.3617 20.6011C21.3995 20.6017 21.4356 20.6164 21.462 20.6421C21.4885 20.6677 21.5031 20.7022 21.5028 20.7379Z" fill="#DA840D"/>
<path d="M22.2983 21.2947C22.2983 21.3171 22.2246 21.336 22.1322 21.336C22.0397 21.336 21.9673 21.3171 21.9673 21.2947C21.9673 21.2723 22.041 21.2523 22.1322 21.2523C22.2233 21.2523 22.2983 21.2711 22.2983 21.2947Z" fill="#DA840D"/>
<path d="M22.8168 21.0224C22.8196 21.0348 22.8183 21.0478 22.813 21.0595C22.8077 21.0712 22.7987 21.081 22.7872 21.0877C22.7757 21.0943 22.7623 21.0974 22.7488 21.0965C22.7354 21.0957 22.7226 21.0908 22.7121 21.0828C22.7017 21.0747 22.6942 21.0638 22.6907 21.0515C22.6871 21.0392 22.6877 21.0262 22.6923 21.0142C22.697 21.0023 22.7054 20.992 22.7165 20.9848C22.7277 20.9775 22.7409 20.9738 22.7543 20.974C22.7694 20.9727 22.7844 20.977 22.7961 20.9861C22.8077 20.9951 22.8152 21.0082 22.8168 21.0224Z" fill="#DA840D"/>
<path d="M22.2982 21.2948C22.2953 21.3204 22.2847 21.3447 22.2675 21.3647C22.2503 21.3846 22.2274 21.3995 22.2015 21.4075C22.1756 21.4154 22.1478 21.4161 22.1215 21.4095C22.0952 21.4029 22.0715 21.3892 22.0532 21.3701C22.035 21.351 22.0229 21.3273 22.0186 21.3019C22.0143 21.2765 22.0178 21.2505 22.0288 21.2269C22.0398 21.2034 22.0577 21.1833 22.0805 21.1692C22.1033 21.1551 22.1299 21.1475 22.1571 21.1474C22.1766 21.1483 22.1958 21.1528 22.2134 21.1607C22.2311 21.1686 22.2469 21.1797 22.2601 21.1934C22.2732 21.2071 22.2833 21.2232 22.2898 21.2406C22.2964 21.2579 22.2992 21.2764 22.2982 21.2948Z" fill="#DA840D"/>
<path d="M23.1 21.0576C23.1 21.1072 23.0225 21.1473 22.9264 21.1473C22.8302 21.1473 22.7541 21.1072 22.7541 21.0576C22.7541 21.0081 22.8315 20.968 22.9264 20.968C23.0213 20.968 23.1 21.0081 23.1 21.0576Z" fill="#DA840D"/>
<path d="M27.3145 20.4891C27.3145 22.0121 23.8879 23.4302 19.7633 23.4302C15.6386 23.4302 12.187 21.9071 12.187 20.3829C12.187 18.8586 15.6386 17.9113 19.7633 17.9113C23.8879 17.9113 27.3145 18.9648 27.3145 20.4891Z" fill="#E3AC8A"/>
<path d="M27.231 20.1965C27.231 21.7208 23.8868 22.956 19.7621 22.956C15.6374 22.956 12.2957 21.7184 12.2957 20.1965C12.2957 18.6746 15.6387 17.4347 19.7634 17.4347C23.888 17.4347 27.231 18.6699 27.231 20.1965Z" fill="#DA840D"/>
<path d="M25.1967 19.9334C25.1967 21.0636 22.7154 21.9803 19.6559 21.9803C16.5965 21.9803 14.1189 21.0636 14.1189 19.9334C14.1189 18.8032 16.5965 17.8853 19.6559 17.8853C22.7154 17.8853 25.1967 18.802 25.1967 19.9334Z" fill="#F0A508"/>
<path d="M15.9259 20.6885C15.9259 20.8065 15.786 20.9091 15.6112 20.9091C15.4364 20.9091 15.2965 20.81 15.2965 20.6885C15.2965 20.567 15.4376 20.4679 15.6174 20.4679C15.7973 20.4679 15.9259 20.5658 15.9259 20.6885Z" fill="#DA840D"/>
<path d="M15.2964 19.7588C15.2949 19.7913 15.2834 19.8226 15.2633 19.849C15.2432 19.8753 15.2153 19.8955 15.1832 19.9071C15.1511 19.9187 15.1161 19.9211 15.0825 19.9141C15.0489 19.9071 15.0182 19.891 14.9942 19.8677C14.9703 19.8444 14.954 19.815 14.9475 19.7831C14.941 19.7512 14.9446 19.7182 14.9577 19.6881C14.9709 19.6581 14.993 19.6324 15.0215 19.6141C15.0499 19.5959 15.0834 19.5859 15.1178 19.5854C15.1416 19.5855 15.1652 19.5901 15.1871 19.599C15.209 19.6078 15.2289 19.6207 15.2455 19.6368C15.2621 19.6529 15.2751 19.672 15.2839 19.693C15.2926 19.7139 15.2969 19.7363 15.2964 19.7588Z" fill="#DA840D"/>
<path d="M17.4907 20.9563C17.4944 21.0134 17.4799 21.0702 17.4491 21.1194C17.4183 21.1687 17.3725 21.208 17.3177 21.2323C17.2629 21.2567 17.2016 21.2649 17.1418 21.256C17.082 21.247 17.0265 21.2213 16.9823 21.1822C16.9382 21.1431 16.9075 21.0923 16.8942 21.0365C16.8809 20.9807 16.8857 20.9224 16.9079 20.8692C16.9302 20.816 16.9688 20.7703 17.0188 20.7381C17.0688 20.7059 17.1279 20.6886 17.1885 20.6885C17.2661 20.6863 17.3415 20.7132 17.3981 20.7634C17.4548 20.8136 17.4881 20.883 17.4907 20.9563Z" fill="#DA840D"/>
<path d="M16.8251 19.892C16.8251 19.9664 16.7389 20.0265 16.6327 20.0265C16.5266 20.0265 16.4417 19.9664 16.4417 19.892C16.4417 19.8177 16.5278 19.7587 16.6327 19.7587C16.7376 19.7587 16.8251 19.8189 16.8251 19.892Z" fill="#DA840D"/>
<path d="M18.7555 20.5258C18.76 20.5628 18.7526 20.6003 18.7341 20.6333C18.7156 20.6662 18.6869 20.6931 18.6519 20.7103C18.6168 20.7275 18.5771 20.7342 18.5379 20.7296C18.4987 20.725 18.4619 20.7093 18.4324 20.6844C18.4029 20.6596 18.3821 20.627 18.3728 20.5907C18.3634 20.5545 18.3659 20.5164 18.3799 20.4815C18.3939 20.4467 18.4189 20.4167 18.4514 20.3955C18.4839 20.3743 18.5224 20.363 18.5619 20.3629C18.6103 20.3607 18.6578 20.3765 18.694 20.4069C18.7302 20.4374 18.7523 20.4801 18.7555 20.5258Z" fill="#DA840D"/>
<path d="M18.8293 21.5073C18.8293 21.5828 18.7369 21.6442 18.622 21.6442C18.5071 21.6442 18.4147 21.5828 18.4147 21.5073C18.4147 21.4318 18.5071 21.3764 18.622 21.3764C18.7369 21.3764 18.8293 21.433 18.8293 21.5073Z" fill="#DA840D"/>
<path d="M18.0027 20.0431C18.0027 20.0803 17.9871 20.116 17.9592 20.1424C17.9313 20.1687 17.8935 20.1835 17.8541 20.1835C17.8147 20.1835 17.7769 20.1687 17.749 20.1424C17.7212 20.116 17.7055 20.0803 17.7055 20.0431C17.7055 20.0059 17.7212 19.9701 17.749 19.9438C17.7769 19.9175 17.8147 19.9027 17.8541 19.9027C17.8935 19.9027 17.9313 19.9175 17.9592 19.9438C17.9871 19.9701 18.0027 20.0059 18.0027 20.0431Z" fill="#DA840D"/>
<path d="M20.1529 20.331C20.1529 20.4065 20.063 20.4678 19.9518 20.4678C19.8407 20.4678 19.7508 20.4065 19.7508 20.331C19.7508 20.2555 19.8407 20.1965 19.9518 20.1965C20.063 20.1965 20.1529 20.2555 20.1529 20.331Z" fill="#DA840D"/>
<path d="M20.1529 21.0376C20.1529 21.0824 20.063 21.119 19.9518 21.119C19.8407 21.119 19.7508 21.0824 19.7508 21.0376C19.7508 20.9927 19.8407 20.9562 19.9518 20.9562C20.063 20.9562 20.1529 20.9927 20.1529 21.0376Z" fill="#DA840D"/>
<path d="M21.5129 20.5776C21.5129 20.639 21.4318 20.6885 21.3306 20.6885C21.2295 20.6885 21.1483 20.639 21.1483 20.5776C21.1483 20.5163 21.2307 20.4679 21.3306 20.4679C21.4305 20.4679 21.5129 20.5174 21.5129 20.5776Z" fill="#DA840D"/>
<path d="M21.2955 21.3655C21.3046 21.4025 21.3012 21.4412 21.286 21.4763C21.2707 21.5114 21.2443 21.5411 21.2103 21.5614C21.1764 21.5817 21.1366 21.5915 21.0965 21.5894C21.0564 21.5874 21.018 21.5736 20.9865 21.55C20.9551 21.5264 20.9322 21.4941 20.921 21.4577C20.9099 21.4212 20.911 21.3824 20.9242 21.3466C20.9374 21.3108 20.9621 21.2797 20.9949 21.2577C21.0276 21.2358 21.0668 21.224 21.1069 21.224C21.1518 21.2193 21.1967 21.2316 21.2321 21.2581C21.2674 21.2846 21.2902 21.3232 21.2955 21.3655Z" fill="#DA840D"/>
<path d="M22.8092 21.1403C22.8001 21.1747 22.781 21.206 22.7541 21.2307C22.7271 21.2553 22.6934 21.2724 22.6567 21.2799C22.6201 21.2874 22.5819 21.2851 22.5466 21.2732C22.5112 21.2612 22.4801 21.2402 22.4568 21.2125C22.4334 21.1847 22.4188 21.1514 22.4144 21.1161C22.4101 21.0809 22.4163 21.0453 22.4323 21.0132C22.4483 20.9812 22.4735 20.954 22.505 20.9347C22.5366 20.9155 22.5731 20.905 22.6107 20.9044C22.6403 20.9071 22.669 20.9155 22.6951 20.9289C22.7212 20.9424 22.7442 20.9606 22.7628 20.9827C22.7813 21.0047 22.7949 21.0299 22.8029 21.057C22.8109 21.0841 22.813 21.1124 22.8092 21.1403Z" fill="#DA840D"/>
<path d="M22.7003 20.1103C22.7003 20.1563 22.6367 20.1941 22.558 20.1941C22.4793 20.1941 22.4169 20.1563 22.4169 20.1103C22.4169 20.0643 22.4793 20.0266 22.558 20.0266C22.6367 20.0266 22.7003 20.0643 22.7003 20.1103Z" fill="#DA840D"/>
<path d="M23.8992 20.3569C23.8992 20.5398 23.813 20.6884 23.7068 20.6884C23.6007 20.6884 23.5158 20.5398 23.5158 20.3569C23.5158 20.174 23.602 20.0266 23.7068 20.0266C23.8117 20.0266 23.8992 20.174 23.8992 20.3569Z" fill="#DA840D"/>
<path d="M24.3787 20.0218C24.3784 20.0391 24.3728 20.0558 24.3625 20.07C24.3522 20.0842 24.3377 20.0952 24.3208 20.1017C24.3039 20.1081 24.2853 20.1096 24.2675 20.1061C24.2496 20.1026 24.2333 20.0942 24.2205 20.082C24.2077 20.0697 24.199 20.0542 24.1955 20.0373C24.1921 20.0204 24.194 20.0029 24.201 19.987C24.208 19.9711 24.2199 19.9575 24.2351 19.948C24.2502 19.9385 24.268 19.9334 24.2863 19.9334C24.3109 19.9337 24.3344 19.9431 24.3517 19.9597C24.369 19.9763 24.3787 19.9986 24.3787 20.0218Z" fill="#DA840D"/>
<path d="M21.2295 19.7387C21.2295 19.8237 21.1134 19.8921 20.9698 19.8921C20.8262 19.8921 20.7088 19.8237 20.7088 19.7387C20.7088 19.6538 20.8249 19.5854 20.9698 19.5854C21.1146 19.5854 21.2295 19.6538 21.2295 19.7387Z" fill="#DA840D"/>
<path d="M16.3343 18.9446C16.3343 18.9966 16.2432 19.039 16.1308 19.039C16.0184 19.039 15.926 18.9966 15.926 18.9446C15.926 18.8927 16.0171 18.8491 16.1308 18.8491C16.2444 18.8491 16.3343 18.8916 16.3343 18.9446Z" fill="#DA840D"/>
<path d="M17.533 18.7549C17.533 18.8079 17.4293 18.8492 17.3007 18.8492C17.1721 18.8492 17.0697 18.8079 17.0697 18.7549C17.0697 18.7018 17.1733 18.6605 17.3007 18.6605C17.4281 18.6605 17.533 18.7029 17.533 18.7549Z" fill="#DA840D"/>
<path d="M19.0416 18.9859C19.0416 19.0614 18.9017 19.1228 18.7281 19.1228C18.5545 19.1228 18.4147 19.0614 18.4147 18.9859C18.4147 18.9104 18.5558 18.8491 18.7281 18.8491C18.9004 18.8491 19.0416 18.9104 19.0416 18.9859Z" fill="#DA840D"/>
<path d="M20.1531 18.7547C20.1504 18.778 20.1386 18.7996 20.1201 18.8153C20.1015 18.8309 20.0775 18.8396 20.0526 18.8396C20.0277 18.8396 20.0037 18.8309 19.9852 18.8153C19.9666 18.7996 19.9548 18.778 19.9521 18.7547C19.9548 18.7313 19.9666 18.7097 19.9852 18.694C20.0037 18.6784 20.0277 18.6697 20.0526 18.6697C20.0775 18.6697 20.1015 18.6784 20.1201 18.694C20.1386 18.7097 20.1504 18.7313 20.1531 18.7547Z" fill="#DA840D"/>
<path d="M19.9518 19.5004C19.9518 19.5476 19.8569 19.5853 19.7382 19.5853C19.6196 19.5853 19.5247 19.5476 19.5247 19.5004C19.5247 19.4532 19.6209 19.4166 19.7382 19.4166C19.8556 19.4166 19.9518 19.4543 19.9518 19.5004Z" fill="#DA840D"/>
<path d="M21.6215 18.7133C21.6218 18.7407 21.6134 18.7675 21.5975 18.7904C21.5816 18.8132 21.5589 18.8311 21.5322 18.8417C21.5055 18.8523 21.4761 18.8552 21.4477 18.8501C21.4193 18.8449 21.3931 18.8318 21.3726 18.8125C21.352 18.7933 21.338 18.7687 21.3322 18.7419C21.3265 18.7151 21.3293 18.6873 21.3403 18.662C21.3514 18.6367 21.3701 18.6151 21.3941 18.5998C21.4182 18.5846 21.4465 18.5765 21.4754 18.5765C21.4946 18.5762 21.5136 18.5795 21.5314 18.5862C21.5492 18.593 21.5654 18.603 21.579 18.6158C21.5927 18.6286 21.6034 18.6438 21.6107 18.6605C21.618 18.6773 21.6217 18.6952 21.6215 18.7133Z" fill="#DA840D"/>
<path d="M22.4169 19.2704C22.4169 19.2929 22.342 19.3117 22.2508 19.3117C22.1597 19.3117 22.086 19.2929 22.086 19.2704C22.086 19.248 22.1597 19.228 22.2508 19.228C22.342 19.228 22.4169 19.2527 22.4169 19.2704Z" fill="#DA840D"/>
<path d="M22.9351 18.992C22.9312 19.0049 22.9231 19.0161 22.9118 19.0242C22.9005 19.0322 22.8868 19.0365 22.8727 19.0365C22.8586 19.0365 22.8448 19.0322 22.8336 19.0242C22.8223 19.0161 22.8141 19.0049 22.8102 18.992C22.8141 18.9792 22.8223 18.9679 22.8336 18.9599C22.8448 18.9519 22.8586 18.9475 22.8727 18.9475C22.8868 18.9475 22.9005 18.9519 22.9118 18.9599C22.9231 18.9679 22.9312 18.9792 22.9351 18.992Z" fill="#DA840D"/>
<path d="M22.4169 19.2703C22.414 19.2958 22.4033 19.3201 22.3862 19.3401C22.369 19.3601 22.3461 19.3749 22.3202 19.3829C22.2943 19.3908 22.2665 19.3915 22.2402 19.3849C22.2139 19.3783 22.1901 19.3646 22.1719 19.3455C22.1536 19.3264 22.1416 19.3027 22.1373 19.2773C22.1329 19.2519 22.1365 19.2259 22.1474 19.2023C22.1584 19.1788 22.1764 19.1588 22.1991 19.1446C22.2219 19.1305 22.2485 19.1229 22.2758 19.1228C22.2953 19.1237 22.3144 19.1282 22.3321 19.1361C22.3498 19.144 22.3656 19.1552 22.3787 19.1689C22.3918 19.1826 22.4019 19.1986 22.4085 19.216C22.415 19.2334 22.4179 19.2518 22.4169 19.2703Z" fill="#DA840D"/>
<path d="M23.2186 19.0332C23.2186 19.0828 23.1411 19.1229 23.045 19.1229C22.9488 19.1229 22.8714 19.0828 22.8714 19.0332C22.8714 18.9837 22.9488 18.9447 23.045 18.9447C23.1411 18.9447 23.2186 18.9837 23.2186 19.0332Z" fill="#DA840D"/>
<path d="M27.3145 19.1877C27.3145 20.712 23.8879 22.1289 19.7633 22.1289C15.6386 22.1289 12.187 20.607 12.187 19.0827C12.187 17.5585 15.6386 16.6052 19.7633 16.6052C23.8879 16.6052 27.3145 17.6635 27.3145 19.1877Z" fill="#E3AC8A"/>
<path d="M27.231 18.8988C27.231 20.4218 23.8868 21.6582 19.7621 21.6582C15.6374 21.6582 12.2957 20.4171 12.2957 18.8988C12.2957 17.3804 15.6387 16.1381 19.7634 16.1381C23.888 16.1381 27.231 17.3651 27.231 18.8988Z" fill="#DA840D"/>
<path d="M25.1967 18.6321C25.1967 19.7623 22.7154 20.679 19.6559 20.679C16.5965 20.679 14.1189 19.7623 14.1189 18.6321C14.1189 17.5019 16.5965 16.584 19.6559 16.584C22.7154 16.584 25.1967 17.5007 25.1967 18.6321Z" fill="#F0A508"/>
<path d="M15.9259 19.3872C15.9259 19.5052 15.786 19.6078 15.6112 19.6078C15.4364 19.6078 15.2965 19.5087 15.2965 19.3872C15.2965 19.2657 15.4376 19.1666 15.6112 19.1666C15.7848 19.1666 15.9259 19.2657 15.9259 19.3872Z" fill="#DA840D"/>
<path d="M15.2964 18.4575C15.2949 18.49 15.2834 18.5213 15.2633 18.5477C15.2432 18.574 15.2153 18.5943 15.1832 18.6058C15.1511 18.6174 15.1161 18.6199 15.0825 18.6128C15.0489 18.6058 15.0182 18.5897 14.9942 18.5664C14.9703 18.5431 14.954 18.5137 14.9475 18.4818C14.941 18.4499 14.9446 18.4169 14.9577 18.3869C14.9709 18.3568 14.993 18.3311 15.0215 18.3128C15.0499 18.2946 15.0834 18.2846 15.1178 18.2841C15.1416 18.2842 15.1652 18.2889 15.1871 18.2977C15.209 18.3065 15.2289 18.3194 15.2455 18.3355C15.2621 18.3516 15.2751 18.3707 15.2839 18.3917C15.2926 18.4126 15.2969 18.435 15.2964 18.4575Z" fill="#DA840D"/>
<path d="M17.1848 19.9226C17.3517 19.9226 17.487 19.8027 17.487 19.6548C17.487 19.5069 17.3517 19.387 17.1848 19.387C17.0179 19.387 16.8826 19.5069 16.8826 19.6548C16.8826 19.8027 17.0179 19.9226 17.1848 19.9226Z" fill="#DA840D"/>
<path d="M16.8251 18.5921C16.8251 18.6652 16.7389 18.7254 16.6327 18.7254C16.5266 18.7254 16.4417 18.6629 16.4417 18.5921C16.4417 18.5213 16.5278 18.4576 16.6327 18.4576C16.7376 18.4576 16.8251 18.5178 16.8251 18.5921Z" fill="#DA840D"/>
<path d="M18.7555 19.2244C18.76 19.2615 18.7526 19.299 18.7341 19.3319C18.7156 19.3649 18.6869 19.3918 18.6519 19.409C18.6168 19.4262 18.5771 19.4329 18.5379 19.4283C18.4987 19.4237 18.4619 19.4079 18.4324 19.3831C18.4029 19.3583 18.3821 19.3256 18.3728 19.2894C18.3634 19.2532 18.3659 19.2151 18.3799 19.1802C18.3939 19.1454 18.4189 19.1153 18.4514 19.0942C18.4839 19.073 18.5224 19.0616 18.5619 19.0616C18.6103 19.0594 18.6578 19.0752 18.694 19.1056C18.7302 19.1361 18.7523 19.1787 18.7555 19.2244Z" fill="#DA840D"/>
<path d="M18.8293 20.2058C18.8293 20.2813 18.7369 20.3426 18.622 20.3426C18.5071 20.3426 18.4147 20.2813 18.4147 20.2058C18.4147 20.1303 18.5071 20.0701 18.622 20.0701C18.7369 20.0701 18.8293 20.1314 18.8293 20.2058Z" fill="#DA840D"/>
<path d="M18.0025 18.7429C18.0003 18.7701 17.9898 18.7961 17.9722 18.8178C17.9546 18.8394 17.9307 18.8557 17.9034 18.8648C17.8762 18.8738 17.8467 18.8751 17.8187 18.8685C17.7906 18.862 17.7652 18.8478 17.7455 18.8278C17.7258 18.8078 17.7128 18.7829 17.7079 18.756C17.703 18.7291 17.7065 18.7014 17.718 18.6764C17.7295 18.6513 17.7485 18.63 17.7727 18.615C17.7968 18.6 17.825 18.5919 17.8539 18.5919C17.8948 18.5934 17.9333 18.6101 17.9612 18.6384C17.989 18.6667 18.0039 18.7043 18.0025 18.7429Z" fill="#DA840D"/>
<path d="M20.1529 19.0297C20.1529 19.1052 20.063 19.1666 19.9518 19.1666C19.8407 19.1666 19.7508 19.1052 19.7508 19.0297C19.7508 18.9542 19.8407 18.8988 19.9518 18.8988C20.063 18.8988 20.1529 18.9542 20.1529 19.0297Z" fill="#DA840D"/>
<path d="M20.1529 19.7363C20.1529 19.7811 20.063 19.8177 19.9518 19.8177C19.8407 19.8177 19.7508 19.7811 19.7508 19.7363C19.7508 19.6914 19.8407 19.6549 19.9518 19.6549C20.063 19.6549 20.1529 19.6914 20.1529 19.7363Z" fill="#DA840D"/>
<path d="M21.5129 19.2763C21.5129 19.3377 21.4318 19.3872 21.3306 19.3872C21.2295 19.3872 21.1483 19.3377 21.1483 19.2763C21.1483 19.215 21.2307 19.1666 21.3306 19.1666C21.4305 19.1666 21.5129 19.2161 21.5129 19.2763Z" fill="#DA840D"/>
<path d="M21.2955 20.0644C21.3046 20.1014 21.3012 20.1401 21.286 20.1752C21.2707 20.2103 21.2443 20.24 21.2103 20.2603C21.1764 20.2805 21.1366 20.2903 21.0965 20.2883C21.0564 20.2862 21.018 20.2725 20.9865 20.2489C20.9551 20.2252 20.9322 20.193 20.921 20.1565C20.9099 20.1201 20.911 20.0813 20.9242 20.0454C20.9374 20.0096 20.9621 19.9786 20.9949 19.9566C21.0276 19.9346 21.0668 19.9228 21.1069 19.9228C21.1518 19.9182 21.1967 19.9304 21.2321 19.957C21.2674 19.9835 21.2902 20.0221 21.2955 20.0644Z" fill="#DA840D"/>
<path d="M22.8092 19.8426C22.8001 19.877 22.781 19.9083 22.7541 19.9329C22.7271 19.9576 22.6934 19.9747 22.6567 19.9822C22.6201 19.9897 22.5819 19.9874 22.5466 19.9754C22.5112 19.9635 22.4801 19.9425 22.4568 19.9147C22.4334 19.887 22.4188 19.8536 22.4144 19.8184C22.4101 19.7832 22.4163 19.7476 22.4323 19.7155C22.4483 19.6834 22.4735 19.6562 22.505 19.637C22.5366 19.6178 22.5731 19.6072 22.6107 19.6066C22.6403 19.6092 22.6691 19.6175 22.6954 19.6309C22.7216 19.6443 22.7446 19.6626 22.7632 19.6846C22.7817 19.7066 22.7954 19.732 22.8033 19.7592C22.8112 19.7863 22.8132 19.8147 22.8092 19.8426Z" fill="#DA840D"/>
<path d="M22.7003 18.8092C22.7003 18.8564 22.6367 18.8941 22.558 18.8941C22.4793 18.8941 22.4169 18.8564 22.4169 18.8092C22.4169 18.762 22.4793 18.7254 22.558 18.7254C22.6367 18.7254 22.7003 18.7632 22.7003 18.8092Z" fill="#DA840D"/>
<path d="M23.8992 19.0558C23.8992 19.2386 23.813 19.3873 23.7068 19.3873C23.6007 19.3873 23.5158 19.2386 23.5158 19.0558C23.5158 18.8729 23.602 18.7254 23.7068 18.7254C23.8117 18.7254 23.8992 18.8741 23.8992 19.0558Z" fill="#DA840D"/>
<path d="M24.3787 18.7207C24.3784 18.7379 24.3728 18.7547 24.3625 18.7689C24.3522 18.7831 24.3377 18.7941 24.3208 18.8005C24.3039 18.807 24.2853 18.8085 24.2675 18.805C24.2496 18.8015 24.2333 18.7931 24.2205 18.7809C24.2077 18.7686 24.199 18.7531 24.1955 18.7362C24.1921 18.7193 24.194 18.7018 24.201 18.6859C24.208 18.67 24.2199 18.6564 24.2351 18.6469C24.2502 18.6373 24.268 18.6322 24.2863 18.6322C24.2985 18.6322 24.3106 18.6345 24.3219 18.639C24.3332 18.6435 24.3435 18.65 24.3521 18.6582C24.3607 18.6665 24.3674 18.6762 24.372 18.687C24.3766 18.6977 24.3788 18.7092 24.3787 18.7207Z" fill="#DA840D"/>
<path d="M21.2295 18.4375C21.2295 18.5224 21.1134 18.592 20.9698 18.592C20.8262 18.592 20.7088 18.5224 20.7088 18.4375C20.7088 18.3525 20.8249 18.2841 20.9698 18.2841C21.1146 18.2841 21.2295 18.3525 21.2295 18.4375Z" fill="#DA840D"/>
<path d="M16.3343 17.6435C16.3343 17.6954 16.2432 17.7379 16.1308 17.7379C16.0184 17.7379 15.926 17.6954 15.926 17.6435C15.926 17.5916 16.0171 17.5491 16.1308 17.5491C16.2444 17.5491 16.3343 17.5916 16.3343 17.6435Z" fill="#DA840D"/>
<path d="M17.533 17.4535C17.533 17.5066 17.4293 17.549 17.3007 17.549C17.1721 17.549 17.0697 17.5066 17.0697 17.4535C17.0697 17.4004 17.1733 17.3591 17.3007 17.3591C17.4281 17.3591 17.533 17.4016 17.533 17.4535Z" fill="#DA840D"/>
<path d="M19.0416 17.6848C19.0416 17.7603 18.9017 17.8216 18.7281 17.8216C18.5545 17.8216 18.4147 17.7603 18.4147 17.6848C18.4147 17.6093 18.5558 17.5491 18.7281 17.5491C18.9004 17.5491 19.0416 17.6093 19.0416 17.6848Z" fill="#DA840D"/>
<path d="M20.1529 17.4535C20.1532 17.4725 20.1474 17.4912 20.1364 17.5071C20.1254 17.523 20.1096 17.5354 20.0911 17.5428C20.0726 17.5501 20.0521 17.5521 20.0324 17.5485C20.0126 17.5448 19.9945 17.5357 19.9803 17.5223C19.9661 17.5088 19.9564 17.4917 19.9525 17.4731C19.9487 17.4544 19.9508 17.4351 19.9586 17.4176C19.9664 17.4001 19.9796 17.3852 19.9964 17.3748C20.0132 17.3644 20.0329 17.3589 20.053 17.3592C20.0795 17.3592 20.1049 17.3691 20.1237 17.3868C20.1424 17.4045 20.1529 17.4285 20.1529 17.4535Z" fill="#DA840D"/>
<path d="M19.9518 18.2002C19.9518 18.2462 19.8569 18.284 19.7382 18.284C19.6196 18.284 19.5247 18.2462 19.5247 18.2002C19.5247 18.1542 19.6209 18.1153 19.7382 18.1153C19.8556 18.1153 19.9518 18.153 19.9518 18.2002Z" fill="#DA840D"/>
<path d="M21.6215 17.4123C21.6218 17.4396 21.6134 17.4664 21.5975 17.4893C21.5816 17.5121 21.5589 17.53 21.5322 17.5406C21.5055 17.5513 21.4761 17.5542 21.4477 17.549C21.4193 17.5438 21.3931 17.5307 21.3726 17.5115C21.352 17.4922 21.338 17.4676 21.3322 17.4408C21.3265 17.414 21.3293 17.3862 21.3403 17.3609C21.3514 17.3356 21.3701 17.314 21.3941 17.2988C21.4182 17.2836 21.4465 17.2754 21.4754 17.2754C21.4946 17.2753 21.5135 17.2787 21.5312 17.2855C21.549 17.2923 21.5651 17.3024 21.5787 17.3151C21.5922 17.3278 21.603 17.343 21.6104 17.3596C21.6177 17.3763 21.6215 17.3942 21.6215 17.4123Z" fill="#DA840D"/>
<path d="M22.4169 17.9691C22.4169 17.9915 22.342 18.0104 22.2508 18.0104C22.1597 18.0104 22.086 17.9915 22.086 17.9691C22.086 17.9467 22.1597 17.9266 22.2508 17.9266C22.342 17.9266 22.4169 17.9455 22.4169 17.9691Z" fill="#DA840D"/>
<path d="M22.9354 17.6906C22.9385 17.703 22.9375 17.716 22.9324 17.7278C22.9274 17.7396 22.9185 17.7496 22.9072 17.7565C22.8959 17.7633 22.8825 17.7667 22.8691 17.7661C22.8556 17.7655 22.8427 17.7609 22.8321 17.7531C22.8215 17.7452 22.8138 17.7344 22.81 17.7222C22.8061 17.71 22.8064 17.697 22.8107 17.685C22.8151 17.6729 22.8233 17.6625 22.8342 17.655C22.8451 17.6476 22.8582 17.6435 22.8717 17.6434C22.8867 17.6421 22.9017 17.6462 22.9135 17.655C22.9254 17.6638 22.9332 17.6765 22.9354 17.6906Z" fill="#DA840D"/>
<path d="M22.4169 17.969C22.414 17.9945 22.4033 18.0188 22.3862 18.0388C22.369 18.0588 22.3461 18.0736 22.3202 18.0816C22.2943 18.0895 22.2665 18.0902 22.2402 18.0836C22.2139 18.077 22.1901 18.0633 22.1719 18.0442C22.1536 18.0251 22.1416 18.0014 22.1373 17.976C22.1329 17.9506 22.1365 17.9246 22.1474 17.901C22.1584 17.8775 22.1764 17.8575 22.1991 17.8433C22.2219 17.8292 22.2485 17.8216 22.2758 17.8215C22.2953 17.8224 22.3144 17.8269 22.3321 17.8348C22.3498 17.8427 22.3656 17.8539 22.3787 17.8676C22.3918 17.8813 22.4019 17.8973 22.4085 17.9147C22.415 17.9321 22.4179 17.9505 22.4169 17.969Z" fill="#DA840D"/>
<path d="M23.2186 17.7319C23.2186 17.7815 23.1411 17.8216 23.045 17.8216C22.9488 17.8216 22.8714 17.7815 22.8714 17.7319C22.8714 17.6824 22.9488 17.6434 23.045 17.6434C23.1411 17.6434 23.2186 17.6835 23.2186 17.7319Z" fill="#DA840D"/>
<path d="M27.0262 17.8477C26.8514 16.3824 23.7195 15.2168 19.8808 15.2168C16.2893 15.2168 13.3173 16.2373 12.8053 17.5669C12.687 17.7466 12.6231 17.9534 12.6205 18.165C12.6205 19.6893 15.9297 21.2124 19.8808 21.2124C23.8319 21.2124 27.1136 19.7967 27.1136 18.27C27.1134 18.1253 27.0837 17.9819 27.0262 17.8477Z" fill="#C66720"/>
<path d="M27.4669 17.5834C27.4669 19.1076 24.0403 20.5257 19.9156 20.5257C15.791 20.5257 12.3394 19.0027 12.3394 17.4831C12.3394 15.9636 15.791 15.0056 19.9156 15.0056C24.0403 15.0056 27.4669 16.0591 27.4669 17.5834Z" fill="#E3AC8A"/>
<path d="M27.4007 17.2896C27.4007 18.8139 24.1539 19.9654 20.033 19.9654C15.912 19.9654 12.5654 18.7301 12.5654 17.2059C12.5654 15.6816 15.9083 14.4464 20.033 14.4464C24.1576 14.4464 27.4007 15.7654 27.4007 17.2896Z" fill="#DA840D"/>
<path d="M19.8085 19.0746C22.8686 19.0746 25.3492 18.1581 25.3492 17.0277C25.3492 15.8972 22.8686 14.9808 19.8085 14.9808C16.7484 14.9808 14.2677 15.8972 14.2677 17.0277C14.2677 18.1581 16.7484 19.0746 19.8085 19.0746Z" fill="#F0A508"/>
<path d="M16.0783 17.7826C16.0783 17.9006 15.9371 18.0044 15.7636 18.0044C15.59 18.0044 15.4489 17.9053 15.4489 17.7826C15.4489 17.6599 15.59 17.562 15.7636 17.562C15.9371 17.562 16.0783 17.6611 16.0783 17.7826Z" fill="#DA840D"/>
<path d="M15.4487 16.8541C15.447 16.8866 15.4352 16.9179 15.4149 16.9441C15.3945 16.9704 15.3665 16.9904 15.3342 17.0017C15.3019 17.0131 15.2668 17.0152 15.2332 17.0079C15.1997 17.0006 15.1691 16.9841 15.1454 16.9605C15.1216 16.937 15.1057 16.9073 15.0996 16.8753C15.0934 16.8433 15.0974 16.8103 15.1109 16.7804C15.1245 16.7505 15.147 16.7249 15.1758 16.707C15.2045 16.6891 15.2382 16.6795 15.2726 16.6794C15.2963 16.6799 15.3197 16.6848 15.3415 16.6938C15.3632 16.7029 15.3828 16.7159 15.3991 16.7321C15.4155 16.7483 15.4283 16.7675 15.4368 16.7884C15.4453 16.8093 15.4494 16.8316 15.4487 16.8541Z" fill="#DA840D"/>
<path d="M17.6392 18.0515C17.6427 18.1086 17.628 18.1653 17.597 18.2144C17.566 18.2635 17.5201 18.3026 17.4653 18.3268C17.4105 18.351 17.3492 18.359 17.2895 18.3499C17.2298 18.3409 17.1743 18.3151 17.1303 18.2759C17.0862 18.2367 17.0557 18.1859 17.0425 18.1301C17.0294 18.0743 17.0343 18.0161 17.0565 17.963C17.0788 17.9098 17.1174 17.8642 17.1674 17.8321C17.2174 17.7999 17.2765 17.7826 17.337 17.7826C17.3755 17.7815 17.4139 17.7875 17.45 17.8005C17.486 17.8134 17.519 17.8329 17.5471 17.8579C17.5752 17.8829 17.5977 17.9128 17.6136 17.9461C17.6294 17.9793 17.6381 18.0151 17.6392 18.0515Z" fill="#DA840D"/>
<path d="M16.9774 16.9874C16.9774 17.0617 16.8912 17.1207 16.7851 17.1207C16.679 17.1207 16.594 17.0617 16.594 16.9874C16.594 16.9131 16.6802 16.8541 16.7851 16.8541C16.89 16.8541 16.9774 16.9143 16.9774 16.9874Z" fill="#DA840D"/>
<path d="M18.9081 17.6198C18.9126 17.6569 18.9052 17.6944 18.8867 17.7273C18.8681 17.7603 18.8395 17.7871 18.8044 17.8044C18.7694 17.8216 18.7297 17.8283 18.6905 17.8237C18.6513 17.8191 18.6145 17.8033 18.585 17.7785C18.5555 17.7537 18.5347 17.721 18.5253 17.6848C18.516 17.6486 18.5185 17.6105 18.5325 17.5756C18.5465 17.5407 18.5715 17.5107 18.604 17.4896C18.6365 17.4684 18.675 17.457 18.7145 17.457C18.763 17.4544 18.8106 17.4701 18.8469 17.5006C18.8832 17.5312 18.9052 17.574 18.9081 17.6198Z" fill="#DA840D"/>
<path d="M18.9816 18.6026C18.9816 18.6781 18.8892 18.7394 18.7743 18.7394C18.6594 18.7394 18.567 18.6781 18.567 18.6026C18.567 18.5271 18.6594 18.4657 18.7743 18.4657C18.8892 18.4657 18.9816 18.5271 18.9816 18.6026Z" fill="#DA840D"/>
<path d="M18.1549 17.1385C18.1527 17.1657 18.1422 17.1917 18.1246 17.2134C18.107 17.235 18.0831 17.2514 18.0558 17.2604C18.0285 17.2694 17.9991 17.2707 17.971 17.2642C17.943 17.2576 17.9176 17.2435 17.8979 17.2235C17.8782 17.2035 17.8651 17.1785 17.8603 17.1516C17.8554 17.1247 17.8589 17.097 17.8704 17.072C17.8819 17.0469 17.9009 17.0256 17.925 17.0106C17.9492 16.9956 17.9774 16.9876 18.0063 16.9875C18.0266 16.9881 18.0465 16.9925 18.065 17.0004C18.0835 17.0084 18.1001 17.0197 18.1139 17.0337C18.1277 17.0478 18.1385 17.0643 18.1455 17.0822C18.1525 17.1002 18.1557 17.1193 18.1549 17.1385Z" fill="#DA840D"/>
<path d="M20.3056 17.4263C20.3056 17.5018 20.2156 17.5619 20.1045 17.5619C19.9934 17.5619 19.9034 17.5018 19.9034 17.4263C19.9034 17.3508 19.9934 17.2894 20.1045 17.2894C20.2156 17.2894 20.3056 17.3508 20.3056 17.4263Z" fill="#DA840D"/>
<path d="M20.3056 18.133C20.3056 18.1779 20.2156 18.2144 20.1045 18.2144C19.9934 18.2144 19.9034 18.1779 19.9034 18.133C19.9034 18.0882 19.9934 18.0516 20.1045 18.0516C20.2156 18.0516 20.3056 18.0882 20.3056 18.133Z" fill="#DA840D"/>
<path d="M21.6653 17.6729C21.6653 17.7342 21.5829 17.7826 21.483 17.7826C21.3831 17.7826 21.3006 17.7342 21.3006 17.6729C21.3006 17.6115 21.3831 17.562 21.483 17.562C21.5829 17.562 21.6653 17.6115 21.6653 17.6729Z" fill="#DA840D"/>
<path d="M21.4479 18.4611C21.4569 18.4981 21.4536 18.5368 21.4384 18.5719C21.4231 18.607 21.3967 18.6367 21.3627 18.657C21.3288 18.6773 21.289 18.687 21.2489 18.685C21.2088 18.6829 21.1703 18.6692 21.1389 18.6456C21.1074 18.622 21.0846 18.5897 21.0734 18.5532C21.0622 18.5168 21.0633 18.478 21.0766 18.4421C21.0898 18.4063 21.1145 18.3753 21.1472 18.3533C21.18 18.3313 21.2191 18.3195 21.2593 18.3195C21.3041 18.3152 21.3489 18.3276 21.3841 18.354C21.4194 18.3805 21.4422 18.4189 21.4479 18.4611Z" fill="#DA840D"/>
<path d="M22.9615 18.2321C22.9538 18.267 22.9357 18.2991 22.9094 18.3247C22.8831 18.3503 22.8497 18.3683 22.8131 18.3767C22.7764 18.3851 22.738 18.3835 22.7022 18.3721C22.6665 18.3607 22.6349 18.34 22.611 18.3123C22.5872 18.2847 22.5722 18.2512 22.5677 18.2158C22.5632 18.1805 22.5693 18.1446 22.5855 18.1124C22.6016 18.0802 22.6271 18.0529 22.659 18.0338C22.6908 18.0147 22.7278 18.0046 22.7655 18.0045C22.8232 18.0107 22.876 18.038 22.9126 18.0806C22.9492 18.1231 22.9668 18.1775 22.9615 18.2321Z" fill="#DA840D"/>
<path d="M22.8517 17.2057C22.8517 17.2517 22.7892 17.2895 22.7106 17.2895C22.6319 17.2895 22.5694 17.2517 22.5694 17.2057C22.5694 17.1597 22.6319 17.1208 22.7106 17.1208C22.7892 17.1208 22.8517 17.1585 22.8517 17.2057Z" fill="#DA840D"/>
<path d="M24.0515 17.4523C24.0515 17.6352 23.9654 17.7826 23.8592 17.7826C23.7531 17.7826 23.6682 17.6352 23.6682 17.4523C23.6682 17.2694 23.7543 17.1208 23.8592 17.1208C23.9641 17.1208 24.0515 17.2694 24.0515 17.4523Z" fill="#DA840D"/>
<path d="M24.531 17.1173C24.5305 17.1344 24.5247 17.1511 24.5142 17.1651C24.5038 17.1792 24.4892 17.19 24.4723 17.1962C24.4553 17.2025 24.4368 17.2039 24.4191 17.2003C24.4013 17.1966 24.3851 17.1881 24.3724 17.1758C24.3597 17.1635 24.3512 17.148 24.3478 17.1311C24.3445 17.1142 24.3464 17.0968 24.3535 17.081C24.3605 17.0652 24.3724 17.0517 24.3875 17.0422C24.4027 17.0327 24.4204 17.0276 24.4386 17.0276C24.4509 17.0278 24.463 17.0302 24.4743 17.0348C24.4856 17.0394 24.4959 17.046 24.5045 17.0544C24.513 17.0627 24.5198 17.0725 24.5244 17.0833C24.5289 17.0941 24.5312 17.1057 24.531 17.1173Z" fill="#DA840D"/>
<path d="M21.3817 16.834C21.3817 16.9189 21.2656 16.9874 21.122 16.9874C20.9784 16.9874 20.8622 16.9189 20.8622 16.834C20.8622 16.749 20.9784 16.6794 21.1232 16.6794C21.2681 16.6794 21.3817 16.749 21.3817 16.834Z" fill="#DA840D"/>
<path d="M16.4917 16.0391C16.4917 16.091 16.4005 16.1335 16.2881 16.1335C16.1757 16.1335 16.0833 16.091 16.0833 16.0391C16.0833 15.9872 16.1745 15.9447 16.2881 15.9447C16.4018 15.9447 16.4917 15.9872 16.4917 16.0391Z" fill="#DA840D"/>
<path d="M17.6856 15.8502C17.6856 15.9021 17.582 15.9446 17.4533 15.9446C17.3247 15.9446 17.2223 15.9021 17.2223 15.8502C17.2223 15.7983 17.326 15.7558 17.4533 15.7558C17.5807 15.7558 17.6856 15.7983 17.6856 15.8502Z" fill="#DA840D"/>
<path d="M19.1939 16.0814C19.1939 16.1569 19.054 16.2183 18.8805 16.2183C18.7069 16.2183 18.567 16.1569 18.567 16.0814C18.567 16.0059 18.7069 15.9493 18.8805 15.9493C19.054 15.9493 19.1939 16.0059 19.1939 16.0814Z" fill="#DA840D"/>
<path d="M20.3053 15.85C20.3056 15.869 20.2998 15.8876 20.2889 15.9034C20.2779 15.9193 20.2622 15.9317 20.2438 15.9392C20.2253 15.9466 20.2049 15.9486 20.1852 15.9451C20.1655 15.9415 20.1474 15.9325 20.1331 15.9192C20.1188 15.9059 20.1091 15.8889 20.1051 15.8703C20.1011 15.8517 20.103 15.8325 20.1106 15.8149C20.1182 15.7974 20.1312 15.7824 20.1478 15.7718C20.1645 15.7613 20.1841 15.7557 20.2042 15.7557C20.2174 15.7555 20.2305 15.7578 20.2428 15.7625C20.255 15.7672 20.2662 15.7741 20.2756 15.7829C20.285 15.7917 20.2925 15.8021 20.2976 15.8136C20.3027 15.8252 20.3053 15.8375 20.3053 15.85Z" fill="#DA840D"/>
<path d="M20.1042 16.5958C20.1042 16.643 20.0093 16.6796 19.8906 16.6796C19.772 16.6796 19.6771 16.643 19.6771 16.5958C19.6771 16.5486 19.7732 16.5121 19.8906 16.5121C20.008 16.5121 20.1042 16.5498 20.1042 16.5958Z" fill="#DA840D"/>
<path d="M21.7738 15.8076C21.7743 15.835 21.7662 15.8619 21.7504 15.8849C21.7347 15.9079 21.712 15.926 21.6854 15.9368C21.6587 15.9476 21.6293 15.9507 21.6008 15.9456C21.5723 15.9405 21.546 15.9276 21.5253 15.9084C21.5046 15.8892 21.4905 15.8646 21.4846 15.8378C21.4788 15.8109 21.4815 15.783 21.4925 15.7577C21.5035 15.7323 21.5222 15.7106 21.5463 15.6953C21.5704 15.6801 21.5987 15.6719 21.6277 15.6719C21.6467 15.6718 21.6656 15.6751 21.6832 15.6819C21.7009 15.6886 21.7169 15.6986 21.7305 15.7112C21.7441 15.7238 21.7549 15.7388 21.7623 15.7553C21.7697 15.7718 21.7736 15.7896 21.7738 15.8076Z" fill="#DA840D"/>
<path d="M22.5693 16.3644C22.5693 16.388 22.4943 16.4069 22.4032 16.4069C22.312 16.4069 22.2383 16.388 22.2383 16.3644C22.2383 16.3408 22.312 16.3232 22.4032 16.3232C22.4943 16.3232 22.5693 16.342 22.5693 16.3644Z" fill="#DA840D"/>
<path d="M23.0874 16.0862C23.0905 16.0986 23.0895 16.1116 23.0844 16.1234C23.0794 16.1352 23.0706 16.1452 23.0592 16.1521C23.0479 16.1589 23.0346 16.1623 23.0211 16.1617C23.0077 16.1611 22.9948 16.1565 22.9842 16.1487C22.9736 16.1408 22.9658 16.1301 22.962 16.1179C22.9582 16.1057 22.9584 16.0926 22.9628 16.0806C22.9671 16.0686 22.9753 16.0581 22.9862 16.0507C22.9972 16.0432 23.0103 16.0392 23.0237 16.0391C23.0387 16.0377 23.0537 16.0418 23.0656 16.0506C23.0774 16.0594 23.0852 16.0722 23.0874 16.0862Z" fill="#DA840D"/>
<path d="M22.5693 16.3646C22.5711 16.3831 22.5689 16.4017 22.5627 16.4193C22.5564 16.4369 22.5464 16.4531 22.5332 16.4668C22.5199 16.4806 22.5038 16.4915 22.4859 16.499C22.4679 16.5066 22.4485 16.5104 22.4288 16.5104C22.4092 16.5104 22.3897 16.5066 22.3717 16.499C22.3538 16.4915 22.3377 16.4806 22.3244 16.4668C22.3112 16.4531 22.3012 16.4369 22.2949 16.4193C22.2887 16.4017 22.2865 16.3831 22.2883 16.3646C22.2865 16.3461 22.2887 16.3275 22.2949 16.3099C22.3012 16.2923 22.3112 16.2761 22.3244 16.2623C22.3377 16.2486 22.3538 16.2376 22.3717 16.2301C22.3897 16.2226 22.4092 16.2188 22.4288 16.2188C22.4485 16.2188 22.4679 16.2226 22.4859 16.2301C22.5038 16.2376 22.5199 16.2486 22.5332 16.2623C22.5464 16.2761 22.5564 16.2923 22.5627 16.3099C22.5689 16.3275 22.5711 16.3461 22.5693 16.3646Z" fill="#DA840D"/>
<path d="M23.3699 16.1287C23.3699 16.1783 23.2938 16.2184 23.1976 16.2184C23.1015 16.2184 23.024 16.1783 23.024 16.1287C23.024 16.0792 23.1015 16.0391 23.1976 16.0391C23.2938 16.0391 23.3699 16.0792 23.3699 16.1287Z" fill="#DA840D"/>
<path d="M27.4344 16.1135C27.4344 17.0431 26.1607 17.9327 24.2313 18.4848C22.8187 18.8721 21.3541 19.064 19.8831 19.0546C18.3509 19.0546 17.0921 18.6736 15.8209 18.5827C13.7005 18.427 12.3069 16.9664 12.3069 16.0085C12.3069 14.4842 15.7597 13.531 19.8831 13.531C24.0066 13.531 27.4344 14.5892 27.4344 16.1135Z" fill="#E3AC8A"/>
<path d="M27.3395 15.9116C27.3395 17.4358 23.9953 18.671 19.8706 18.671C15.746 18.671 12.403 17.4358 12.403 15.9116C12.403 14.3873 15.7422 13.1521 19.8706 13.1521C23.9991 13.1521 27.3395 14.3873 27.3395 15.9116Z" fill="#DA840D"/>
<path d="M25.3042 15.6508C25.3042 16.781 22.8229 17.6977 19.7634 17.6977C16.7039 17.6977 14.2226 16.781 14.2226 15.6508C14.2226 14.5206 16.7027 13.6027 19.7634 13.6027C22.8241 13.6027 25.3042 14.5194 25.3042 15.6508Z" fill="#F0A508"/>
<path d="M16.0332 16.4059C16.0332 16.5239 15.8921 16.6266 15.7185 16.6266C15.5449 16.6266 15.4038 16.5275 15.4038 16.4059C15.4038 16.2844 15.5449 16.1853 15.7185 16.1853C15.8921 16.1853 16.0332 16.2832 16.0332 16.4059Z" fill="#DA840D"/>
<path d="M15.404 15.4775C15.4025 15.5101 15.391 15.5415 15.3707 15.5679C15.3505 15.5944 15.3225 15.6146 15.2903 15.6261C15.258 15.6376 15.2228 15.6399 15.1892 15.6327C15.1555 15.6255 15.1249 15.6091 15.101 15.5856C15.0771 15.5621 15.0611 15.5325 15.0549 15.5004C15.0487 15.4683 15.0526 15.4353 15.0661 15.4053C15.0796 15.3753 15.1021 15.3497 15.1309 15.3317C15.1597 15.3137 15.1934 15.3041 15.2279 15.3041C15.2515 15.3046 15.2748 15.3094 15.2964 15.3184C15.3181 15.3273 15.3376 15.3403 15.354 15.3564C15.3703 15.3725 15.3832 15.3915 15.3917 15.4122C15.4003 15.433 15.4045 15.4552 15.404 15.4775Z" fill="#DA840D"/>
<path d="M17.5944 16.6737C17.5982 16.7308 17.5837 16.7876 17.5528 16.8368C17.522 16.886 17.4762 16.9254 17.4214 16.9497C17.3666 16.9741 17.3054 16.9823 17.2456 16.9734C17.1858 16.9644 17.1302 16.9387 17.086 16.8996C17.0419 16.8605 17.0112 16.8097 16.9979 16.7539C16.9847 16.6981 16.9895 16.6398 17.0117 16.5866C17.0339 16.5334 17.0725 16.4877 17.1225 16.4555C17.1726 16.4233 17.2317 16.406 17.2922 16.4059C17.3698 16.4036 17.4452 16.4306 17.5019 16.4808C17.5585 16.531 17.5918 16.6003 17.5944 16.6737Z" fill="#DA840D"/>
<path d="M16.9324 15.6107C16.9324 15.6839 16.8462 15.7441 16.74 15.7441C16.6339 15.7441 16.549 15.6839 16.549 15.6107C16.549 15.5376 16.6351 15.4774 16.7413 15.4774C16.8474 15.4774 16.9324 15.5364 16.9324 15.6107Z" fill="#DA840D"/>
<path d="M18.8643 16.2429C18.8686 16.2797 18.8609 16.3168 18.8424 16.3495C18.8238 16.3821 18.7953 16.4086 18.7604 16.4255C18.7255 16.4425 18.6861 16.449 18.6472 16.4443C18.6083 16.4396 18.5719 16.4238 18.5427 16.3991C18.5135 16.3744 18.493 16.3419 18.4837 16.3059C18.4745 16.2699 18.4771 16.2321 18.4911 16.1976C18.5051 16.163 18.5299 16.1332 18.5622 16.1123C18.5945 16.0913 18.6328 16.08 18.672 16.0801C18.7202 16.0778 18.7675 16.0936 18.8035 16.1241C18.8395 16.1546 18.8614 16.1973 18.8643 16.2429Z" fill="#DA840D"/>
<path d="M18.9365 17.2245C18.9365 17.3 18.8441 17.3613 18.7293 17.3613C18.6144 17.3613 18.522 17.3 18.522 17.2245C18.522 17.149 18.6144 17.0888 18.7293 17.0888C18.8441 17.0888 18.9365 17.1501 18.9365 17.2245Z" fill="#DA840D"/>
<path d="M18.1149 15.7606C18.1129 15.7879 18.1026 15.814 18.0851 15.8358C18.0677 15.8577 18.0438 15.8742 18.0166 15.8834C17.9893 15.8926 17.9598 15.894 17.9316 15.8876C17.9035 15.8812 17.878 15.8671 17.8582 15.8471C17.8384 15.8272 17.8252 15.8022 17.8202 15.7752C17.8152 15.7483 17.8187 15.7206 17.8302 15.6955C17.8417 15.6704 17.8607 15.649 17.8848 15.6339C17.909 15.6189 17.9373 15.6108 17.9663 15.6107C17.9864 15.6114 18.0063 15.6157 18.0247 15.6236C18.0431 15.6314 18.0596 15.6427 18.0734 15.6566C18.0872 15.6705 18.098 15.6868 18.1051 15.7047C18.1122 15.7225 18.1155 15.7415 18.1149 15.7606Z" fill="#DA840D"/>
<path d="M20.2605 16.0484C20.2605 16.1239 20.1706 16.1853 20.0594 16.1853C19.9483 16.1853 19.8634 16.1239 19.8634 16.0484C19.8634 15.9729 19.9533 15.9115 20.0644 15.9115C20.1755 15.9115 20.2605 15.9729 20.2605 16.0484Z" fill="#DA840D"/>
<path d="M20.2605 16.755C20.2605 16.7998 20.1706 16.8364 20.0594 16.8364C19.9483 16.8364 19.8634 16.7998 19.8634 16.755C19.8634 16.7102 19.9533 16.6736 20.0644 16.6736C20.1755 16.6736 20.2605 16.7102 20.2605 16.755Z" fill="#DA840D"/>
<path d="M21.6202 16.295C21.6202 16.3564 21.5378 16.4059 21.4379 16.4059C21.338 16.4059 21.2556 16.3564 21.2556 16.295C21.2556 16.2337 21.338 16.1853 21.4379 16.1853C21.5378 16.1853 21.6202 16.2349 21.6202 16.295Z" fill="#DA840D"/>
<path d="M21.4031 17.083C21.3924 17.1221 21.3681 17.1568 21.3342 17.1816C21.3003 17.2063 21.2587 17.2198 21.2158 17.2198C21.173 17.2198 21.1314 17.2063 21.0975 17.1816C21.0636 17.1568 21.0393 17.1221 21.0285 17.083C21.0393 17.0438 21.0636 17.0091 21.0975 16.9844C21.1314 16.9596 21.173 16.9462 21.2158 16.9462C21.2587 16.9462 21.3003 16.9596 21.3342 16.9844C21.3681 17.0091 21.3924 17.0438 21.4031 17.083Z" fill="#DA840D"/>
<path d="M22.9165 16.8554C22.9222 16.8827 22.9214 16.9109 22.9142 16.938C22.907 16.965 22.8935 16.9902 22.8748 17.0117C22.856 17.0332 22.8325 17.0506 22.8058 17.0625C22.7791 17.0744 22.75 17.0805 22.7205 17.0805C22.691 17.0805 22.6618 17.0744 22.6352 17.0625C22.6085 17.0506 22.5849 17.0332 22.5662 17.0117C22.5474 16.9902 22.534 16.965 22.5267 16.938C22.5195 16.9109 22.5187 16.8827 22.5244 16.8554C22.5177 16.8276 22.5178 16.7987 22.5245 16.7709C22.5312 16.7431 22.5445 16.7171 22.5634 16.6948C22.5822 16.6725 22.6061 16.6545 22.6333 16.6422C22.6605 16.6298 22.6903 16.6234 22.7205 16.6234C22.7507 16.6234 22.7805 16.6298 22.8077 16.6422C22.8349 16.6545 22.8588 16.6725 22.8776 16.6948C22.8964 16.7171 22.9097 16.7431 22.9165 16.7709C22.9232 16.7987 22.9232 16.8276 22.9165 16.8554Z" fill="#DA840D"/>
<path d="M22.8066 15.8313C22.8066 15.8773 22.7442 15.9151 22.6655 15.9151C22.5868 15.9151 22.5244 15.8773 22.5244 15.8313C22.5244 15.7853 22.5868 15.7475 22.6655 15.7475C22.7442 15.7475 22.8066 15.7817 22.8066 15.8313Z" fill="#DA840D"/>
<path d="M24.0068 16.0745C24.0068 16.2574 23.9206 16.406 23.8145 16.406C23.7083 16.406 23.6234 16.2574 23.6234 16.0745C23.6234 15.8916 23.7083 15.7442 23.8145 15.7442C23.9206 15.7442 24.0068 15.8916 24.0068 16.0745Z" fill="#DA840D"/>
<path d="M24.4838 15.7394C24.4835 15.7567 24.4779 15.7734 24.4676 15.7876C24.4573 15.8018 24.4428 15.8128 24.4259 15.8192C24.409 15.8257 24.3904 15.8272 24.3726 15.8237C24.3547 15.8202 24.3384 15.8118 24.3256 15.7996C24.3128 15.7873 24.3041 15.7718 24.3006 15.7549C24.2972 15.738 24.2991 15.7205 24.3061 15.7046C24.3131 15.6887 24.325 15.6751 24.3401 15.6656C24.3553 15.656 24.3731 15.651 24.3914 15.651C24.416 15.6513 24.4395 15.6607 24.4568 15.6773C24.4741 15.6938 24.4838 15.7162 24.4838 15.7394Z" fill="#DA840D"/>
<path d="M21.3368 15.4562C21.3368 15.5411 21.2207 15.6107 21.0758 15.6107C20.931 15.6107 20.8161 15.5411 20.8161 15.4562C20.8161 15.3712 20.9322 15.3028 21.0758 15.3028C21.2194 15.3028 21.3368 15.3712 21.3368 15.4562Z" fill="#DA840D"/>
<path d="M16.4416 14.6622C16.4416 14.7142 16.3505 14.7566 16.2368 14.7566C16.1232 14.7566 16.0333 14.7142 16.0333 14.6622C16.0333 14.6103 16.1245 14.5667 16.2368 14.5667C16.3492 14.5667 16.4416 14.6092 16.4416 14.6622Z" fill="#DA840D"/>
<path d="M17.6404 14.4722C17.6404 14.5253 17.5368 14.5666 17.4082 14.5666C17.2795 14.5666 17.1759 14.5253 17.1759 14.4722C17.1759 14.4191 17.2808 14.3778 17.4082 14.3778C17.5355 14.3778 17.6404 14.4155 17.6404 14.4722Z" fill="#DA840D"/>
<path d="M19.1488 14.7035C19.1488 14.779 19.009 14.8404 18.8354 14.8404C18.6618 14.8404 18.522 14.779 18.522 14.7035C18.522 14.628 18.6618 14.5667 18.8354 14.5667C19.009 14.5667 19.1488 14.628 19.1488 14.7035Z" fill="#DA840D"/>
<path d="M20.2603 14.4722C20.2605 14.4912 20.2548 14.5098 20.2438 14.5256C20.2329 14.5415 20.2172 14.5539 20.1987 14.5614C20.1802 14.5688 20.1599 14.5708 20.1402 14.5673C20.1205 14.5637 20.1023 14.5547 20.088 14.5414C20.0738 14.5281 20.064 14.5111 20.06 14.4925C20.056 14.4739 20.0579 14.4546 20.0655 14.4371C20.0732 14.4196 20.0861 14.4046 20.1028 14.394C20.1194 14.3835 20.1391 14.3778 20.1591 14.3778C20.1723 14.3777 20.1855 14.38 20.1977 14.3847C20.21 14.3894 20.2212 14.3963 20.2306 14.4051C20.24 14.4138 20.2474 14.4243 20.2525 14.4358C20.2576 14.4474 20.2603 14.4597 20.2603 14.4722Z" fill="#DA840D"/>
<path d="M20.0594 15.2189C20.0594 15.2649 19.9633 15.3027 19.8459 15.3027C19.7285 15.3027 19.6323 15.2649 19.6323 15.2189C19.6323 15.1729 19.7285 15.134 19.8459 15.134C19.9633 15.134 20.0594 15.1717 20.0594 15.2189Z" fill="#DA840D"/>
<path d="M21.7277 14.431C21.7284 14.4582 21.7206 14.485 21.7051 14.508C21.6897 14.531 21.6673 14.5491 21.6409 14.56C21.6145 14.5709 21.5853 14.5741 21.5569 14.5692C21.5286 14.5643 21.5024 14.5516 21.4818 14.5326C21.4612 14.5136 21.447 14.4892 21.4411 14.4626C21.4352 14.436 21.4378 14.4083 21.4487 14.3831C21.4595 14.3578 21.4781 14.3363 21.502 14.3211C21.5259 14.3059 21.554 14.2977 21.5828 14.2977C21.6207 14.2974 21.6572 14.3112 21.6843 14.3362C21.7115 14.3612 21.727 14.3953 21.7277 14.431Z" fill="#DA840D"/>
<path d="M22.5244 14.9878C22.5244 15.0102 22.4495 15.0291 22.3583 15.0291C22.2671 15.0291 22.1922 15.0102 22.1922 14.9878C22.1922 14.9654 22.2671 14.9453 22.3583 14.9453C22.4495 14.9453 22.5244 14.9642 22.5244 14.9878Z" fill="#DA840D"/>
<path d="M23.0427 14.7093C23.0458 14.7217 23.0447 14.7347 23.0397 14.7465C23.0346 14.7583 23.0258 14.7683 23.0145 14.7752C23.0032 14.782 22.9898 14.7854 22.9764 14.7848C22.9629 14.7842 22.95 14.7796 22.9394 14.7718C22.9288 14.7639 22.9211 14.7531 22.9172 14.741C22.9134 14.7288 22.9137 14.7157 22.918 14.7037C22.9224 14.6917 22.9306 14.6812 22.9415 14.6737C22.9524 14.6663 22.9655 14.6622 22.979 14.6621C22.994 14.6608 23.009 14.6649 23.0208 14.6737C23.0327 14.6825 23.0405 14.6953 23.0427 14.7093Z" fill="#DA840D"/>
<path d="M22.5245 14.9878C22.5216 15.0134 22.5109 15.0377 22.4938 15.0577C22.4766 15.0777 22.4537 15.0925 22.4278 15.1005C22.4019 15.1084 22.3741 15.1091 22.3478 15.1025C22.3215 15.0959 22.2978 15.0822 22.2795 15.0631C22.2612 15.044 22.2492 15.0203 22.2449 14.9949C22.2405 14.9695 22.2441 14.9435 22.2551 14.9199C22.266 14.8964 22.284 14.8763 22.3068 14.8622C22.3295 14.8481 22.3561 14.8405 22.3834 14.8404C22.4029 14.8413 22.422 14.8458 22.4397 14.8537C22.4574 14.8616 22.4732 14.8728 22.4863 14.8865C22.4994 14.9002 22.5095 14.9162 22.5161 14.9336C22.5226 14.951 22.5255 14.9694 22.5245 14.9878Z" fill="#DA840D"/>
<path d="M23.3249 14.7506C23.3249 14.8002 23.2475 14.8403 23.1526 14.8403C23.0576 14.8403 22.979 14.8002 22.979 14.7506C22.979 14.7011 23.0564 14.6622 23.1526 14.6622C23.2487 14.6622 23.3249 14.7011 23.3249 14.7506Z" fill="#DA840D"/>
<path d="M21.0045 22.1231C20.9762 22.0212 20.9103 21.9322 20.8188 21.8721C20.7272 21.8119 20.6159 21.7847 20.505 21.7951C19.7557 21.8459 19.6933 23.0315 19.9568 23.5494C20.0352 23.6068 20.1339 23.6335 20.2325 23.6243C20.3312 23.6151 20.4224 23.5706 20.4875 23.4999C20.7272 23.2462 20.8034 22.8793 20.8883 22.5561C20.93 22.4129 20.9687 22.2686 21.0045 22.1231Z" fill="#EEBE30"/>
<path d="M26.5665 15.9623C26.306 15.8672 26.0657 15.7285 25.8572 15.5529C25.608 15.3246 25.3784 15.0781 25.1704 14.8155C24.8594 14.4545 24.4074 14.313 23.9329 14.2599C23.4046 14.1997 22.8589 14.3106 22.3269 14.2846C22.0417 14.2773 21.7621 14.2074 21.5103 14.0806C21.2605 13.9461 21.0644 13.7266 20.8509 13.5367C20.4326 13.1827 19.9018 13.1827 19.3736 13.1025C19.0237 13.0442 18.6698 13.0099 18.3147 12.9999C17.9513 12.9916 17.3157 12.9869 17.0721 13.3137C16.8024 13.4317 16.7075 13.7455 16.6463 14.0098C16.6118 14.2278 16.5571 14.4426 16.4827 14.6516C16.3718 14.8892 16.2001 15.0972 15.9832 15.2568C15.5074 15.6308 14.9193 15.8313 14.3811 16.0921C13.944 16.3032 13.4083 16.6029 13.1735 17.0264C13.0324 17.2801 13.0486 17.7142 13.2984 17.9018C13.6068 18.126 13.8416 17.7036 13.9078 17.4901C13.969 17.2966 13.9914 17.0996 14.1575 16.9545C14.3813 16.771 14.6472 16.6393 14.9343 16.5699C15.1753 16.5062 15.4338 16.5062 15.671 16.4365C15.9558 16.3353 16.2237 16.1958 16.4665 16.0224C16.7512 15.8431 17.0284 15.6685 17.3669 15.5907C17.6478 15.5293 18.0824 15.5387 18.3034 15.7417C18.4247 15.8804 18.529 16.0316 18.6144 16.1923C18.7283 16.3423 18.8792 16.4638 19.0539 16.5463C19.4061 16.7362 19.8094 16.82 20.1778 16.9922C20.301 17.0527 20.4072 17.1401 20.4875 17.247C20.5 17.2647 20.5112 17.2824 20.5225 17.3013C20.5315 17.3147 20.5399 17.3285 20.5475 17.3426C20.9496 18.0434 20.4438 18.7855 20.4575 19.5252C20.4575 19.9239 20.7635 20.5763 21.2805 20.2566C21.3154 20.2354 21.3479 20.2118 21.3804 20.1882C21.4391 19.6715 21.4865 19.1418 21.6763 18.6545C21.8549 18.2015 22.0984 17.7827 22.0722 17.2836C22.0572 17.0087 21.9186 16.7563 21.8849 16.4849C21.8374 16.1074 22.1971 15.9363 22.5205 15.862C22.982 15.746 23.4711 15.7775 23.9116 15.9517C24.7408 16.2737 25.4101 16.9379 26.3317 17.0477C26.6964 17.0913 27.2246 17.037 27.3695 16.6607C27.5143 16.2844 26.8262 16.0673 26.5665 15.9623Z" fill="#EEBE30"/>
<path opacity="0.5" d="M21.4928 16.4544C21.455 16.3272 21.3851 16.2106 21.2892 16.1144C21.1933 16.0183 21.0742 15.9455 20.9421 15.9022C20.7523 15.8551 20.4526 15.9742 20.4763 16.1913C20.4766 16.1956 20.4779 16.1999 20.4801 16.2037C20.4822 16.2076 20.4852 16.211 20.4888 16.2137C20.3639 16.465 20.726 16.898 20.8509 17.082C20.9424 17.1998 21 17.338 21.0183 17.4831C21.0395 17.6707 20.9758 17.8559 20.9945 18.0412C21.002 18.1237 21.0682 18.4765 21.2443 18.3349C21.4453 18.1745 21.4666 17.8111 21.5078 17.5822C21.5908 17.2098 21.5857 16.8247 21.4928 16.4544Z" fill="white"/>
<path opacity="0.5" d="M25.1244 15.2331C24.9202 14.9131 24.5947 14.6786 24.2141 14.5772C23.8294 14.4722 22.9066 14.3589 22.8092 14.891C22.8084 14.9017 22.8112 14.9124 22.8173 14.9216C22.8233 14.9307 22.8323 14.9377 22.8429 14.9417C22.8675 14.9587 22.8894 14.979 22.9079 15.0019C22.9131 15.0115 22.9214 15.0194 22.9316 15.0243C22.9417 15.0277 22.9527 15.0277 22.9628 15.0243C23.0341 15.086 23.1196 15.1313 23.2126 15.1564C23.4415 15.2043 23.6749 15.2304 23.9094 15.2343C24.234 15.2638 24.4151 15.3959 24.6411 15.6012C24.766 15.7192 25.1082 15.9669 25.2843 15.7794C25.4191 15.6472 25.1981 15.3417 25.1244 15.2331Z" fill="white"/>
<path opacity="0.5" d="M14.0265 16.7151C13.9718 16.7086 13.9164 16.7086 13.8616 16.7151C13.8619 16.7128 13.8615 16.7104 13.8606 16.7082C13.8598 16.7061 13.8584 16.7041 13.8566 16.7025C13.8548 16.7009 13.8526 16.6997 13.8502 16.699C13.8479 16.6984 13.8454 16.6982 13.8429 16.6986C13.7516 16.7123 13.665 16.7459 13.5898 16.7967C13.5146 16.8474 13.4529 16.914 13.4096 16.9912C13.3796 17.0501 13.3209 17.2566 13.4496 17.2672C13.5782 17.2778 13.6793 17.1492 13.7518 17.082C13.8567 16.9796 13.9559 16.8721 14.049 16.7599C14.0517 16.7557 14.0533 16.7509 14.0536 16.746C14.0539 16.7411 14.0529 16.7362 14.0507 16.7317C14.0484 16.7272 14.045 16.7234 14.0408 16.7205C14.0366 16.7176 14.0317 16.7157 14.0265 16.7151Z" fill="white"/>
<path opacity="0.5" d="M29.0891 23.5175C28.9785 23.4953 28.8642 23.4942 28.7531 23.5145C28.642 23.5347 28.5364 23.5758 28.4424 23.6353C28.3484 23.6948 28.268 23.7716 28.206 23.861C28.144 23.9504 28.1016 24.0506 28.0814 24.1558C28.0806 24.1596 28.0808 24.1634 28.0818 24.1672C28.0829 24.1709 28.0848 24.1743 28.0874 24.1773C28.0901 24.1802 28.0933 24.1826 28.097 24.1841C28.1008 24.1857 28.1048 24.1865 28.1089 24.1865C28.1094 24.1943 28.1094 24.2022 28.1089 24.21C28.0652 24.3941 27.8341 24.479 27.688 24.5569C27.5794 24.6135 27.467 24.6643 27.3546 24.7162C26.98 24.8955 26.3906 25.1267 26.2744 25.6022C26.2726 25.6073 26.2724 25.6129 26.274 25.6182C26.2755 25.6235 26.2787 25.6282 26.2832 25.6317C26.5079 25.778 26.7664 25.5597 26.9425 25.4228C27.2978 25.1568 27.7145 24.9737 28.1588 24.8884C28.6508 24.787 29.5687 24.8176 29.746 24.1806C29.8534 23.7853 29.3776 23.5659 29.0891 23.5175Z" fill="white"/>
<path d="M21.0408 14.3672C20.9971 14.3094 20.886 14.1855 20.811 14.1773C20.7686 14.1773 20.7523 14.097 20.7124 14.1088C20.6724 14.1206 20.6112 14.1501 20.5563 14.1088C20.5379 14.0926 20.5182 14.0776 20.4976 14.064C20.4861 14.0564 20.473 14.0513 20.4592 14.049C20.4454 14.0468 20.4312 14.0475 20.4177 14.051C20.3827 14.064 20.369 14.1135 20.3265 14.0817C20.2841 14.0498 20.1829 14.0982 20.1579 14.1454C20.1495 14.1583 20.1428 14.1722 20.138 14.1867C19.9893 14.2068 19.8395 14.4226 19.7833 14.5229C19.7308 14.6194 19.7062 14.7274 19.7121 14.8357C19.7181 14.9441 19.7542 15.0491 19.817 15.1399C19.9531 15.3594 20.2304 15.3889 20.4751 15.396C20.5716 15.4065 20.6693 15.3985 20.7623 15.3724C20.8484 15.3367 20.923 15.2801 20.9784 15.2084C21.2256 14.9205 21.2731 14.6704 21.0408 14.3672Z" fill="#48264C"/>
<path d="M21.0409 14.3673C20.9983 14.3106 20.9479 14.2594 20.8911 14.2151C20.8963 14.4101 20.8297 14.6007 20.7026 14.7543C20.5754 14.908 20.3958 15.0151 20.1943 15.0575C20.0522 15.087 19.9045 15.0825 19.7647 15.0445C19.7797 15.0787 19.7972 15.1118 19.8172 15.1436C19.9533 15.363 20.2305 15.3925 20.4753 15.3996C20.5717 15.4102 20.6694 15.4021 20.7625 15.376C20.8486 15.3403 20.9231 15.2838 20.9785 15.212C21.2258 14.9206 21.2732 14.6705 21.0409 14.3673Z" fill="#300D33"/>
<path d="M21.2605 26.1105C21.2203 26.0131 21.1556 25.9264 21.0719 25.8581C21.0582 25.7849 21.0407 25.7129 21.0245 25.6398C21.0232 25.6326 21.0202 25.6259 21.0158 25.62C21.0113 25.614 21.0055 25.6092 20.9988 25.6056C20.9921 25.6021 20.9846 25.6001 20.977 25.5997C20.9693 25.5993 20.9616 25.6005 20.9545 25.6032C20.8421 25.6528 20.8172 25.5891 20.7397 25.5313C20.7274 25.5241 20.7131 25.5202 20.6985 25.5202C20.684 25.5202 20.6697 25.5241 20.6573 25.5313C20.5325 25.6115 20.4001 25.4215 20.3027 25.5313C20.2457 25.6139 20.1827 25.6928 20.1141 25.7672C20.0331 25.8156 19.9584 25.8731 19.8918 25.9383C19.844 25.9785 19.802 26.0245 19.767 26.0751C19.7529 26.0965 19.7399 26.1185 19.7283 26.1412C19.7183 26.1624 19.7095 26.1848 19.702 26.2061C19.7015 26.2084 19.7015 26.2108 19.702 26.2132C19.6515 26.3673 19.6546 26.5327 19.7108 26.6851C19.8057 26.9576 20.1054 27.0543 20.3739 27.1169C20.4777 27.1506 20.5877 27.1643 20.6973 27.157C20.8021 27.1367 20.8994 27.0907 20.9795 27.0237C21.3242 26.7641 21.4391 26.4987 21.2605 26.1105Z" fill="#48264C"/>
<path d="M21.2607 26.1105C21.2287 26.0383 21.1867 25.9705 21.1358 25.9088C21.0917 26.1256 20.9692 26.3212 20.7892 26.4619C20.6092 26.6027 20.3829 26.6799 20.1493 26.6804C19.9839 26.6807 19.8212 26.6417 19.676 26.5671C19.6839 26.6071 19.6947 26.6465 19.7084 26.6851C19.8034 26.9576 20.1031 27.0543 20.3715 27.1169C20.4754 27.1506 20.5854 27.1643 20.695 27.157C20.7998 27.1367 20.8971 27.0907 20.9772 27.0237C21.3243 26.7641 21.4392 26.4987 21.2607 26.1105Z" fill="#300D33"/>
<path d="M19.0028 14.1619C18.9641 14.09 18.8642 13.9331 18.7818 13.9107C18.7393 13.9 18.7393 13.8257 18.6981 13.8186C18.6856 13.7124 18.6344 13.6016 18.5033 13.624C18.4733 13.624 18.3934 13.703 18.3622 13.6582C18.3469 13.6317 18.3221 13.6112 18.2923 13.6004C18.2311 13.578 18.1774 13.6287 18.1424 13.6676C18.0837 13.7325 18.0088 13.6369 17.9326 13.6676C17.8962 13.688 17.8664 13.7175 17.8468 13.7529C17.8272 13.7884 17.8184 13.8283 17.8215 13.8682C17.8215 13.8753 17.8215 13.88 17.8215 13.8871C17.7272 13.9546 17.6432 14.034 17.5717 14.123C17.4944 14.2213 17.4461 14.3371 17.4316 14.4588C17.4171 14.5804 17.437 14.7035 17.4893 14.8155C17.5992 15.0833 17.9039 15.1695 18.1749 15.2155C18.2771 15.2427 18.3839 15.2515 18.4896 15.2414C18.5926 15.2158 18.6868 15.1654 18.763 15.0951C19.1015 14.8108 19.2014 14.5406 19.0028 14.1619Z" fill="#48264C"/>
<path d="M19.0029 14.1618C18.9654 14.0914 18.9188 14.0256 18.8643 13.966C18.833 14.1857 18.7219 14.3882 18.5498 14.5389C18.3778 14.6896 18.1556 14.779 17.9214 14.7918C17.757 14.7999 17.5931 14.7691 17.4444 14.7022C17.4543 14.7423 17.4673 14.7817 17.4831 14.8201C17.593 15.0879 17.8977 15.1741 18.1687 15.2201C18.2733 15.2464 18.3822 15.2537 18.4896 15.2413C18.5926 15.2157 18.6868 15.1653 18.7631 15.095C19.1015 14.8107 19.2014 14.5405 19.0029 14.1618Z" fill="#300D33"/>
<path d="M23.8593 15.1152C23.8206 15.0244 23.7145 14.825 23.6196 14.792C23.5659 14.7743 23.5684 14.6669 23.5134 14.674C23.4385 14.6811 23.3673 14.7 23.3086 14.6327C23.29 14.6059 23.2696 14.5803 23.2474 14.556C23.2353 14.5422 23.22 14.5312 23.2027 14.5239C23.1854 14.5165 23.1665 14.513 23.1475 14.5135C23.0976 14.5218 23.0639 14.5855 23.0227 14.5289C22.964 14.4534 22.8303 14.51 22.7829 14.5666C22.7682 14.5818 22.7552 14.5985 22.7442 14.6162C22.5444 14.6009 22.2809 14.8521 22.1772 14.9701C22.0784 15.0871 22.0128 15.2259 21.9866 15.3735C21.9603 15.5211 21.9744 15.6726 22.0274 15.8137C22.1348 16.1499 22.4882 16.2714 22.8029 16.3528C22.9229 16.3934 23.0503 16.4106 23.1775 16.4035C23.302 16.3797 23.4173 16.3242 23.5109 16.2431C23.9305 15.9175 24.0704 15.5954 23.8593 15.1152Z" fill="#48264C"/>
<path d="M23.8592 15.1153C23.8214 15.0267 23.7719 14.9431 23.7119 14.8663C23.6632 15.1272 23.5194 15.3636 23.3054 15.5347C23.0914 15.7058 22.8208 15.8008 22.5405 15.8031C22.3463 15.8019 22.1557 15.7531 21.9873 15.6615C21.9957 15.7114 22.0078 15.7607 22.0235 15.809C22.1309 16.1452 22.4843 16.2667 22.799 16.3481C22.919 16.3887 23.0464 16.406 23.1736 16.3989C23.2982 16.375 23.4135 16.3196 23.5071 16.2384C23.9304 15.9175 24.0703 15.5954 23.8592 15.1153Z" fill="#300D33"/>
<path d="M23.6758 25.1018C23.6271 24.9968 23.4985 24.768 23.3848 24.7314C23.3199 24.7113 23.3199 24.5863 23.26 24.5934C23.1713 24.6028 23.0864 24.6252 23.0102 24.5485C22.9877 24.5172 22.9627 24.4876 22.9353 24.46C22.9196 24.4438 22.9002 24.4311 22.8786 24.423C22.8569 24.4148 22.8336 24.4113 22.8104 24.4128C22.7505 24.4223 22.7105 24.4954 22.6568 24.4317C22.5844 24.3444 22.4258 24.4117 22.3683 24.4766C22.3512 24.4949 22.3357 24.5147 22.3221 24.5355C22.0824 24.519 21.7689 24.814 21.6453 24.9461C21.5286 25.08 21.4514 25.2406 21.4216 25.4118C21.3918 25.5829 21.4104 25.7584 21.4755 25.9206C21.6091 26.3076 22.0349 26.4432 22.4133 26.5329C22.561 26.5805 22.7173 26.5994 22.8728 26.5883C23.0209 26.5602 23.1583 26.4955 23.2712 26.4008C23.7657 26.0256 23.9281 25.6504 23.6758 25.1018Z" fill="#48264C"/>
<path d="M23.6758 25.102C23.6295 24.9993 23.5691 24.9029 23.496 24.8153C23.4332 25.1221 23.2598 25.3988 23.0052 25.5982C22.7506 25.7977 22.4306 25.9075 22.0999 25.9089C21.867 25.9093 21.6377 25.8545 21.433 25.7497C21.443 25.8078 21.458 25.865 21.478 25.9207C21.6116 26.3077 22.0374 26.4434 22.4158 26.533C22.5634 26.5806 22.7198 26.5995 22.8753 26.5885C23.0234 26.5604 23.1608 26.4956 23.2737 26.4009C23.7657 26.0257 23.928 25.6506 23.6758 25.102Z" fill="#300D33"/>
<path d="M18.0288 24.2525C18.0288 24.2525 18.3622 24.1346 18.5557 24.551C18.7493 24.9675 18.8192 25.3769 19.0128 25.5715C19.066 25.6152 19.1079 25.6698 19.1354 25.7312C19.1629 25.7925 19.1752 25.8589 19.1714 25.9254C19.1714 25.9254 18.6257 25.6435 18.4858 25.4937C18.2783 25.2901 18.1006 25.0612 17.9576 24.8129C17.8002 24.5133 17.6891 24.2325 17.6891 24.2325L18.0288 24.2525Z" fill="#5F825C"/>
<path d="M17.8978 24.1793C17.8978 24.1793 17.9814 23.8525 17.5232 23.7191C17.0649 23.5858 16.624 23.5658 16.3993 23.4065C16.3466 23.3612 16.2837 23.3279 16.2152 23.3093C16.1468 23.2906 16.0747 23.2872 16.0047 23.2991C16.0047 23.2991 16.363 23.7793 16.5366 23.889C16.7748 24.0598 17.036 24.1998 17.3134 24.3055C17.6455 24.4235 17.954 24.4919 17.954 24.4919L17.8978 24.1793Z" fill="#5F825C"/>
<path d="M17.8327 24.3388C17.8327 24.3388 18.4484 24.7541 18.4309 25.3192C18.4134 25.8843 18.4134 26.1663 18.0563 26.4813C17.6991 26.7963 17.0198 26.8139 16.6676 26.9626C16.3155 27.1112 15.8946 27.2457 15.7935 27.3283C15.6923 27.4109 15.4776 27.4947 15.1616 27.3283C14.8457 27.162 14.6621 27.1797 14.7221 26.7137C14.8117 26.114 14.9648 25.5243 15.1791 24.9535C15.3539 24.5217 15.5088 24.189 16.0033 24.0568C16.4773 23.9417 16.9783 23.9765 17.4294 24.1559C17.7403 24.3058 17.8327 24.3388 17.8327 24.3388Z" fill="#ED6366"/>
<path d="M14.7957 26.2642C15.0751 26.3634 15.3713 26.4141 15.6698 26.414C16.8936 26.414 17.8851 25.6012 17.8851 24.5995C17.8854 24.517 17.8788 24.4345 17.8651 24.353C17.9975 24.4532 18.4408 24.8249 18.4258 25.3062C18.4083 25.8701 18.4083 26.1533 18.0512 26.4683C17.6941 26.7833 17.0147 26.801 16.6626 26.9496C16.3104 27.0983 15.8896 27.2328 15.7884 27.3154C15.6873 27.3979 15.4725 27.4817 15.1566 27.3154C14.8406 27.149 14.6571 27.1655 14.717 26.7007C14.7357 26.578 14.762 26.4282 14.7957 26.2642Z" fill="#C73A54"/>
<path d="M18.1064 25.5774C18.19 25.588 18.21 25.4523 18.2163 25.3532C18.2226 25.3284 18.2226 25.3025 18.2163 25.2777V25.2695C18.2163 25.26 18.2025 25.2577 18.2013 25.2695C18.1984 25.2697 18.1957 25.2706 18.1933 25.272C18.1909 25.2734 18.1889 25.2754 18.1875 25.2777C18.1726 25.3096 17.9902 25.5632 18.1064 25.5774Z" fill="#E7D8C8"/>
<path d="M17.9316 25.0654C17.9327 25.0669 17.9342 25.0681 17.936 25.0689C17.9377 25.0697 17.9396 25.0701 17.9416 25.0701C17.9435 25.0701 17.9454 25.0697 17.9472 25.0689C17.9489 25.0681 17.9504 25.0669 17.9516 25.0654C17.9761 25.0465 17.9959 25.0228 18.0097 24.9959C18.0235 24.969 18.031 24.9396 18.0315 24.9097C18.0382 24.8935 18.042 24.8763 18.0427 24.8589C18.043 24.8565 18.0425 24.854 18.0414 24.8517C18.0403 24.8494 18.0386 24.8475 18.0364 24.8461C18.0343 24.8446 18.0318 24.8438 18.0291 24.8435C18.0265 24.8433 18.0239 24.8437 18.0215 24.8448C18.0215 24.8448 18.0065 24.8448 18.0078 24.8448C17.972 24.8692 17.9453 24.9037 17.9316 24.9434C17.9179 24.983 17.9179 25.0258 17.9316 25.0654Z" fill="#E7D8C8"/>
<path d="M17.5706 24.7974C17.6431 24.8516 17.6768 24.7278 17.6955 24.6464C17.7062 24.6217 17.7137 24.596 17.718 24.5697C17.7183 24.5667 17.7176 24.5637 17.716 24.5611C17.7143 24.5585 17.7119 24.5565 17.709 24.5553C17.7061 24.5542 17.7028 24.5539 17.6997 24.5546C17.6966 24.5552 17.6938 24.5568 17.6918 24.5591C17.6568 24.598 17.4995 24.7478 17.5706 24.7974Z" fill="#E7D8C8"/>
<path d="M17.5243 25.3237C17.5253 25.3249 17.5267 25.3259 17.5282 25.3266C17.5297 25.3273 17.5313 25.3277 17.533 25.3277C17.5347 25.3277 17.5363 25.3273 17.5379 25.3266C17.5394 25.3259 17.5407 25.3249 17.5418 25.3237C17.5656 25.3018 17.5866 25.2772 17.6042 25.2506C17.6476 25.2045 17.6747 25.1468 17.6816 25.0854C17.6816 25.076 17.6716 25.0642 17.6604 25.0689L17.6379 25.083C17.558 25.1385 17.4631 25.2458 17.5243 25.3237Z" fill="#E7D8C8"/>
<path d="M17.6493 25.8512C17.6955 25.8784 17.7229 25.8159 17.7379 25.751C17.7584 25.7178 17.7703 25.6807 17.7729 25.6424C17.7731 25.6399 17.7727 25.6375 17.7716 25.6352C17.7705 25.6329 17.7688 25.631 17.7666 25.6295C17.7645 25.6281 17.762 25.6272 17.7593 25.627C17.7567 25.6268 17.7541 25.6272 17.7517 25.6283H17.7367C17.7367 25.6283 17.7367 25.6283 17.7367 25.6365C17.7038 25.6684 17.6779 25.7061 17.6605 25.7474C17.648 25.7746 17.6156 25.8335 17.6493 25.8512Z" fill="#E7D8C8"/>
<path d="M17.8852 26.1436C17.9352 26.1743 17.9876 26.1306 18.0101 26.0881C18.0225 26.0592 18.0317 26.0292 18.0376 25.9985C18.0525 25.9747 18.0614 25.9481 18.0638 25.9206C18.0668 25.9176 18.0685 25.9136 18.0685 25.9094C18.0685 25.9053 18.0668 25.9013 18.0638 25.8982V25.8899C18.0638 25.8805 18.0476 25.8711 18.0376 25.8793C17.9964 25.9076 17.8091 26.0952 17.8852 26.1436Z" fill="#E7D8C8"/>
<path d="M17.4007 26.3063C17.4432 26.3618 17.4844 26.3063 17.5131 26.2521C17.5307 26.2373 17.5447 26.2191 17.5542 26.1987C17.5637 26.1784 17.5684 26.1563 17.568 26.1341C17.568 26.132 17.5674 26.13 17.5663 26.1281C17.5653 26.1263 17.5638 26.1247 17.5619 26.1236C17.5601 26.1224 17.558 26.1217 17.5558 26.1215C17.5536 26.1212 17.5514 26.1215 17.5493 26.1223C17.4906 26.1435 17.3483 26.2379 17.4007 26.3063Z" fill="#E7D8C8"/>
<path d="M17.1659 25.6234C17.2021 25.582 17.2441 25.5455 17.2908 25.5148C17.2933 25.5129 17.2964 25.5118 17.2997 25.5115C17.3029 25.5113 17.3062 25.512 17.309 25.5135C17.3118 25.515 17.3141 25.5173 17.3155 25.5201C17.317 25.5229 17.3175 25.526 17.317 25.529C17.3157 25.5466 17.311 25.5637 17.3033 25.5797V25.5974C17.2969 25.6467 17.2752 25.6932 17.2408 25.7307C17.2146 25.7591 17.1534 25.7732 17.1284 25.7307C17.1035 25.6883 17.1434 25.6434 17.1659 25.6234Z" fill="#E7D8C8"/>
<path d="M17.0961 25.2071C17.1061 25.2436 17.1561 25.2401 17.1811 25.2212C17.1978 25.2069 17.2113 25.1897 17.221 25.1705C17.2442 25.1436 17.2582 25.1107 17.261 25.0761C17.2611 25.0735 17.2605 25.0709 17.2594 25.0685C17.2582 25.0661 17.2564 25.064 17.2542 25.0624C17.252 25.0608 17.2495 25.0597 17.2467 25.0592C17.244 25.0587 17.2412 25.0588 17.2385 25.0596C17.203 25.0728 17.1713 25.0938 17.1461 25.1209C17.1236 25.141 17.0862 25.174 17.0961 25.2071Z" fill="#E7D8C8"/>
<path d="M17.311 24.3258C17.3151 24.3246 17.3196 24.3249 17.3235 24.3266C17.3274 24.3284 17.3305 24.3314 17.3322 24.3352C17.3416 24.3704 17.34 24.4074 17.3276 24.4418C17.3152 24.4761 17.2925 24.5063 17.2623 24.5287C17.2599 24.5303 17.2572 24.5314 17.2543 24.5319C17.2515 24.5324 17.2485 24.5322 17.2457 24.5314C17.2429 24.5306 17.2404 24.5292 17.2383 24.5273C17.2361 24.5254 17.2345 24.523 17.2335 24.5205C17.2297 24.5122 17.2272 24.5034 17.2261 24.4945C17.2146 24.4615 17.2171 24.4255 17.2329 24.3941C17.2487 24.3627 17.2766 24.3383 17.311 24.3258Z" fill="#E7D8C8"/>
<path d="M16.88 24.9745C16.9174 25.004 16.9486 24.9745 16.9711 24.9273C16.9997 24.9005 17.0207 24.8673 17.0322 24.8308C17.0438 24.7944 17.0455 24.7558 17.0373 24.7185C17.0356 24.7152 17.0329 24.7125 17.0296 24.7106C17.0263 24.7087 17.0224 24.7078 17.0186 24.7079C16.9624 24.715 16.9149 24.7893 16.8937 24.8259C16.8725 24.8624 16.8325 24.9391 16.88 24.9745Z" fill="#E7D8C8"/>
<path d="M16.8662 24.2971C16.8735 24.2887 16.8814 24.2808 16.89 24.2735C16.8928 24.2717 16.896 24.2705 16.8994 24.2702C16.9029 24.2699 16.9063 24.2704 16.9094 24.2717C16.9126 24.273 16.9153 24.2751 16.9173 24.2777C16.9194 24.2803 16.9207 24.2833 16.9212 24.2865C16.9247 24.3138 16.9216 24.3415 16.9121 24.3674C16.9025 24.3934 16.8869 24.417 16.8662 24.4363C16.8665 24.4395 16.8665 24.4426 16.8662 24.4458C16.8624 24.453 16.8567 24.4592 16.8497 24.4638C16.8426 24.4683 16.8344 24.4711 16.8259 24.4718C16.8173 24.4725 16.8088 24.4712 16.801 24.4678C16.7932 24.4645 16.7864 24.4594 16.7813 24.4529C16.7276 24.4009 16.8038 24.3254 16.8662 24.2971Z" fill="#E7D8C8"/>
<path d="M16.4418 24.7292C16.4667 24.6802 16.5062 24.6393 16.5554 24.6112C16.5583 24.6092 16.5617 24.6081 16.5652 24.608C16.5687 24.6079 16.5722 24.6088 16.5751 24.6106C16.5781 24.6124 16.5804 24.615 16.5818 24.618C16.5832 24.6211 16.5836 24.6244 16.5829 24.6277C16.5814 24.6497 16.5759 24.6712 16.5667 24.6914C16.5667 24.6985 16.5667 24.7056 16.5667 24.7115C16.564 24.7376 16.5581 24.7633 16.5492 24.7881C16.5412 24.8122 16.5237 24.8324 16.5005 24.8448C16.4988 24.8477 16.4962 24.8502 16.4931 24.8519C16.4901 24.8536 16.4866 24.8545 16.483 24.8545C16.4794 24.8545 16.4759 24.8536 16.4729 24.8519C16.4698 24.8502 16.4672 24.8477 16.4655 24.8448C16.4168 24.82 16.4318 24.7587 16.4418 24.7292Z" fill="#E7D8C8"/>
<path d="M16.353 24.4437C16.355 24.4449 16.3574 24.4456 16.3598 24.4456C16.3623 24.4456 16.3647 24.4449 16.3667 24.4437C16.3834 24.4286 16.3988 24.4125 16.4129 24.3953C16.4444 24.3704 16.4711 24.3404 16.4916 24.3068C16.5001 24.292 16.5036 24.2752 16.5016 24.2584V24.2502C16.5016 24.2419 16.5016 24.236 16.4891 24.2396C16.4844 24.2342 16.4785 24.23 16.4717 24.2274C16.465 24.2247 16.4577 24.2236 16.4504 24.2242C16.3667 24.2254 16.2793 24.3859 16.353 24.4437Z" fill="#E7D8C8"/>
<path d="M15.8485 24.5912C15.8734 24.636 15.9321 24.5912 15.9534 24.5664C15.9874 24.5293 16.011 24.4847 16.022 24.4367C16.0308 24.4206 16.0355 24.4028 16.0358 24.3848C16.0362 24.3821 16.0359 24.3795 16.0351 24.377C16.0342 24.3744 16.0328 24.3721 16.0309 24.3702C16.0289 24.3683 16.0266 24.3668 16.024 24.3659C16.0214 24.3649 16.0186 24.3645 16.0158 24.3647C15.9866 24.3686 15.9589 24.3793 15.9352 24.3957C15.9114 24.4122 15.8924 24.434 15.8797 24.4591C15.8584 24.4933 15.826 24.5511 15.8485 24.5912Z" fill="#E7D8C8"/>
<path d="M15.9722 25.0655C15.9872 25.1021 16.0271 25.0844 16.0421 25.0655C16.0571 25.0466 16.0559 25.0407 16.0621 25.0289C16.0868 25.0034 16.1044 24.9724 16.1131 24.9388C16.1218 24.9052 16.1215 24.87 16.1121 24.8366C16.1112 24.8343 16.1098 24.8323 16.108 24.8307C16.1061 24.829 16.1039 24.8278 16.1015 24.8271C16.099 24.8264 16.0965 24.8263 16.094 24.8267C16.0915 24.8271 16.0891 24.8281 16.0871 24.8295C16.0521 24.8595 16.0248 24.8966 16.0072 24.9381C15.9922 24.9687 15.9547 25.023 15.9722 25.0655Z" fill="#E7D8C8"/>
<path d="M16.4802 25.2695C16.4935 25.2102 16.5284 25.1572 16.5788 25.1197C16.581 25.1175 16.5839 25.1158 16.587 25.115C16.5901 25.1142 16.5934 25.1142 16.5965 25.1151C16.5996 25.116 16.6024 25.1176 16.6046 25.1199C16.6067 25.1221 16.6082 25.1249 16.6088 25.1279C16.6109 25.1499 16.6079 25.1721 16.6001 25.1928C16.5969 25.2189 16.5863 25.2437 16.5694 25.2645C16.5524 25.2853 16.5298 25.3013 16.5039 25.3108H16.4914C16.4884 25.3112 16.4853 25.3109 16.4823 25.31C16.4794 25.3091 16.4768 25.3075 16.4746 25.3055C16.4724 25.3034 16.4708 25.3009 16.4698 25.2981C16.4688 25.2954 16.4685 25.2925 16.4689 25.2896L16.4802 25.2695Z" fill="#E7D8C8"/>
<path d="M16.8449 25.4087C16.8475 25.407 16.8505 25.4061 16.8536 25.4058C16.8567 25.4056 16.8598 25.4061 16.8627 25.4072C16.8655 25.4084 16.868 25.4102 16.8699 25.4125C16.8718 25.4148 16.8731 25.4176 16.8737 25.4205C16.8737 25.4205 16.8737 25.4205 16.8737 25.4287C16.8737 25.4948 16.8249 25.601 16.7488 25.6069C16.7467 25.6072 16.7446 25.6071 16.7426 25.6066C16.7405 25.6061 16.7386 25.6053 16.737 25.604C16.7353 25.6028 16.734 25.6013 16.733 25.5995C16.732 25.5978 16.7314 25.5959 16.7313 25.5939C16.7334 25.5567 16.7448 25.5206 16.7646 25.4884C16.7843 25.4562 16.8119 25.4289 16.8449 25.4087Z" fill="#E7D8C8"/>
<path d="M16.4166 25.6232C16.4322 25.6085 16.4498 25.5958 16.469 25.5854C16.479 25.5854 16.4965 25.5854 16.4965 25.5961C16.494 25.6433 16.4736 25.6881 16.439 25.7223C16.4247 25.7441 16.4039 25.7613 16.3791 25.7718C16.3758 25.773 16.3721 25.7729 16.3688 25.7716C16.3656 25.7703 16.363 25.7678 16.3616 25.7648C16.3616 25.7648 16.3616 25.7565 16.3616 25.7518C16.3609 25.7487 16.3609 25.7455 16.3616 25.7424C16.3574 25.7196 16.3604 25.6962 16.3701 25.675C16.3799 25.6538 16.3961 25.6358 16.4166 25.6232Z" fill="#E7D8C8"/>
<path d="M16.0884 25.2919C16.0935 25.2915 16.0985 25.2931 16.1025 25.2961C16.1064 25.2992 16.109 25.3036 16.1096 25.3084C16.1115 25.3186 16.1115 25.3289 16.1096 25.3391C16.1119 25.3563 16.1103 25.3738 16.1046 25.3903C16.099 25.4068 16.0896 25.4219 16.0771 25.4346C16.0605 25.4634 16.0347 25.4865 16.0034 25.5007C15.996 25.5007 15.9872 25.5007 15.9835 25.4924C15.956 25.4311 15.9984 25.2907 16.0884 25.2919Z" fill="#E7D8C8"/>
<path d="M15.5252 25.2177C15.526 25.2201 15.5274 25.2224 15.5292 25.2243C15.531 25.2263 15.5332 25.2278 15.5356 25.2289C15.5381 25.23 15.5408 25.2306 15.5435 25.2307C15.5462 25.2308 15.5489 25.2304 15.5514 25.2295C15.5901 25.2124 15.6214 25.1833 15.6401 25.147C15.6587 25.1107 15.6636 25.0694 15.6538 25.0301C15.6527 25.0277 15.6509 25.0255 15.6488 25.0237C15.6467 25.0219 15.6442 25.0206 15.6414 25.0198C15.6387 25.019 15.6359 25.0188 15.633 25.0192C15.6302 25.0195 15.6275 25.0204 15.6251 25.0218C15.5969 25.0406 15.5731 25.0647 15.5552 25.0926C15.5402 25.1098 15.5297 25.1301 15.5245 25.1518C15.5193 25.1735 15.5195 25.1961 15.5252 25.2177Z" fill="#E7D8C8"/>
<path d="M15.5798 25.673C15.5797 25.6488 15.5865 25.6249 15.5998 25.6041C15.613 25.5833 15.632 25.5663 15.6548 25.555C15.6575 25.5539 15.6606 25.5534 15.6636 25.5536C15.6666 25.5538 15.6696 25.5547 15.6721 25.5562C15.6747 25.5577 15.6769 25.5598 15.6784 25.5623C15.68 25.5647 15.6808 25.5675 15.681 25.5704C15.6844 25.5938 15.6819 25.6177 15.6736 25.6401C15.6654 25.6624 15.6516 25.6826 15.6335 25.699C15.6281 25.706 15.6214 25.712 15.6136 25.7167C15.6112 25.7179 15.6086 25.7186 15.6059 25.7189C15.6032 25.7191 15.6005 25.7188 15.598 25.7181C15.5954 25.7173 15.593 25.716 15.591 25.7144C15.5889 25.7127 15.5873 25.7107 15.5861 25.7084C15.5855 25.7071 15.5852 25.7057 15.5852 25.7043C15.5852 25.7029 15.5855 25.7015 15.5861 25.7002C15.5827 25.6914 15.5806 25.6823 15.5798 25.673Z" fill="#E7D8C8"/>
<path d="M16.7239 25.8441C16.7261 25.8439 16.7284 25.8442 16.7305 25.8449C16.7326 25.8456 16.7346 25.8467 16.7362 25.8482C16.7378 25.8496 16.7391 25.8513 16.74 25.8533C16.7409 25.8552 16.7414 25.8573 16.7414 25.8594C16.7412 25.8909 16.7317 25.9217 16.7138 25.9482C16.6959 25.9747 16.6704 25.9959 16.6402 26.0093C16.6362 26.0105 16.6318 26.0105 16.6277 26.0093H16.6103C16.6083 26.0096 16.6062 26.0095 16.6042 26.0091C16.6023 26.0086 16.6004 26.0077 16.5989 26.0064C16.5973 26.0052 16.5961 26.0036 16.5953 26.0019C16.5944 26.0001 16.594 25.9982 16.594 25.9963C16.6009 25.9628 16.6163 25.9315 16.6389 25.905C16.6616 25.8784 16.6908 25.8575 16.7239 25.8441Z" fill="#E7D8C8"/>
<path d="M16.8562 26.1731C16.8558 26.1762 16.8563 26.1794 16.8575 26.1824C16.8588 26.1853 16.8609 26.1879 16.8635 26.1899C16.8661 26.1919 16.8692 26.1933 16.8725 26.1938C16.8758 26.1944 16.8792 26.1941 16.8824 26.1931H16.8912C16.893 26.1943 16.8952 26.1949 16.8974 26.1949C16.8996 26.1949 16.9018 26.1943 16.9037 26.1931L16.9124 26.1849C16.9366 26.1688 16.9572 26.1484 16.9729 26.1246C16.9885 26.1009 16.999 26.0745 17.0036 26.0468C17.004 26.0441 17.0037 26.0413 17.0026 26.0388C17.0016 26.0362 16.9998 26.034 16.9975 26.0323C16.9952 26.0306 16.9925 26.0295 16.9896 26.0292C16.9867 26.0288 16.9837 26.0292 16.9811 26.0303C16.9411 26.0479 16.908 26.0767 16.8862 26.1129C16.872 26.1308 16.8618 26.1513 16.8562 26.1731Z" fill="#E7D8C8"/>
<path d="M16.7825 26.5886C16.7983 26.5571 16.8214 26.5293 16.8499 26.5072C16.8621 26.4946 16.8754 26.4831 16.8899 26.473C16.8939 26.4717 16.8983 26.4717 16.9024 26.473C16.9049 26.4711 16.908 26.4699 16.9113 26.4697C16.9145 26.4694 16.9178 26.4701 16.9206 26.4716C16.9234 26.4732 16.9257 26.4754 16.9271 26.4782C16.9286 26.481 16.9291 26.4841 16.9286 26.4871C16.9238 26.5151 16.9105 26.5411 16.8903 26.562C16.8701 26.583 16.844 26.5979 16.815 26.6051H16.805C16.8024 26.6068 16.7992 26.6076 16.7961 26.6075C16.7929 26.6074 16.7899 26.6064 16.7874 26.6045C16.7849 26.6027 16.7831 26.6002 16.7822 26.5973C16.7813 26.5945 16.7814 26.5914 16.7825 26.5886Z" fill="#E7D8C8"/>
<path d="M16.3779 26.3855C16.379 26.3684 16.3841 26.3517 16.3927 26.3367C16.4013 26.3216 16.4133 26.3085 16.4279 26.2982C16.4472 26.2794 16.4712 26.2656 16.4978 26.2581C16.509 26.2581 16.524 26.2581 16.524 26.2722C16.5221 26.3058 16.5089 26.3379 16.4865 26.3639C16.4641 26.39 16.4335 26.4087 16.3991 26.4174C16.3965 26.4177 16.3939 26.4175 16.3913 26.4169C16.3887 26.4162 16.3863 26.4151 16.3842 26.4136C16.3822 26.412 16.3804 26.4101 16.3791 26.4079C16.3778 26.4057 16.377 26.4033 16.3767 26.4008C16.3754 26.3999 16.3745 26.3987 16.3739 26.3973C16.3732 26.3959 16.373 26.3944 16.3731 26.3929C16.3732 26.3914 16.3737 26.3899 16.3746 26.3886C16.3754 26.3874 16.3766 26.3863 16.3779 26.3855Z" fill="#E7D8C8"/>
<path d="M16.0895 25.9019H16.0995C16.1035 25.9005 16.1079 25.8999 16.1122 25.9003C16.1165 25.9007 16.1206 25.902 16.1243 25.9042C16.1279 25.9064 16.131 25.9093 16.1332 25.9128C16.1354 25.9163 16.1367 25.9203 16.137 25.9244C16.1295 25.9845 16.0758 26.0624 16.0121 26.0659C16.0021 26.0659 15.9884 26.0589 15.9896 26.0482C15.9891 26.0173 15.9984 25.9868 16.0161 25.9608C16.0339 25.9348 16.0595 25.9143 16.0895 25.9019Z" fill="#E7D8C8"/>
<path d="M15.8872 26.4493C15.9125 26.4142 15.9487 26.3874 15.9909 26.3726C15.9941 26.3713 15.9977 26.3709 16.0012 26.3713C16.0047 26.3718 16.008 26.3731 16.0108 26.3751C16.0136 26.3771 16.0157 26.3798 16.0171 26.3829C16.0184 26.386 16.0188 26.3894 16.0183 26.3927C15.9952 26.4614 15.9452 26.5192 15.8785 26.5543C15.8757 26.5564 15.8723 26.5578 15.8687 26.5583C15.8651 26.5588 15.8614 26.5583 15.8581 26.557C15.8548 26.5557 15.8519 26.5535 15.8498 26.5507C15.8476 26.548 15.8463 26.5447 15.846 26.5413C15.8448 26.524 15.8479 26.5067 15.855 26.4907C15.8622 26.4747 15.8732 26.4605 15.8872 26.4493Z" fill="#E7D8C8"/>
<path d="M15.5574 26.0717C15.5583 26.0479 15.5654 26.0247 15.578 26.0042C15.5906 25.9836 15.6084 25.9663 15.6298 25.9537C15.6398 25.9537 15.6585 25.9537 15.6623 25.962C15.6668 25.9932 15.6619 26.025 15.6479 26.0536C15.634 26.0823 15.6117 26.1066 15.5836 26.1236C15.58 26.1263 15.5757 26.1279 15.5712 26.1282C15.5666 26.1285 15.5621 26.1275 15.5582 26.1253C15.5543 26.1232 15.5511 26.1199 15.5492 26.116C15.5473 26.1121 15.5466 26.1078 15.5474 26.1035C15.55 26.0927 15.5533 26.0821 15.5574 26.0717Z" fill="#E7D8C8"/>
<path d="M15.2429 25.7049C15.2469 25.6908 15.2557 25.6784 15.2679 25.6695L15.2753 25.6612C15.2841 25.6506 15.3078 25.6541 15.3078 25.6695C15.307 25.6952 15.2983 25.7202 15.2828 25.7414C15.282 25.757 15.2777 25.7722 15.2701 25.786C15.2626 25.7998 15.252 25.812 15.2391 25.8217C15.2368 25.8231 15.234 25.8239 15.2312 25.8241C15.2284 25.8242 15.2256 25.8237 15.2231 25.8225C15.2206 25.8213 15.2184 25.8195 15.2169 25.8173C15.2153 25.8151 15.2144 25.8125 15.2142 25.8099C15.211 25.7728 15.2211 25.7358 15.2429 25.7049Z" fill="#E7D8C8"/>
<path d="M15.5539 24.6856L15.5701 24.6655C15.5789 24.6573 15.5988 24.6655 15.5988 24.6738C15.6012 24.6973 15.5978 24.721 15.5889 24.7431C15.58 24.7652 15.5659 24.7851 15.5476 24.8012V24.8083C15.5457 24.81 15.5434 24.8112 15.5408 24.8118C15.5382 24.8124 15.5355 24.8123 15.533 24.8116C15.5304 24.8109 15.5281 24.8096 15.5263 24.8077C15.5245 24.8059 15.5233 24.8036 15.5227 24.8012C15.5214 24.7938 15.5214 24.7862 15.5227 24.7788C15.5176 24.7621 15.5179 24.7443 15.5234 24.7277C15.529 24.7112 15.5396 24.6965 15.5539 24.6856Z" fill="#E7D8C8"/>
<path d="M15.4039 26.6298C15.4052 26.632 15.4071 26.6339 15.4094 26.6352C15.4117 26.6364 15.4143 26.6371 15.417 26.6371C15.4197 26.6371 15.4223 26.6364 15.4246 26.6352C15.4269 26.6339 15.4288 26.632 15.4301 26.6298L15.4401 26.6192C15.4654 26.6006 15.4861 26.577 15.501 26.5502C15.5159 26.5233 15.5245 26.4937 15.5262 26.4635C15.5266 26.4602 15.5259 26.4569 15.5243 26.4539C15.5227 26.451 15.5203 26.4485 15.5173 26.4468C15.5143 26.445 15.5109 26.4442 15.5074 26.4442C15.5039 26.4442 15.5005 26.4452 15.4975 26.447C15.4438 26.4835 15.3801 26.5673 15.4039 26.6298Z" fill="#E7D8C8"/>
<path d="M15.1055 26.382C15.1086 26.3666 15.1169 26.3525 15.1293 26.3419C15.1341 26.3341 15.1399 26.327 15.1467 26.3207C15.1486 26.3182 15.151 26.3163 15.1539 26.3149C15.1567 26.3135 15.1598 26.3128 15.163 26.3128C15.1661 26.3128 15.1693 26.3135 15.1721 26.3149C15.1749 26.3163 15.1774 26.3182 15.1792 26.3207C15.1891 26.3466 15.1891 26.375 15.1792 26.4009C15.1726 26.4275 15.1578 26.4517 15.1368 26.4705C15.1347 26.4719 15.1324 26.4729 15.1299 26.4733C15.1274 26.4737 15.1248 26.4736 15.1224 26.4729C15.12 26.4722 15.1177 26.471 15.1159 26.4694C15.1141 26.4677 15.1126 26.4657 15.1118 26.4634C15.1045 26.4511 15.1002 26.4374 15.0991 26.4234C15.0981 26.4093 15.1002 26.3952 15.1055 26.382Z" fill="#E7D8C8"/>
<path d="M15.1567 26.7843C15.1594 26.7824 15.1626 26.7812 15.166 26.7808C15.1693 26.7805 15.1727 26.781 15.1758 26.7823C15.1789 26.7837 15.1815 26.7858 15.1834 26.7884C15.1853 26.791 15.1865 26.7941 15.1867 26.7973C15.1899 26.8257 15.1865 26.8545 15.1768 26.8815C15.1671 26.9086 15.1513 26.9334 15.1305 26.9542C15.1305 26.9542 15.1305 26.9613 15.1305 26.9636C15.1293 26.9664 15.1272 26.9688 15.1245 26.9705C15.1219 26.9722 15.1187 26.9731 15.1155 26.9731C15.1123 26.9731 15.1092 26.9722 15.1065 26.9705C15.1038 26.9688 15.1018 26.9664 15.1005 26.9636C15.0922 26.9317 15.093 26.8983 15.1029 26.8668C15.1128 26.8353 15.1314 26.8068 15.1567 26.7843Z" fill="#E7D8C8"/>
<path d="M15.6174 26.9578C15.6216 26.9567 15.6261 26.9569 15.6301 26.9583C15.6342 26.9598 15.6376 26.9625 15.6399 26.966C15.6412 26.968 15.642 26.9702 15.642 26.9725C15.642 26.9748 15.6412 26.9771 15.6399 26.979C15.6403 26.9818 15.6403 26.9845 15.6399 26.9873C15.6398 27.0103 15.6339 27.0329 15.6229 27.0534C15.6118 27.0739 15.5958 27.0916 15.5762 27.1053C15.5739 27.1069 15.5713 27.1081 15.5685 27.1086C15.5657 27.1091 15.5628 27.1091 15.56 27.1084C15.5572 27.1077 15.5547 27.1064 15.5525 27.1047C15.5503 27.1029 15.5486 27.1007 15.5475 27.0982C15.5469 27.0958 15.5469 27.0934 15.5475 27.0911C15.5452 27.0913 15.5429 27.091 15.5407 27.0902C15.5386 27.0895 15.5366 27.0882 15.535 27.0866C15.5335 27.085 15.5323 27.0831 15.5317 27.081C15.531 27.0789 15.5309 27.0767 15.5313 27.0746C15.5345 27.0499 15.544 27.0264 15.559 27.0061C15.574 26.9857 15.5941 26.9691 15.6174 26.9578Z" fill="#E7D8C8"/>
<path d="M16.2119 26.6734C16.2145 26.6718 16.2175 26.6708 16.2206 26.6706C16.2237 26.6703 16.2268 26.6708 16.2296 26.672C16.2325 26.6731 16.235 26.675 16.2369 26.6773C16.2388 26.6796 16.2401 26.6823 16.2406 26.6852C16.2419 26.721 16.232 26.7564 16.2122 26.787C16.1925 26.8176 16.1637 26.8421 16.1295 26.8574C16.1234 26.8596 16.1168 26.8596 16.1107 26.8574L16.0958 26.8669C16.0935 26.8676 16.0911 26.8679 16.0888 26.8676C16.0865 26.8673 16.0842 26.8665 16.0823 26.8652C16.0803 26.8639 16.0787 26.8623 16.0776 26.8603C16.0765 26.8583 16.0758 26.8561 16.0758 26.8539C16.0811 26.8156 16.0963 26.7791 16.12 26.7476C16.1437 26.7161 16.1753 26.6907 16.2119 26.6734Z" fill="#E7D8C8"/>
<path d="M17.2257 26.5919C17.2283 26.5864 17.2317 26.5812 17.2357 26.5766C17.2337 26.568 17.2337 26.5592 17.2357 26.5506C17.2498 26.5249 17.2727 26.5045 17.3007 26.4928C17.3107 26.4928 17.3244 26.4928 17.3281 26.4999C17.3331 26.5165 17.3331 26.534 17.3281 26.5506C17.3242 26.5698 17.3128 26.5869 17.2961 26.5984C17.2794 26.61 17.2588 26.6153 17.2382 26.6131C17.2338 26.6115 17.2302 26.6085 17.2279 26.6047C17.2256 26.6008 17.2248 26.5963 17.2257 26.5919Z" fill="#E7D8C8"/>
</g>
<defs>
<clipPath id="clip0_7_3704">
<rect width="24" height="16" fill="white" transform="translate(8 13)"/>
</clipPath>
</defs>
</svg>
