<svg width="25" height="19" viewBox="0 0 25 19" fill="none" xmlns="http://www.w3.org/2000/svg">
<g clip-path="url(#clip0_7_4029)">
<path d="M9.78836 2.69554C9.78836 2.69554 12.3884 -0.339154 16.9568 1.35957C16.9568 1.35957 14.3552 5.77152 9.78836 2.69554Z" fill="#5C7732"/>
<path d="M9.78836 2.69554C9.78836 2.69554 12.3884 -0.339153 16.9568 1.35957C16.9568 1.35957 12.5918 2.37113 9.78836 2.69554Z" fill="#69893E"/>
<path d="M8.87839 5.4825L9.71345 0L10.6892 0.576562L9.34945 5.63438C9.1886 5.59555 9.03111 5.54477 8.87839 5.4825Z" fill="#69893E"/>
<path d="M16.8742 11.9014C16.8742 15.8237 11.1587 18.944 6.67442 18.944C2.19014 18.944 0 15.5215 0 11.5991C0 7.67668 3.63698 4.496 8.12278 4.496C12.6086 4.496 16.8742 7.97897 16.8742 11.9014Z" fill="#E87F18"/>
<path d="M7.64724 6.2168C8.69949 4.89999 11.4555 5.27896 12.9605 6.3967C14.4654 7.51443 14.2834 9.21167 13.2312 10.5255C12.1789 11.8394 10.1035 12.0001 8.59854 10.8839C7.09359 9.76759 6.59194 7.53507 7.64724 6.2168Z" fill="#E89B34"/>
<path d="M17.2413 18.7183C15.7651 18.7183 14.3221 18.2963 13.0947 17.5056C11.8673 16.7149 10.9107 15.591 10.3458 14.2762C9.78091 12.9613 9.63311 11.5144 9.92109 10.1185C10.2091 8.72264 10.9199 7.44044 11.9637 6.43407C13.0075 5.42769 14.3374 4.74235 15.7852 4.46469C17.233 4.18703 18.7337 4.32953 20.0975 4.87418C21.4613 5.41882 22.6269 6.34115 23.447 7.52452C24.2671 8.70789 24.7049 10.0992 24.7049 11.5224C24.7029 13.4303 23.9159 15.2595 22.5166 16.6085C21.1173 17.9576 19.2201 18.7164 17.2413 18.7183Z" fill="#FFB506"/>
<path d="M17.2412 4.6951C15.8298 4.6951 14.4501 5.09863 13.2765 5.85466C12.1029 6.61068 11.1883 7.68526 10.6481 8.94249C10.108 10.1997 9.96669 11.5831 10.242 12.9178C10.5174 14.2525 11.1971 15.4784 12.1951 16.4407C13.1931 17.4029 14.4647 18.0582 15.849 18.3237C17.2333 18.5892 18.6682 18.4529 19.9722 17.9322C21.2762 17.4114 22.3907 16.5295 23.1748 15.3981C23.959 14.2666 24.3775 12.9363 24.3775 11.5755C24.3755 9.75131 23.623 8.00238 22.2851 6.71248C20.9472 5.42257 19.1333 4.69705 17.2412 4.6951ZM11.7016 8.70007C11.7215 8.64551 12.2675 7.29331 13.1332 7.04558C13.1984 7.02779 13.2658 7.01886 13.3335 7.01904C13.4349 7.01926 13.5351 7.04028 13.6274 7.0807C13.7197 7.12113 13.802 7.18003 13.8688 7.2535L16.3909 10.676C16.4184 10.7114 16.5591 10.9031 16.4979 11.0181C16.4829 11.0437 16.4604 11.0644 16.4331 11.0775C16.4059 11.0906 16.3752 11.0956 16.345 11.0918C16.2396 11.0843 16.1362 11.0599 16.0391 11.0196L11.9096 9.69246C11.8435 9.67347 11.7824 9.64081 11.7306 9.59675C11.6788 9.5527 11.6376 9.49831 11.6099 9.43736C11.5181 9.25893 11.5487 9.00678 11.7016 8.70007ZM11.2061 12.8289C10.657 12.1388 11.0409 10.7365 11.0532 10.676C11.1725 10.0641 11.4829 9.97116 11.6649 9.97116C11.7212 9.97141 11.7771 9.98088 11.8301 9.99917L15.981 11.2614C16.2349 11.3292 16.3542 11.4089 16.3557 11.5062C16.3557 11.6448 16.1064 11.7274 16.0498 11.7436L11.9295 13.084C11.8747 13.0948 11.8188 13.1002 11.7628 13.1002C11.6545 13.0998 11.5479 13.075 11.4512 13.0279C11.3546 12.9808 11.2707 12.9127 11.2061 12.8289ZM13.3335 16.1025C13.2657 16.1029 13.1981 16.0934 13.1332 16.0745C12.2675 15.8282 11.7215 14.476 11.7001 14.4185C11.5472 14.1118 11.5181 13.8596 11.6099 13.6812C11.6405 13.6228 11.6835 13.5713 11.7363 13.5302C11.789 13.489 11.8502 13.4591 11.9158 13.4423L16.0452 12.1078C16.1424 12.068 16.2458 12.0441 16.3511 12.037C16.3813 12.0333 16.412 12.0382 16.4393 12.0514C16.4665 12.0645 16.4891 12.0852 16.504 12.1108C16.5652 12.2258 16.4245 12.4175 16.397 12.4544L13.8734 15.8695C13.806 15.9438 13.7231 16.0035 13.63 16.0447C13.537 16.0859 13.4359 16.1076 13.3335 16.1084V16.1025ZM17.0776 17.0315C17.0806 17.0905 17.0714 17.1496 17.0507 17.2053C17.0299 17.2609 16.998 17.3121 16.9568 17.3559C16.8818 17.4239 16.7928 17.476 16.6955 17.5085C16.5983 17.541 16.4949 17.5533 16.3924 17.5446C16.3187 17.5438 16.2452 17.5388 16.1722 17.5299C16.1125 17.5299 14.6091 17.4591 14.0921 16.7469C14.0152 16.6394 13.9715 16.513 13.9661 16.3825C13.9606 16.252 13.9938 16.1227 14.0615 16.0096L16.6249 12.618C16.6509 12.5841 16.7778 12.4086 16.9093 12.4086C16.9269 12.409 16.9441 12.4126 16.9602 12.4195C16.9762 12.4263 16.9906 12.4362 17.0026 12.4485C17.0623 12.5074 17.0852 12.6298 17.0776 12.8348V17.0315ZM17.0026 10.6672C16.9905 10.6793 16.976 10.6889 16.96 10.6955C16.944 10.702 16.9268 10.7055 16.9093 10.7055C16.7839 10.7055 16.6509 10.5315 16.6249 10.4961L14.0707 7.11489C14.0027 7.00202 13.9691 6.87288 13.974 6.74241C13.9789 6.61193 14.022 6.48546 14.0983 6.3776C14.6152 5.66537 16.1186 5.59607 16.1829 5.59459C16.2544 5.58549 16.3264 5.58057 16.3985 5.57985C16.5011 5.57113 16.6044 5.58345 16.7016 5.61598C16.7989 5.64851 16.8879 5.70052 16.9629 5.7686C17.0045 5.81302 17.0366 5.86495 17.0573 5.92138C17.0781 5.97781 17.087 6.03764 17.0837 6.09743V10.2882C17.0852 10.4917 17.0623 10.617 17.0026 10.6731V10.6672ZM21.2024 7.01019C21.2702 7.00991 21.3376 7.01885 21.4028 7.03674C22.2684 7.28447 22.8145 8.63666 22.8374 8.69417C22.9903 9.00088 23.0179 9.25303 22.9261 9.43146C22.8959 9.49029 22.853 9.5422 22.8002 9.58366C22.7475 9.62513 22.6861 9.65519 22.6202 9.67182L18.4908 10.9989C18.3936 11.0388 18.2902 11.0627 18.1849 11.0697C18.1547 11.0735 18.124 11.0685 18.0967 11.0554C18.0695 11.0423 18.0469 11.0216 18.0319 10.996C17.9723 10.881 18.1115 10.6893 18.1405 10.6524L20.6641 7.25498C20.731 7.18048 20.8136 7.12062 20.9065 7.07942C20.9993 7.03822 21.1002 7.01663 21.2024 7.01609V7.01019ZM17.3498 10.3663L17.4416 6.17705C17.4579 6.04605 17.5126 5.92226 17.5993 5.82015C17.686 5.71804 17.801 5.64185 17.931 5.60049C18.0509 5.56529 18.1757 5.54788 18.3011 5.54888C19.1117 5.54888 20.0431 6.16968 20.0829 6.19622C20.3888 6.36728 20.557 6.55897 20.5891 6.76246C20.5986 6.82632 20.594 6.8914 20.5756 6.95341C20.5571 7.01543 20.5252 7.07297 20.4821 7.12226L17.8438 10.4607C17.7138 10.6406 17.6098 10.7247 17.5211 10.7247C17.5035 10.7247 17.4861 10.7212 17.4701 10.7143C17.454 10.7075 17.4396 10.6974 17.4278 10.6849C17.3663 10.5898 17.3389 10.4779 17.3498 10.3663ZM20.5891 16.3679C20.557 16.5714 20.3857 16.7631 20.0783 16.9371C20.0431 16.9607 19.1117 17.5815 18.3011 17.5815C18.1757 17.5825 18.0509 17.5651 17.931 17.5299C17.8021 17.4893 17.6878 17.4142 17.6015 17.3135C17.5151 17.2127 17.4602 17.0904 17.4431 16.9607L17.3498 12.7625C17.3392 12.6515 17.3666 12.5401 17.4278 12.4455C17.4396 12.4329 17.454 12.4229 17.4701 12.416C17.4861 12.4092 17.5035 12.4057 17.5211 12.4057C17.6098 12.4057 17.7138 12.4897 17.8453 12.6711L20.4851 16.011C20.5275 16.0601 20.5587 16.1173 20.5766 16.1788C20.5945 16.2403 20.5988 16.3047 20.5891 16.3679ZM22.8359 14.4332C22.8145 14.4878 22.2684 15.84 21.4043 16.0863C21.3389 16.1053 21.2708 16.1147 21.2024 16.1143C21.1013 16.1138 21.0015 16.0926 20.9095 16.0522C20.8175 16.0118 20.7354 15.953 20.6687 15.8798L18.1451 12.4573C18.1176 12.4219 17.9784 12.2302 18.0381 12.1152C18.053 12.0896 18.0756 12.0689 18.1028 12.0558C18.1301 12.0427 18.1608 12.0377 18.191 12.0415C18.2964 12.049 18.3998 12.0734 18.4969 12.1137L22.6263 13.4409C22.6898 13.4585 22.7487 13.4887 22.7992 13.5296C22.8498 13.5705 22.8909 13.6211 22.92 13.6783C23.0179 13.8611 22.9888 14.1177 22.8359 14.4273V14.4332ZM22.7701 13.2123C22.7187 13.2115 22.6675 13.2061 22.6172 13.1961L18.4877 11.8601C18.4388 11.8454 18.1818 11.7613 18.1895 11.6227C18.1895 11.5239 18.3118 11.4457 18.5657 11.3794L22.7196 10.1142C22.7687 10.097 22.8204 10.088 22.8726 10.0876C23.0469 10.0876 23.3589 10.1805 23.4843 10.7969C23.4996 10.853 23.8835 12.2553 23.3314 12.9469C23.2648 13.0288 23.1796 13.0949 23.0822 13.1399C22.9849 13.1849 22.8781 13.2077 22.7701 13.2064V13.2123Z" fill="#FFFFCF"/>
<path d="M17.2352 4.29549C13.121 4.29549 9.70276 7.2594 9.70276 11.226C9.70276 15.1927 12.7066 19 16.8238 19C20.941 19 25.0016 15.5923 25.0016 11.6271C25.0016 7.66196 21.3509 4.29549 17.2352 4.29549ZM17.2352 18.4515C15.8238 18.4503 14.4445 18.0457 13.2717 17.2887C12.0988 16.5318 11.1851 15.4566 10.646 14.199C10.107 12.9414 9.96679 11.5579 10.2432 10.2235C10.5196 8.88914 11.2002 7.66373 12.199 6.70225C13.1977 5.74078 14.4697 5.08642 15.8541 4.82191C17.2386 4.55741 18.6733 4.69464 19.9768 5.21625C21.2804 5.73786 22.3942 6.62043 23.1776 7.75236C23.9609 8.88429 24.3785 10.2147 24.3776 11.5755C24.3756 13.3997 23.6231 15.1486 22.2852 16.4385C20.9473 17.7284 19.1333 18.454 17.2413 18.4559L17.2352 18.4515Z" fill="#F38E1C"/>
<path d="M16.9568 5.76269C16.8819 5.69462 16.7929 5.6426 16.6956 5.61007C16.5983 5.57754 16.495 5.56523 16.3924 5.57394C16.3203 5.57466 16.2483 5.57959 16.1768 5.58869C16.1126 5.58869 14.6091 5.65947 14.0922 6.37169C14.0159 6.47955 13.9728 6.60603 13.9679 6.7365C13.9631 6.86698 13.9966 6.99612 14.0647 7.10898L16.6249 10.5005C16.6509 10.5359 16.7779 10.7099 16.9094 10.7099C16.9268 10.7099 16.9441 10.7065 16.9601 10.6999C16.9761 10.6933 16.9906 10.6837 17.0027 10.6716C17.0623 10.6126 17.0853 10.4902 17.0776 10.2867V6.09152C17.081 6.03174 17.072 5.97191 17.0513 5.91548C17.0305 5.85904 16.9984 5.80712 16.9568 5.76269Z" fill="#FFB506"/>
<path d="M20.5892 6.76245C20.557 6.55896 20.3857 6.36726 20.0829 6.19621C20.0432 6.16967 19.1117 5.54887 18.3011 5.54887C18.1758 5.54787 18.051 5.56527 17.931 5.60048C17.8011 5.64183 17.686 5.71803 17.5993 5.82013C17.5127 5.92224 17.4579 6.04604 17.4416 6.17704L17.3498 10.3663C17.339 10.4779 17.3664 10.5898 17.4278 10.6848C17.4396 10.6974 17.454 10.7074 17.4701 10.7143C17.4862 10.7212 17.5035 10.7247 17.5211 10.7247C17.6098 10.7247 17.7138 10.6406 17.8438 10.4607L20.4821 7.12225C20.5253 7.07296 20.5571 7.01541 20.5756 6.9534C20.594 6.89139 20.5987 6.82631 20.5892 6.76245Z" fill="#FFB506"/>
<path d="M22.8374 8.70004C22.8145 8.64253 22.2685 7.29033 21.4028 7.0426C21.2715 7.00654 21.1322 7.00736 21.0014 7.04497C20.8705 7.08259 20.7535 7.15543 20.6641 7.25494L18.1467 10.6716C18.1176 10.7084 17.9784 10.9001 18.0381 11.0151C18.0531 11.0407 18.0756 11.0614 18.1029 11.0745C18.1301 11.0877 18.1608 11.0927 18.191 11.0889C18.2964 11.0818 18.3997 11.0579 18.4969 11.0181L22.6264 9.69096C22.6922 9.67433 22.7536 9.64427 22.8064 9.6028C22.8591 9.56134 22.9021 9.50943 22.9322 9.4506C23.0179 9.2589 22.9888 9.00675 22.8374 8.70004Z" fill="#FFB506"/>
<path d="M16.3908 10.673L13.8688 7.2505C13.8019 7.17703 13.7196 7.11813 13.6273 7.0777C13.535 7.03728 13.4349 7.01626 13.3335 7.01604C13.2657 7.01586 13.1983 7.02479 13.1331 7.04258C12.2675 7.29031 11.7215 8.6425 11.7016 8.70001C11.5486 9.00968 11.518 9.26183 11.6098 9.44615C11.6388 9.50347 11.6799 9.55432 11.7305 9.59545C11.7811 9.63658 11.84 9.66709 11.9035 9.68503L16.0329 11.0122C16.13 11.0525 16.2334 11.0769 16.3388 11.0844C16.369 11.0882 16.3997 11.0832 16.427 11.0701C16.4542 11.0569 16.4768 11.0363 16.4917 11.0107C16.559 10.9001 16.4183 10.7084 16.3908 10.673Z" fill="#FFB506"/>
<path d="M17.0775 17.0373V12.8377C17.0775 12.6327 17.0622 12.5104 17.0025 12.4514C16.9905 12.4391 16.9761 12.4292 16.96 12.4224C16.944 12.4156 16.9267 12.4119 16.9092 12.4116C16.7838 12.4116 16.6508 12.587 16.6248 12.621L14.0614 16.0125C13.9936 16.1256 13.9605 16.2549 13.9659 16.3854C13.9713 16.5159 14.0151 16.6423 14.092 16.7498C14.609 17.462 16.1124 17.5313 16.172 17.5328C16.2451 17.5417 16.3186 17.5467 16.3923 17.5475C16.4948 17.5562 16.5981 17.5439 16.6954 17.5114C16.7927 17.4789 16.8817 17.4269 16.9566 17.3588C17.0392 17.2711 17.0827 17.1556 17.0775 17.0373Z" fill="#FFB506"/>
<path d="M20.485 16.0051L17.8453 12.6652C17.7137 12.4838 17.6097 12.3998 17.521 12.3998C17.5034 12.3997 17.486 12.4033 17.47 12.4101C17.4539 12.417 17.4395 12.427 17.4277 12.4396C17.3665 12.5342 17.3391 12.6456 17.3497 12.7566L17.443 16.9548C17.4601 17.0845 17.515 17.2068 17.6014 17.3076C17.6877 17.4083 17.802 17.4834 17.9309 17.524C18.0508 17.5592 18.1756 17.5766 18.301 17.5756C19.1116 17.5756 20.043 16.9548 20.0782 16.9312C20.3841 16.7572 20.5569 16.5655 20.589 16.362C20.5987 16.2988 20.5944 16.2344 20.5765 16.1729C20.5586 16.1114 20.5274 16.0542 20.485 16.0051Z" fill="#FFB506"/>
<path d="M22.9261 13.6797C22.8974 13.6229 22.8567 13.5724 22.8067 13.5315C22.7567 13.4907 22.6984 13.4603 22.6355 13.4423L18.506 12.1152C18.409 12.0749 18.3056 12.0505 18.2002 12.0429C18.1699 12.0391 18.1392 12.0441 18.112 12.0573C18.0848 12.0704 18.0622 12.0911 18.0472 12.1167C17.9876 12.2317 18.1267 12.4234 18.1543 12.4588L20.6778 15.8813C20.7446 15.9545 20.8267 16.0132 20.9187 16.0536C21.0107 16.094 21.1105 16.1152 21.2116 16.1157C21.28 16.1161 21.348 16.1067 21.4135 16.0877C22.2776 15.8414 22.8236 14.4893 22.845 14.4347C22.9888 14.1177 23.0178 13.8611 22.9261 13.6797Z" fill="#FFB506"/>
<path d="M23.4812 10.791C23.3619 10.1747 23.0499 10.0818 22.8694 10.0818C22.8173 10.0822 22.7655 10.0911 22.7165 10.1083L18.5626 11.3735C18.3087 11.4398 18.1894 11.5209 18.1863 11.6168C18.1863 11.7554 18.4356 11.8395 18.4846 11.8542L22.614 13.1902C22.6644 13.2002 22.7156 13.2057 22.767 13.2064C22.8754 13.207 22.9826 13.1833 23.08 13.1373C23.1773 13.0912 23.2623 13.024 23.3283 12.941C23.8804 12.2494 23.4965 10.8471 23.4812 10.791Z" fill="#FFB506"/>
<path d="M16.4979 12.1093C16.4829 12.0837 16.4603 12.063 16.4331 12.0499C16.4058 12.0368 16.3751 12.0318 16.3449 12.0356C16.2396 12.0426 16.1362 12.0665 16.039 12.1063L11.9096 13.4408C11.844 13.4576 11.7828 13.4875 11.7301 13.5287C11.6774 13.5699 11.6343 13.6213 11.6037 13.6797C11.5119 13.8655 11.5425 14.1221 11.6939 14.417C11.7153 14.4745 12.2614 15.8267 13.127 16.073C13.192 16.092 13.2595 16.1014 13.3274 16.101C13.4297 16.1002 13.5308 16.0785 13.6239 16.0373C13.7169 15.9961 13.7999 15.9364 13.8673 15.8621L16.3847 12.4455C16.4183 12.416 16.559 12.2243 16.4979 12.1093Z" fill="#FFB506"/>
<path d="M15.978 11.2673L11.8271 10.005C11.7741 9.98674 11.7182 9.97727 11.6619 9.97702C11.4876 9.97702 11.1771 10.0699 11.0502 10.6819C11.0333 10.7423 10.6495 12.1447 11.2031 12.8348C11.2688 12.9181 11.3537 12.9854 11.4512 13.0315C11.5486 13.0776 11.6559 13.1011 11.7644 13.1002C11.8199 13.1001 11.8752 13.0947 11.9296 13.084L16.0499 11.7568C16.0988 11.7406 16.3557 11.658 16.3557 11.5194C16.3512 11.4133 16.2319 11.3351 15.978 11.2673Z" fill="#FFB506"/>
</g>
<defs>
<clipPath id="clip0_7_4029">
<rect width="25" height="19" fill="white"/>
</clipPath>
</defs>
</svg>
