<svg width="40" height="41" viewBox="0 0 40 41" fill="none" xmlns="http://www.w3.org/2000/svg">
<ellipse cx="20" cy="20.5" rx="20" ry="20.5" fill="#F7F8F8"/>
<g clip-path="url(#clip0_7_4027)">
<path d="M17.7884 13.6955C17.7884 13.6955 20.3884 10.6608 24.9568 12.3596C24.9568 12.3596 22.3552 16.7715 17.7884 13.6955Z" fill="#5C7732"/>
<path d="M17.7884 13.6955C17.7884 13.6955 20.3884 10.6608 24.9568 12.3596C24.9568 12.3596 20.5918 13.3711 17.7884 13.6955Z" fill="#69893E"/>
<path d="M16.8784 16.4825L17.7135 11L18.6892 11.5766L17.3495 16.6344C17.1886 16.5956 17.0311 16.5448 16.8784 16.4825Z" fill="#69893E"/>
<path d="M24.8742 22.9014C24.8742 26.8237 19.1587 29.944 14.6744 29.944C10.1901 29.944 8 26.5215 8 22.5991C8 18.6767 11.637 15.496 16.1228 15.496C20.6086 15.496 24.8742 18.979 24.8742 22.9014Z" fill="#E87F18"/>
<path d="M15.6472 17.2168C16.6995 15.9 19.4555 16.279 20.9605 17.3967C22.4654 18.5144 22.2834 20.2117 21.2312 21.5255C20.1789 22.8394 18.1035 23.0001 16.5985 21.8839C15.0936 20.7676 14.5919 18.5351 15.6472 17.2168Z" fill="#E89B34"/>
<path d="M25.2413 29.7183C23.7651 29.7183 22.3221 29.2963 21.0947 28.5056C19.8673 27.7149 18.9107 26.591 18.3458 25.2762C17.7809 23.9613 17.6331 22.5144 17.9211 21.1185C18.2091 19.7226 18.9199 18.4404 19.9637 17.4341C21.0075 16.4277 22.3374 15.7423 23.7852 15.4647C25.233 15.187 26.7337 15.3295 28.0975 15.8742C29.4613 16.4188 30.6269 17.3411 31.447 18.5245C32.2671 19.7079 32.7049 21.0992 32.7049 22.5224C32.7029 24.4303 31.9159 26.2595 30.5166 27.6085C29.1173 28.9576 27.2201 29.7164 25.2413 29.7183Z" fill="#FFB506"/>
<path d="M25.2412 15.6951C23.8298 15.6951 22.4501 16.0986 21.2765 16.8547C20.1029 17.6107 19.1883 18.6853 18.6481 19.9425C18.108 21.1997 17.9667 22.5831 18.242 23.9178C18.5174 25.2525 19.1971 26.4784 20.1951 27.4407C21.1931 28.4029 22.4647 29.0582 23.849 29.3237C25.2333 29.5892 26.6682 29.4529 27.9722 28.9322C29.2762 28.4114 30.3907 27.5295 31.1748 26.3981C31.959 25.2666 32.3775 23.9363 32.3775 22.5755C32.3755 20.7513 31.623 19.0024 30.2851 17.7125C28.9472 16.4226 27.1333 15.6971 25.2412 15.6951ZM19.7016 19.7001C19.7215 19.6455 20.2675 18.2933 21.1332 18.0456C21.1984 18.0278 21.2658 18.0189 21.3335 18.019C21.4349 18.0193 21.5351 18.0403 21.6274 18.0807C21.7197 18.1211 21.802 18.18 21.8688 18.2535L24.3909 21.676C24.4184 21.7114 24.5591 21.9031 24.4979 22.0181C24.4829 22.0437 24.4604 22.0644 24.4331 22.0775C24.4059 22.0906 24.3752 22.0956 24.345 22.0918C24.2396 22.0843 24.1362 22.0599 24.0391 22.0196L19.9096 20.6925C19.8435 20.6735 19.7824 20.6408 19.7306 20.5968C19.6788 20.5527 19.6376 20.4983 19.6099 20.4374C19.5181 20.2589 19.5487 20.0068 19.7016 19.7001ZM19.2061 23.8289C18.657 23.1388 19.0409 21.7365 19.0532 21.676C19.1725 21.0641 19.4829 20.9712 19.6649 20.9712C19.7212 20.9714 19.7771 20.9809 19.8301 20.9992L23.981 22.2614C24.2349 22.3292 24.3542 22.4089 24.3557 22.5062C24.3557 22.6448 24.1064 22.7274 24.0498 22.7436L19.9295 24.084C19.8747 24.0948 19.8188 24.1002 19.7628 24.1002C19.6545 24.0998 19.5479 24.075 19.4512 24.0279C19.3546 23.9808 19.2707 23.9127 19.2061 23.8289ZM21.3335 27.1025C21.2657 27.1029 21.1981 27.0934 21.1332 27.0745C20.2675 26.8282 19.7215 25.476 19.7001 25.4185C19.5472 25.1118 19.5181 24.8596 19.6099 24.6812C19.6405 24.6228 19.6835 24.5713 19.7363 24.5302C19.789 24.489 19.8502 24.4591 19.9158 24.4423L24.0452 23.1078C24.1424 23.068 24.2458 23.0441 24.3511 23.037C24.3813 23.0333 24.412 23.0382 24.4393 23.0514C24.4665 23.0645 24.4891 23.0852 24.504 23.1108C24.5652 23.2258 24.4245 23.4175 24.397 23.4544L21.8734 26.8695C21.806 26.9438 21.7231 27.0035 21.63 27.0447C21.537 27.0859 21.4359 27.1076 21.3335 27.1084V27.1025ZM25.0776 28.0315C25.0806 28.0905 25.0714 28.1496 25.0507 28.2053C25.0299 28.2609 24.998 28.3121 24.9568 28.3559C24.8818 28.4239 24.7928 28.476 24.6955 28.5085C24.5983 28.541 24.4949 28.5533 24.3924 28.5446C24.3187 28.5438 24.2452 28.5388 24.1722 28.5299C24.1125 28.5299 22.6091 28.4591 22.0921 27.7469C22.0152 27.6394 21.9715 27.513 21.9661 27.3825C21.9606 27.252 21.9938 27.1227 22.0615 27.0096L24.6249 23.618C24.6509 23.5841 24.7778 23.4086 24.9093 23.4086C24.9269 23.409 24.9441 23.4126 24.9602 23.4195C24.9762 23.4263 24.9906 23.4362 25.0026 23.4485C25.0623 23.5074 25.0852 23.6298 25.0776 23.8348V28.0315ZM25.0026 21.6672C24.9905 21.6793 24.976 21.6889 24.96 21.6955C24.944 21.702 24.9268 21.7055 24.9093 21.7055C24.7839 21.7055 24.6509 21.5315 24.6249 21.4961L22.0707 18.1149C22.0027 18.002 21.9691 17.8729 21.974 17.7424C21.9789 17.6119 22.022 17.4855 22.0983 17.3776C22.6152 16.6654 24.1186 16.5961 24.1829 16.5946C24.2544 16.5855 24.3264 16.5806 24.3985 16.5798C24.5011 16.5711 24.6044 16.5834 24.7016 16.616C24.7989 16.6485 24.8879 16.7005 24.9629 16.7686C25.0045 16.813 25.0366 16.8649 25.0573 16.9214C25.0781 16.9778 25.087 17.0376 25.0837 17.0974V21.2882C25.0852 21.4917 25.0623 21.617 25.0026 21.6731V21.6672ZM29.2024 18.0102C29.2702 18.0099 29.3376 18.0188 29.4028 18.0367C30.2684 18.2845 30.8145 19.6367 30.8374 19.6942C30.9903 20.0009 31.0179 20.253 30.9261 20.4315C30.8959 20.4903 30.853 20.5422 30.8002 20.5837C30.7475 20.6251 30.6861 20.6552 30.6202 20.6718L26.4908 21.9989C26.3936 22.0388 26.2902 22.0627 26.1849 22.0697C26.1547 22.0735 26.124 22.0685 26.0967 22.0554C26.0695 22.0423 26.0469 22.0216 26.0319 21.996C25.9723 21.881 26.1115 21.6893 26.1405 21.6524L28.6641 18.255C28.731 18.1805 28.8136 18.1206 28.9065 18.0794C28.9993 18.0382 29.1002 18.0166 29.2024 18.0161V18.0102ZM25.3498 21.3663L25.4416 17.1771C25.4579 17.0461 25.5126 16.9223 25.5993 16.8201C25.686 16.718 25.801 16.6418 25.931 16.6005C26.0509 16.5653 26.1757 16.5479 26.3011 16.5489C27.1117 16.5489 28.0431 17.1697 28.0829 17.1962C28.3888 17.3673 28.557 17.559 28.5891 17.7625C28.5986 17.8263 28.594 17.8914 28.5756 17.9534C28.5571 18.0154 28.5252 18.073 28.4821 18.1223L25.8438 21.4607C25.7138 21.6406 25.6098 21.7247 25.5211 21.7247C25.5035 21.7247 25.4861 21.7212 25.4701 21.7143C25.454 21.7075 25.4396 21.6974 25.4278 21.6849C25.3663 21.5898 25.3389 21.4779 25.3498 21.3663ZM28.5891 27.3679C28.557 27.5714 28.3857 27.7631 28.0783 27.9371C28.0431 27.9607 27.1117 28.5815 26.3011 28.5815C26.1757 28.5825 26.0509 28.5651 25.931 28.5299C25.8021 28.4893 25.6878 28.4142 25.6015 28.3135C25.5151 28.2127 25.4602 28.0904 25.4431 27.9607L25.3498 23.7625C25.3392 23.6515 25.3666 23.5401 25.4278 23.4455C25.4396 23.4329 25.454 23.4229 25.4701 23.416C25.4861 23.4092 25.5035 23.4057 25.5211 23.4057C25.6098 23.4057 25.7138 23.4897 25.8453 23.6711L28.4851 27.011C28.5275 27.0601 28.5587 27.1173 28.5766 27.1788C28.5945 27.2403 28.5988 27.3047 28.5891 27.3679ZM30.8359 25.4332C30.8145 25.4878 30.2684 26.84 29.4043 27.0863C29.3389 27.1053 29.2708 27.1147 29.2024 27.1143C29.1013 27.1138 29.0015 27.0926 28.9095 27.0522C28.8175 27.0118 28.7354 26.953 28.6687 26.8798L26.1451 23.4573C26.1176 23.4219 25.9784 23.2302 26.0381 23.1152C26.053 23.0896 26.0756 23.0689 26.1028 23.0558C26.1301 23.0427 26.1608 23.0377 26.191 23.0415C26.2964 23.049 26.3998 23.0734 26.4969 23.1137L30.6263 24.4409C30.6898 24.4585 30.7487 24.4887 30.7992 24.5296C30.8498 24.5705 30.8909 24.6211 30.92 24.6783C31.0179 24.8611 30.9888 25.1177 30.8359 25.4273V25.4332ZM30.7701 24.2123C30.7187 24.2115 30.6675 24.2061 30.6172 24.1961L26.4877 22.8601C26.4388 22.8454 26.1818 22.7613 26.1895 22.6227C26.1895 22.5239 26.3118 22.4457 26.5657 22.3794L30.7196 21.1142C30.7687 21.097 30.8204 21.088 30.8726 21.0876C31.0469 21.0876 31.3589 21.1805 31.4843 21.7969C31.4996 21.853 31.8835 23.2553 31.3314 23.9469C31.2648 24.0288 31.1796 24.0949 31.0822 24.1399C30.9849 24.1849 30.8781 24.2077 30.7701 24.2064V24.2123Z" fill="#FFFFCF"/>
<path d="M25.2352 15.2955C21.121 15.2955 17.7028 18.2594 17.7028 22.226C17.7028 26.1927 20.7066 30 24.8238 30C28.941 30 33.0016 26.5923 33.0016 22.6271C33.0016 18.662 29.3509 15.2955 25.2352 15.2955ZM25.2352 29.4515C23.8238 29.4503 22.4445 29.0457 21.2717 28.2887C20.0988 27.5318 19.1851 26.4566 18.646 25.199C18.107 23.9414 17.9668 22.5579 18.2432 21.2235C18.5196 19.8891 19.2002 18.6637 20.199 17.7023C21.1977 16.7408 22.4697 16.0864 23.8541 15.8219C25.2386 15.5574 26.6733 15.6946 27.9768 16.2163C29.2804 16.7379 30.3942 17.6204 31.1776 18.7524C31.9609 19.8843 32.3785 21.2147 32.3776 22.5755C32.3756 24.3997 31.6231 26.1486 30.2852 27.4385C28.9473 28.7284 27.1333 29.454 25.2413 29.4559L25.2352 29.4515Z" fill="#F38E1C"/>
<path d="M24.9568 16.7627C24.8819 16.6946 24.7929 16.6426 24.6956 16.6101C24.5983 16.5775 24.495 16.5652 24.3924 16.5739C24.3203 16.5747 24.2483 16.5796 24.1768 16.5887C24.1126 16.5887 22.6091 16.6595 22.0922 17.3717C22.0159 17.4796 21.9728 17.606 21.9679 17.7365C21.9631 17.867 21.9966 17.9961 22.0647 18.109L24.6249 21.5005C24.6509 21.5359 24.7779 21.7099 24.9094 21.7099C24.9268 21.7099 24.9441 21.7065 24.9601 21.6999C24.9761 21.6933 24.9906 21.6837 25.0027 21.6716C25.0623 21.6126 25.0853 21.4902 25.0776 21.2867V17.0915C25.081 17.0317 25.072 16.9719 25.0513 16.9155C25.0305 16.859 24.9984 16.8071 24.9568 16.7627Z" fill="#FFB506"/>
<path d="M28.5892 17.7625C28.557 17.559 28.3857 17.3673 28.0829 17.1962C28.0432 17.1697 27.1117 16.5489 26.3011 16.5489C26.1758 16.5479 26.051 16.5653 25.931 16.6005C25.8011 16.6418 25.686 16.718 25.5993 16.8201C25.5127 16.9222 25.4579 17.046 25.4416 17.177L25.3498 21.3663C25.339 21.4779 25.3664 21.5898 25.4278 21.6848C25.4396 21.6974 25.454 21.7074 25.4701 21.7143C25.4862 21.7212 25.5035 21.7247 25.5211 21.7247C25.6098 21.7247 25.7138 21.6406 25.8438 21.4607L28.4821 18.1222C28.5253 18.073 28.5571 18.0154 28.5756 17.9534C28.594 17.8914 28.5987 17.8263 28.5892 17.7625Z" fill="#FFB506"/>
<path d="M30.8374 19.7C30.8145 19.6425 30.2685 18.2903 29.4028 18.0426C29.2715 18.0065 29.1322 18.0074 29.0014 18.045C28.8705 18.0826 28.7535 18.1554 28.6641 18.2549L26.1467 21.6716C26.1176 21.7084 25.9784 21.9001 26.0381 22.0151C26.0531 22.0407 26.0756 22.0614 26.1029 22.0745C26.1301 22.0877 26.1608 22.0927 26.191 22.0889C26.2964 22.0818 26.3997 22.0579 26.4969 22.0181L30.6264 20.691C30.6922 20.6743 30.7536 20.6443 30.8064 20.6028C30.8591 20.5613 30.9021 20.5094 30.9322 20.4506C31.0179 20.2589 30.9888 20.0067 30.8374 19.7Z" fill="#FFB506"/>
<path d="M24.3908 21.673L21.8688 18.2505C21.8019 18.177 21.7196 18.1181 21.6273 18.0777C21.535 18.0373 21.4349 18.0163 21.3335 18.016C21.2657 18.0159 21.1983 18.0248 21.1331 18.0426C20.2675 18.2903 19.7215 19.6425 19.7016 19.7C19.5486 20.0097 19.518 20.2618 19.6098 20.4462C19.6388 20.5035 19.6799 20.5543 19.7305 20.5955C19.7811 20.6366 19.84 20.6671 19.9035 20.685L24.0329 22.0122C24.13 22.0525 24.2334 22.0769 24.3388 22.0844C24.369 22.0882 24.3997 22.0832 24.427 22.0701C24.4542 22.0569 24.4768 22.0363 24.4917 22.0107C24.559 21.9001 24.4183 21.7084 24.3908 21.673Z" fill="#FFB506"/>
<path d="M25.0775 28.0373V23.8377C25.0775 23.6327 25.0622 23.5104 25.0025 23.4514C24.9905 23.4391 24.9761 23.4292 24.96 23.4224C24.944 23.4156 24.9267 23.4119 24.9092 23.4116C24.7838 23.4116 24.6508 23.587 24.6248 23.621L22.0614 27.0125C21.9936 27.1256 21.9605 27.2549 21.9659 27.3854C21.9713 27.5159 22.0151 27.6423 22.092 27.7498C22.609 28.462 24.1124 28.5313 24.172 28.5328C24.2451 28.5417 24.3186 28.5467 24.3923 28.5475C24.4948 28.5562 24.5981 28.5439 24.6954 28.5114C24.7927 28.4789 24.8817 28.4269 24.9566 28.3588C25.0392 28.2711 25.0827 28.1556 25.0775 28.0373Z" fill="#FFB506"/>
<path d="M28.485 27.0051L25.8453 23.6652C25.7137 23.4838 25.6097 23.3998 25.521 23.3998C25.5034 23.3997 25.486 23.4033 25.47 23.4101C25.4539 23.417 25.4395 23.427 25.4277 23.4396C25.3665 23.5342 25.3391 23.6456 25.3497 23.7566L25.443 27.9548C25.4601 28.0845 25.515 28.2068 25.6014 28.3076C25.6877 28.4083 25.802 28.4834 25.9309 28.524C26.0508 28.5592 26.1756 28.5766 26.301 28.5756C27.1116 28.5756 28.043 27.9548 28.0782 27.9312C28.3841 27.7572 28.5569 27.5655 28.589 27.362C28.5987 27.2988 28.5944 27.2344 28.5765 27.1729C28.5586 27.1114 28.5274 27.0542 28.485 27.0051Z" fill="#FFB506"/>
<path d="M30.9261 24.6797C30.8974 24.6229 30.8567 24.5724 30.8067 24.5315C30.7567 24.4907 30.6984 24.4603 30.6355 24.4423L26.506 23.1152C26.409 23.0749 26.3056 23.0505 26.2002 23.0429C26.1699 23.0391 26.1392 23.0441 26.112 23.0573C26.0848 23.0704 26.0622 23.0911 26.0472 23.1167C25.9876 23.2317 26.1267 23.4234 26.1543 23.4588L28.6778 26.8813C28.7446 26.9545 28.8267 27.0132 28.9187 27.0536C29.0107 27.094 29.1105 27.1152 29.2116 27.1157C29.28 27.1161 29.348 27.1067 29.4135 27.0877C30.2776 26.8414 30.8236 25.4893 30.845 25.4347C30.9888 25.1177 31.0178 24.8611 30.9261 24.6797Z" fill="#FFB506"/>
<path d="M31.4812 21.791C31.3619 21.1747 31.0499 21.0818 30.8694 21.0818C30.8173 21.0822 30.7655 21.0911 30.7165 21.1083L26.5626 22.3735C26.3087 22.4398 26.1894 22.5209 26.1863 22.6168C26.1863 22.7554 26.4356 22.8395 26.4846 22.8542L30.614 24.1902C30.6644 24.2002 30.7156 24.2057 30.767 24.2064C30.8754 24.207 30.9826 24.1833 31.08 24.1373C31.1773 24.0912 31.2623 24.024 31.3283 23.941C31.8804 23.2494 31.4965 21.8471 31.4812 21.791Z" fill="#FFB506"/>
<path d="M24.4979 23.1093C24.4829 23.0837 24.4603 23.063 24.4331 23.0499C24.4058 23.0368 24.3751 23.0318 24.3449 23.0356C24.2396 23.0426 24.1362 23.0665 24.039 23.1063L19.9096 24.4408C19.844 24.4576 19.7828 24.4875 19.7301 24.5287C19.6774 24.5699 19.6343 24.6213 19.6037 24.6797C19.5119 24.8655 19.5425 25.1221 19.6939 25.417C19.7153 25.4745 20.2614 26.8267 21.127 27.073C21.192 27.092 21.2595 27.1014 21.3274 27.101C21.4297 27.1002 21.5308 27.0785 21.6239 27.0373C21.7169 26.9961 21.7999 26.9364 21.8673 26.8621L24.3847 23.4455C24.4183 23.416 24.559 23.2243 24.4979 23.1093Z" fill="#FFB506"/>
<path d="M23.978 22.2673L19.8271 21.005C19.7741 20.9867 19.7182 20.9773 19.6619 20.977C19.4876 20.977 19.1771 21.0699 19.0502 21.6819C19.0333 21.7423 18.6495 23.1447 19.2031 23.8348C19.2688 23.9181 19.3537 23.9854 19.4512 24.0315C19.5486 24.0776 19.6559 24.1011 19.7644 24.1002C19.8199 24.1001 19.8752 24.0947 19.9296 24.084L24.0499 22.7568C24.0988 22.7406 24.3557 22.658 24.3557 22.5194C24.3512 22.4133 24.2319 22.3351 23.978 22.2673Z" fill="#FFB506"/>
</g>
<defs>
<clipPath id="clip0_7_4027">
<rect width="25" height="19" fill="white" transform="translate(8 11)"/>
</clipPath>
</defs>
</svg>
