<svg width="42" height="42" viewBox="0 0 42 42" fill="none" xmlns="http://www.w3.org/2000/svg">
<path d="M33.8825 23.2771H14.1856C9.70227 23.2771 6.06787 19.6427 6.06787 15.1594C6.06787 9.23699 10.869 4.43597 16.7913 4.43597H31.2768C37.1991 4.43589 42.0002 9.2369 42.0002 15.1593C42.0002 19.6426 38.3658 23.2771 33.8825 23.2771Z" fill="url(#paint0_linear_7_4658)"/>
<path d="M33.3381 17.9931C33.9369 17.9931 34.4224 17.5077 34.4224 16.9088C34.4224 16.3099 33.9369 15.8245 33.3381 15.8245C32.7392 15.8245 32.2537 16.3099 32.2537 16.9088C32.2537 17.5077 32.7392 17.9931 33.3381 17.9931Z" fill="url(#paint1_linear_7_4658)"/>
<path d="M21.0266 13.9183C20.4277 13.9183 19.9422 14.4038 19.9422 15.0027C19.9422 15.6015 20.4277 16.087 21.0266 16.087C21.6254 16.087 22.1109 15.6015 22.1109 15.0027C22.1109 14.4037 21.6254 13.9183 21.0266 13.9183Z" fill="url(#paint2_linear_7_4658)"/>
<path d="M15.1402 11.7496C14.5413 11.7496 14.0559 12.2351 14.0559 12.834C14.0559 13.4328 14.5413 13.9183 15.1402 13.9183C15.7391 13.9183 16.2245 13.4328 16.2245 12.834C16.2245 12.2351 15.7391 11.7496 15.1402 11.7496Z" fill="url(#paint3_linear_7_4658)"/>
<path d="M13.651 20.5779C14.7909 20.5779 15.715 19.6539 15.715 18.514C15.715 17.3741 14.7909 16.4501 13.651 16.4501C12.5112 16.4501 11.5871 17.3741 11.5871 18.514C11.5871 19.6539 12.5112 20.5779 13.651 20.5779Z" fill="url(#paint4_linear_7_4658)"/>
<path d="M40.6801 10.0013C38.8577 6.68415 35.3297 4.43591 31.2771 4.43591H16.7912C13.8306 4.43591 11.1492 5.6358 9.20895 7.57685C8.4933 8.2925 7.87895 9.1078 7.38812 10.0013C7.90365 11.8814 10.0275 13.3029 12.2165 12.173C14.6286 10.9286 17.2441 9.98733 19.6406 9.98733H28.4277C30.8241 9.98733 33.4397 10.9286 35.8518 12.173C36.1152 12.3089 36.3778 12.4078 36.6367 12.4736C37.8376 12.7784 38.6953 13.841 38.7042 15.08C38.7044 15.1063 38.7046 15.1327 38.7046 15.1591C38.7046 16.3904 38.43 17.5574 37.9394 18.6029C37.5431 18.2877 37.0341 18.1077 36.4824 18.1348C35.3896 18.1882 34.4932 19.0728 34.4265 20.1648C34.4133 20.3808 34.4318 20.5905 34.4777 20.7897C34.6677 21.6133 34.2489 22.4555 33.4585 22.7547C32.5658 23.0926 31.598 23.2775 30.587 23.2775H33.8828C36.1244 23.2775 38.1536 22.3684 39.6228 20.8992C41.092 19.43 42.0003 17.4008 42.0003 15.1592C42.0002 13.2897 41.5218 11.5314 40.6801 10.0013Z" fill="url(#paint5_linear_7_4658)"/>
<path d="M19.6398 7.92787H28.4272C30.8236 7.92787 33.4393 8.86867 35.851 10.1133C39.2511 11.868 42.4957 7.46587 39.7967 4.75374C36.8748 1.81745 32.8297 0 28.36 0H19.707C15.2373 0 11.1922 1.81745 8.2702 4.75366C5.57125 7.46579 8.81579 11.8679 12.216 10.1132C14.6277 8.86867 17.2433 7.92787 19.6398 7.92787Z" fill="url(#paint6_linear_7_4658)"/>
<path d="M39.7974 4.75367C37.3165 2.26069 34.0259 0.574098 30.3532 0.121816C30.3532 0.121816 30.3517 0.121816 30.3496 0.121898C29.6977 0.0415214 29.0343 0.000427246 28.3611 0.000427246H24.4114C22.8755 0.43278 21.6551 1.02984 20.7525 1.5816C18.804 2.77325 17.8668 4.01102 17.8281 4.0629C17.6239 4.33631 17.6799 4.72337 17.9533 4.9276C18.0645 5.00996 18.1938 5.05031 18.3223 5.05031C18.5108 5.05031 18.6961 4.96466 18.818 4.80243C18.8491 4.76051 21.8584 0.839604 28.4654 0.627463C29.1756 0.604651 29.8853 0.716404 30.5533 0.95811L30.5635 0.961816C25.7615 1.51638 23.4141 4.28113 23.2982 4.42122C23.0812 4.68343 23.1179 5.07098 23.3794 5.28881C23.4946 5.38475 23.6346 5.43152 23.7739 5.43152C23.9506 5.43152 24.1263 5.35609 24.2487 5.21016C24.2563 5.2011 25.0258 4.2948 26.5569 3.47119C28.0098 2.68975 29.6243 2.241 31.3763 2.12876C32.465 2.059 33.5489 2.36527 34.4363 2.99964L34.4497 3.00919C29.4146 3.19605 26.8091 5.93972 26.6828 6.07618C26.4516 6.32596 26.4668 6.71491 26.7158 6.9469C26.8346 7.0575 26.9855 7.11218 27.1362 7.11218C27.3014 7.11218 27.4664 7.04646 27.588 6.91659C27.5962 6.90803 28.4147 6.04563 29.9891 5.30816C31.6022 4.55257 33.382 4.19549 35.2981 4.23856C35.7479 4.24869 36.1791 4.43003 36.4966 4.74882C36.4983 4.75046 36.4999 4.75211 36.5016 4.75376C38.2771 6.53793 37.4803 9.05324 35.7593 10.0662C35.7901 10.0819 35.8209 10.0975 35.8516 10.1133C39.2518 11.8679 42.4964 7.46581 39.7974 4.75367Z" fill="url(#paint7_linear_7_4658)"/>
<path d="M19.7071 0.000265458C19.6967 0.000265458 19.6864 0.000265458 19.6761 0.000265458C17.9958 0.00339487 16.3781 0.654971 15.151 1.80281C13.9067 2.96678 13.3692 3.9892 13.3231 4.07912C13.1691 4.38218 13.2893 4.75277 13.5916 4.90842C13.6813 4.95454 13.7777 4.97677 13.8732 4.97677C14.0964 4.97677 14.313 4.85407 14.4225 4.64242C14.4283 4.63171 14.9825 3.58007 16.2977 2.44277C17.6186 1.30054 19.1965 0.482771 21.0058 0.000183105H19.7071V0.000265458Z" fill="url(#paint8_linear_7_4658)"/>
<path d="M27.8146 41.9997H8.11768C3.63438 41.9997 -1.52588e-05 38.3653 -1.52588e-05 33.882C-1.52588e-05 27.9596 4.80108 23.1585 10.7234 23.1585H25.2089C31.1313 23.1585 35.9323 27.9596 35.9323 33.8819C35.9323 38.3653 32.2979 41.9997 27.8146 41.9997Z" fill="url(#paint9_linear_7_4658)"/>
<path d="M27.2702 36.7156C27.8691 36.7156 28.3545 36.2301 28.3545 35.6313C28.3545 35.0324 27.8691 34.5469 27.2702 34.5469C26.6713 34.5469 26.1859 35.0324 26.1859 35.6313C26.1859 36.2301 26.6713 36.7156 27.2702 36.7156Z" fill="url(#paint10_linear_7_4658)"/>
<path d="M14.9587 32.641C14.3598 32.641 13.8743 33.1265 13.8743 33.7253C13.8743 34.3242 14.3598 34.8097 14.9587 34.8097C15.5575 34.8097 16.043 34.3242 16.043 33.7253C16.043 33.1265 15.5575 32.641 14.9587 32.641Z" fill="url(#paint11_linear_7_4658)"/>
<path d="M9.07239 30.4722C8.47352 30.4722 7.98804 30.9577 7.98804 31.5566C7.98804 32.1554 8.47352 32.6409 9.07239 32.6409C9.67126 32.6409 10.1567 32.1554 10.1567 31.5566C10.1566 30.9577 9.67117 30.4722 9.07239 30.4722Z" fill="url(#paint12_linear_7_4658)"/>
<path d="M7.58324 39.3004C8.72311 39.3004 9.64716 38.3764 9.64716 37.2365C9.64716 36.0966 8.72311 35.1725 7.58324 35.1725C6.44336 35.1725 5.51931 36.0966 5.51931 37.2365C5.51931 38.3764 6.44336 39.3004 7.58324 39.3004Z" fill="url(#paint13_linear_7_4658)"/>
<path d="M34.6123 28.7239C32.7898 25.4067 29.2618 23.1585 25.2092 23.1585H10.7234C7.76278 23.1585 5.08137 24.3584 3.14113 26.2995C2.42549 27.0151 1.81113 27.8304 1.32031 28.7239C1.83584 30.604 3.95972 32.0255 6.14866 30.8956C8.56078 29.6512 11.1763 28.7099 13.5728 28.7099H22.3598C24.7563 28.7099 27.3718 29.6512 29.784 30.8956C30.0474 31.0315 30.3099 31.1304 30.5689 31.1962C31.7698 31.501 32.6275 32.5636 32.6364 33.8026C32.6366 33.8289 32.6367 33.8553 32.6367 33.8817C32.6367 35.113 32.3622 36.28 31.8716 37.3255C31.4752 37.0103 30.9663 36.8304 30.4145 36.8574C29.3218 36.9108 28.4254 37.7954 28.3587 38.8874C28.3455 39.1034 28.3639 39.3131 28.4099 39.5123C28.5999 40.3359 28.1811 41.1781 27.3907 41.4773C26.498 41.8152 25.5302 42.0001 24.5192 42.0001H27.815C30.0566 42.0001 32.0858 41.091 33.555 39.6218C35.0242 38.1526 35.9325 36.1234 35.9325 33.8818C35.9324 32.0123 35.454 30.254 34.6123 28.7239Z" fill="url(#paint14_linear_7_4658)"/>
<path d="M13.5727 26.6504H22.3601C24.7566 26.6504 27.3723 27.5912 29.7839 28.8358C33.1841 30.5904 36.4286 26.1884 33.7297 23.4762C30.8077 20.54 26.7626 18.7226 22.2929 18.7226H13.6398C9.17023 18.7226 5.12505 20.54 2.20309 23.4762C-0.495868 26.1884 2.74867 30.5904 6.14886 28.8358C8.56057 27.5912 11.1762 26.6504 13.5727 26.6504Z" fill="url(#paint15_linear_7_4658)"/>
<path d="M33.73 23.4761C31.2491 20.983 27.9584 19.2965 24.2857 18.8442C24.2857 18.8442 24.2842 18.8442 24.2821 18.8443C23.6302 18.7639 22.9668 18.7228 22.2936 18.7228H18.3439C16.8081 19.1552 15.5876 19.7523 14.685 20.304C12.7365 21.4957 11.7994 22.7334 11.7607 22.7853C11.5564 23.0587 11.6124 23.4458 11.8858 23.65C11.997 23.7324 12.1263 23.7727 12.2548 23.7727C12.4434 23.7727 12.6287 23.6871 12.7505 23.5249C12.7816 23.4829 15.7909 19.562 22.3979 19.3499C23.1081 19.3271 23.8178 19.4388 24.4858 19.6805L24.496 19.6842C19.694 20.2388 17.3467 23.0036 17.2307 23.1436C17.0137 23.4059 17.0504 23.7934 17.3119 24.0112C17.4271 24.1072 17.5671 24.1539 17.7064 24.1539C17.8831 24.1539 18.0588 24.0785 18.1812 23.9326C18.1888 23.9235 18.9583 23.0172 20.4894 22.1936C21.9423 21.4122 23.5568 20.9634 25.3089 20.8512C26.3975 20.7814 27.4814 21.0877 28.3689 21.7221L28.3822 21.7316C23.3471 21.9185 20.7416 24.6621 20.6153 24.7986C20.3842 25.0484 20.3993 25.4373 20.6483 25.6693C20.7671 25.7799 20.9181 25.8346 21.0688 25.8346C21.234 25.8346 21.3989 25.7689 21.5205 25.639C21.5287 25.6305 22.3472 24.7681 23.9216 24.0306C25.5348 23.275 27.3145 22.9179 29.2306 22.961C29.6804 22.9711 30.1116 23.1525 30.4292 23.4712L30.4341 23.4762C32.2096 25.2604 31.4128 27.7757 29.6919 28.7886C29.7226 28.8043 29.7535 28.8199 29.7841 28.8357C33.1843 30.5903 36.4288 26.1882 33.73 23.4761Z" fill="url(#paint16_linear_7_4658)"/>
<path d="M13.6396 18.7229C13.6292 18.7229 13.6189 18.7229 13.6086 18.7229C11.9283 18.726 10.3106 19.3776 9.08352 20.5254C7.83925 21.6894 7.30173 22.7118 7.25561 22.8017C7.10161 23.1048 7.22185 23.4753 7.52408 23.631C7.61385 23.6771 7.7102 23.6993 7.80573 23.6993C8.0289 23.6993 8.24549 23.5766 8.35502 23.365C8.36079 23.3543 8.91502 22.3026 10.2302 21.1654C11.5511 20.0231 13.129 19.2054 14.9383 18.7228H13.6396V18.7229Z" fill="url(#paint17_linear_7_4658)"/>
<defs>
<linearGradient id="paint0_linear_7_4658" x1="7.03428" y1="13.8565" x2="41.1286" y2="13.8565" gradientUnits="userSpaceOnUse">
<stop stop-color="#F8F6F7"/>
<stop offset="0.1788" stop-color="#F8F6F7"/>
<stop offset="1" stop-color="#E7E6F5"/>
</linearGradient>
<linearGradient id="paint1_linear_7_4658" x1="2.10101" y1="16.9088" x2="41.7267" y2="16.9088" gradientUnits="userSpaceOnUse">
<stop stop-color="#F8F6F7"/>
<stop offset="1" stop-color="#D1CEEB"/>
</linearGradient>
<linearGradient id="paint2_linear_7_4658" x1="2.10121" y1="15.0026" x2="41.7269" y2="15.0026" gradientUnits="userSpaceOnUse">
<stop stop-color="#F8F6F7"/>
<stop offset="1" stop-color="#D1CEEB"/>
</linearGradient>
<linearGradient id="paint3_linear_7_4658" x1="2.10051" y1="12.834" x2="41.7263" y2="12.834" gradientUnits="userSpaceOnUse">
<stop stop-color="#F8F6F7"/>
<stop offset="1" stop-color="#D1CEEB"/>
</linearGradient>
<linearGradient id="paint4_linear_7_4658" x1="2.10069" y1="18.514" x2="41.7265" y2="18.514" gradientUnits="userSpaceOnUse">
<stop stop-color="#F8F6F7"/>
<stop offset="1" stop-color="#D1CEEB"/>
</linearGradient>
<linearGradient id="paint5_linear_7_4658" x1="2.10082" y1="13.8567" x2="41.7266" y2="13.8567" gradientUnits="userSpaceOnUse">
<stop stop-color="#F8F6F7"/>
<stop offset="1" stop-color="#D1CEEB"/>
</linearGradient>
<linearGradient id="paint6_linear_7_4658" x1="7.94705" y1="5.25741" x2="48.2599" y2="5.25741" gradientUnits="userSpaceOnUse">
<stop stop-color="#FE646F"/>
<stop offset="0.593" stop-color="#FB2B3A"/>
<stop offset="1" stop-color="#C41926"/>
</linearGradient>
<linearGradient id="paint7_linear_7_4658" x1="-1.15257" y1="5.25759" x2="38.1683" y2="5.25759" gradientUnits="userSpaceOnUse">
<stop stop-color="#FE646F"/>
<stop offset="0.593" stop-color="#FB2B3A"/>
<stop offset="1" stop-color="#C41926"/>
</linearGradient>
<linearGradient id="paint8_linear_7_4658" x1="-1.15281" y1="2.48856" x2="38.1681" y2="2.48856" gradientUnits="userSpaceOnUse">
<stop stop-color="#FE646F"/>
<stop offset="0.593" stop-color="#FB2B3A"/>
<stop offset="1" stop-color="#C41926"/>
</linearGradient>
<linearGradient id="paint9_linear_7_4658" x1="0.966397" y1="32.5791" x2="35.0608" y2="32.5791" gradientUnits="userSpaceOnUse">
<stop stop-color="#F8F6F7"/>
<stop offset="0.1788" stop-color="#F8F6F7"/>
<stop offset="1" stop-color="#E7E6F5"/>
</linearGradient>
<linearGradient id="paint10_linear_7_4658" x1="-3.96693" y1="35.6313" x2="35.6588" y2="35.6313" gradientUnits="userSpaceOnUse">
<stop stop-color="#F8F6F7"/>
<stop offset="1" stop-color="#D1CEEB"/>
</linearGradient>
<linearGradient id="paint11_linear_7_4658" x1="-3.9667" y1="33.7253" x2="35.6591" y2="33.7253" gradientUnits="userSpaceOnUse">
<stop stop-color="#F8F6F7"/>
<stop offset="1" stop-color="#D1CEEB"/>
</linearGradient>
<linearGradient id="paint12_linear_7_4658" x1="-3.96738" y1="31.5566" x2="35.6584" y2="31.5566" gradientUnits="userSpaceOnUse">
<stop stop-color="#F8F6F7"/>
<stop offset="1" stop-color="#D1CEEB"/>
</linearGradient>
<linearGradient id="paint13_linear_7_4658" x1="-3.96708" y1="37.2366" x2="35.6586" y2="37.2366" gradientUnits="userSpaceOnUse">
<stop stop-color="#F8F6F7"/>
<stop offset="1" stop-color="#D1CEEB"/>
</linearGradient>
<linearGradient id="paint14_linear_7_4658" x1="-3.96708" y1="32.5793" x2="35.6587" y2="32.5793" gradientUnits="userSpaceOnUse">
<stop stop-color="#F8F6F7"/>
<stop offset="1" stop-color="#D1CEEB"/>
</linearGradient>
<linearGradient id="paint15_linear_7_4658" x1="1.87993" y1="23.98" x2="42.1928" y2="23.98" gradientUnits="userSpaceOnUse">
<stop stop-color="#FBC56D"/>
<stop offset="0.5841" stop-color="#FE9738"/>
<stop offset="0.9984" stop-color="#FB2B3A"/>
</linearGradient>
<linearGradient id="paint16_linear_7_4658" x1="0.315653" y1="23.98" x2="36.1093" y2="23.98" gradientUnits="userSpaceOnUse">
<stop stop-color="#FBC56D"/>
<stop offset="0.5841" stop-color="#FE9738"/>
<stop offset="0.9984" stop-color="#FB2B3A"/>
</linearGradient>
<linearGradient id="paint17_linear_7_4658" x1="0.315401" y1="21.2111" x2="36.109" y2="21.2111" gradientUnits="userSpaceOnUse">
<stop stop-color="#FBC56D"/>
<stop offset="0.5841" stop-color="#FE9738"/>
<stop offset="0.9984" stop-color="#FB2B3A"/>
</linearGradient>
</defs>
</svg>
